<?xml version="1.0" encoding="UTF-8" standalone="no"?>
<!-- Created with Inkscape (http://www.inkscape.org/) -->

<svg
   xmlns:dc="http://purl.org/dc/elements/1.1/"
   xmlns:cc="http://creativecommons.org/ns#"
   xmlns:rdf="http://www.w3.org/1999/02/22-rdf-syntax-ns#"
   xmlns:svg="http://www.w3.org/2000/svg"
   xmlns="http://www.w3.org/2000/svg"
   xmlns:sodipodi="http://sodipodi.sourceforge.net/DTD/sodipodi-0.dtd"
   xmlns:inkscape="http://www.inkscape.org/namespaces/inkscape"
   id="svg2"
   version="1.1"
   inkscape:version="0.48.3.1 r9886"
   width="1280"
   height="960"
   xml:space="preserve"
   sodipodi:docname="desk.svg"
   inkscape:export-filename="/home/lenik/private/downloads/nipic/a.ai.png"
   inkscape:export-xdpi="56.200001"
   inkscape:export-ydpi="56.200001"><metadata
     id="metadata8"><rdf:RDF><cc:Work
         rdf:about=""><dc:format>image/svg+xml</dc:format><dc:type
           rdf:resource="http://purl.org/dc/dcmitype/StillImage" /><dc:title></dc:title></cc:Work></rdf:RDF></metadata><defs
     id="defs6"><clipPath
       clipPathUnits="userSpaceOnUse"
       id="clipPath16"><path
         d="M 0,768 1024,768 1024,0 0,0 0,768 z"
         id="path18" /></clipPath><clipPath
       clipPathUnits="userSpaceOnUse"
       id="clipPath24"><path
         d="m -0.5,768.5 1025,0 0,-769 -1025,0 0,769 z"
         id="path26" /></clipPath></defs><sodipodi:namedview
     pagecolor="#ffffff"
     bordercolor="#666666"
     borderopacity="1"
     objecttolerance="10"
     gridtolerance="10"
     guidetolerance="10"
     inkscape:pageopacity="0"
     inkscape:pageshadow="2"
     inkscape:window-width="950"
     inkscape:window-height="768"
     id="namedview4"
     showgrid="false"
     inkscape:zoom="0.32070313"
     inkscape:cx="657.59887"
     inkscape:cy="764.32837"
     inkscape:window-x="101"
     inkscape:window-y="146"
     inkscape:window-maximized="0"
     inkscape:current-layer="g10" /><g
     inkscape:groupmode="layer"
     id="layer1"
     inkscape:label="back"><g
       id="g40"
       transform="matrix(1.25,0,0,-1.25,535.82525,906.1755)" /><g
       id="g682"
       transform="matrix(0.39044948,0,0,-0.39044948,73.065072,309.55606)"
       inkscape:export-filename="/home/lenik/tasks/22-qt/sweeper/qml/contents/images/room-2.png"
       inkscape:export-xdpi="90"
       inkscape:export-ydpi="90"><path
         style="fill:#cec898;fill-opacity:1;fill-rule:nonzero;stroke:none"
         d="M 434.3125,266.96875 320.25,410.59375 C 32.138631,770.72837 305.69378,426.16142 0.625,813.0625 l 0,1101.834 c 426.25,0 852.5,0 1278.75,0 l 0,-1520.61525 z"
         id="path8091"
         inkscape:connector-curvature="0"
         sodipodi:nodetypes="ccccccc"
         transform="matrix(0.8,0,0,-0.8,-83.109896,694.75)" /></g></g><g
     id="g10"
     inkscape:groupmode="layer"
     inkscape:label="a"
     transform="matrix(1.25,0,0,-1.25,0,960)"
     style="display:inline"><g
       id="g36"
       transform="matrix(0.31235958,0,0,0.31235958,352.37006,639.12682)"
       inkscape:export-filename="/home/lenik/tasks/22-qt/sweeper/qml/contents/images/room-2.png"
       inkscape:export-xdpi="90"
       inkscape:export-ydpi="90"><path
         inkscape:connector-curvature="0"
         id="path38"
         style="fill:#cec898;fill-opacity:1;fill-rule:nonzero;stroke:none"
         d="m 0,0 -0.141,-0.98 -0.429,0.06 0,1.01 L 0,0 z" /></g><g
       id="g44"
       transform="matrix(0.31235958,0,0,0.31235958,352.19192,639.1549)"
       inkscape:export-filename="/home/lenik/tasks/22-qt/sweeper/qml/contents/images/room-2.png"
       inkscape:export-xdpi="90"
       inkscape:export-ydpi="90"><path
         inkscape:connector-curvature="0"
         id="path46"
         style="fill:#232323;fill-opacity:1;fill-rule:nonzero;stroke:none"
         d="m 0,0 0,-1.01 -676.05,101.85 -91.25,-114.9 -0.09,0.07 -0.02,1.4 90.64,114.14 0,-0.17 1,0 0,0.43 L 0,0 z" /></g><g
       id="g48"
       transform="matrix(0.31235958,0,0,0.31235958,352.19192,737.2108)"
       inkscape:export-filename="/home/lenik/tasks/22-qt/sweeper/qml/contents/images/room-2.png"
       inkscape:export-xdpi="90"
       inkscape:export-ydpi="90"><path
         inkscape:connector-curvature="0"
         id="path50"
         style="fill:#e6c8a7;fill-opacity:1;fill-rule:nonzero;stroke:none"
         d="M 0,0 0,-313.92 -675.77,-212.11 -675.77,0 0,0 z" /></g><g
       id="g488"
       transform="matrix(0.31235958,0,0,0.31235958,141.10868,670.95623)"
       inkscape:export-filename="/home/lenik/tasks/22-qt/sweeper/qml/contents/images/room-2.png"
       inkscape:export-xdpi="90"
       inkscape:export-ydpi="90"><path
         inkscape:connector-curvature="0"
         id="path490"
         style="fill:#cec898;fill-opacity:1;fill-rule:nonzero;stroke:none"
         d="m 0,0 0,-0.43 -1,0 0,0.17 0.29,0.37 L -0.42,0.06 0,0 z" /></g><g
       id="g492"
       transform="matrix(0.31235958,0,0,0.31235958,141.10868,737.2108)"
       inkscape:export-filename="/home/lenik/tasks/22-qt/sweeper/qml/contents/images/room-2.png"
       inkscape:export-xdpi="90"
       inkscape:export-ydpi="90"><path
         inkscape:connector-curvature="0"
         id="path494"
         style="fill:#232323;fill-opacity:1;fill-rule:nonzero;stroke:none"
         d="m 0,0 0,-212.11 -0.42,0.06 L -0.71,-212 -1,-212.37 -1,0 0,0 z" /></g><path
       inkscape:connector-curvature="0"
       id="path496"
       style="fill:#cec898;fill-opacity:1;fill-rule:nonzero;stroke:none"
       d="m 141.10868,737.2108 -0.31236,0 0,0.15618 0.31236,0 0,-0.15618 z"
       inkscape:export-filename="/home/lenik/tasks/22-qt/sweeper/qml/contents/images/room-2.png"
       inkscape:export-xdpi="90"
       inkscape:export-ydpi="90" /><g
       id="g498"
       transform="matrix(0.31235958,0,0,0.31235958,140.79632,737.2108)"
       inkscape:export-filename="/home/lenik/tasks/22-qt/sweeper/qml/contents/images/room-2.png"
       inkscape:export-xdpi="90"
       inkscape:export-ydpi="90"><path
         inkscape:connector-curvature="0"
         id="path500"
         style="fill:#c89661;fill-opacity:1;fill-rule:nonzero;stroke:none"
         d="m 0,0 0,-212.37 -90.64,-114.14 -5.1,316.94 -210.17,-157.63 -0.2,-0.15 0,-430.48 -40.12,-50.52 0,648.35 L 0,0 z" /></g><g
       id="g8367"
       transform="translate(-299.93089,-111.25977)"
       inkscape:export-filename="/home/lenik/tasks/22-qt/sweeper/qml/contents/images/room-2.png"
       inkscape:export-xdpi="90"
       inkscape:export-ydpi="90"><g
         id="g8137"><g
           id="g52"
           transform="matrix(0.3758986,0,0,0.3758986,630.00573,523.68822)"><path
             inkscape:connector-curvature="0"
             id="path54"
             style="fill:#232323;fill-opacity:1;fill-rule:nonzero;stroke:none"
             d="m 0,0 c 1.28,-2.43 18.55,-36.93 0,-87.22 l 0,0.11 c 0,0.74 -0.08,1.47 -0.239,2.19 15.63,44.24 3.409,75.73 0.079,82.97 l 0,0.01 C -0.05,-1.34 0,-0.73 0,-0.11 L 0,0 z" /></g><g
           id="g56"
           transform="matrix(0.3758986,0,0,0.3758986,629.94555,522.95514)"><path
             inkscape:connector-curvature="0"
             id="path58"
             style="fill:#775f3c;fill-opacity:1;fill-rule:nonzero;stroke:none"
             d="m 0,0 c 3.33,-7.24 15.551,-38.729 -0.079,-82.97 -0.851,4.031 -4.061,7.77 -9.011,10.97 6.101,15.25 5.851,24.95 4.111,30.811 -2.09,7.069 -6.451,9.379 -6.63,9.46 -9.191,4.989 -26.72,8.639 -34.401,10.069 C -21.21,-19.85 -1.96,-10.95 0,0" /></g><g
           id="g60"
           transform="matrix(0.3758986,0,0,0.3758986,630.00573,523.68822)"><path
             inkscape:connector-curvature="0"
             id="path62"
             style="fill:#232323;fill-opacity:1;fill-rule:nonzero;stroke:none"
             d="m 0,0 0,-0.11 c 0,-0.62 -0.05,-1.23 -0.16,-1.83 -0.47,1 -0.76,1.54 -0.779,1.58 l 0.87,0.49 C -0.06,0.12 -0.04,0.08 0,0.01 L 0,0 z" /></g><g
           id="g64"
           transform="matrix(0.3758986,0,0,0.3758986,630.00573,490.94358)"><path
             inkscape:connector-curvature="0"
             id="path66"
             style="fill:#232323;fill-opacity:1;fill-rule:nonzero;stroke:none"
             d="M 0,0 0,-0.109 C -0.01,-0.13 -0.02,-0.16 -0.029,-0.18 L -0.97,0.17 c 0.25,0.681 0.491,1.351 0.731,2.02 C -0.08,1.471 0,0.74 0,0" /></g><g
           id="g68"
           transform="matrix(0.3758986,0,0,0.3758986,629.99472,490.87603)"><path
             inkscape:connector-curvature="0"
             id="path70"
             style="fill:#232323;fill-opacity:1;fill-rule:nonzero;stroke:none"
             d="m 0,0 c 0.01,0.02 0.02,0.05 0.029,0.07 -0.099,-9.66 -13.67,-17.99 -33.05,-21.69 l -0.019,0.08 c 0.369,0.38 0.72,0.75 1.08,1.12 18.31,3.68 30.989,11.53 30.989,20.6 0,0.06 0,0.11 -0.009,0.17 l 0.04,0 L 0,0 z" /></g><g
           id="g72"
           transform="matrix(0.3758986,0,0,0.3758986,630.00573,523.6919)"><path
             inkscape:connector-curvature="0"
             id="path74"
             style="fill:#232323;fill-opacity:1;fill-rule:nonzero;stroke:none"
             d="m 0,0 c -0.04,0.07 -0.06,0.11 -0.069,0.12 l -0.87,-0.49 -0.071,0 C -1,-0.29 -1,-0.2 -1,-0.12 c 0,12.59 -24.45,22.83 -54.5,22.83 -30.05,0 -54.5,-10.24 -54.5,-22.83 0,-12.59 24.45,-22.84 54.5,-22.84 1.891,0 3.75,0.04 5.59,0.12 l 0.011,-0.13 c -0.011,0.01 -0.031,0.01 -0.031,0.01 l -0.13,-0.89 c -1.79,-0.07 -3.61,-0.11 -5.44,-0.11 -30.609,0 -55.5,10.7 -55.5,23.84 0,0.69 0.07,1.38 0.21,2.05 0.44,1.091 0.721,1.68 0.74,1.73 l -0.21,0.1 c 4.33,11.301 27.231,19.95 54.76,19.95 C -24.989,23.71 -0.149,13.09 0,0" /></g><g
           id="g76"
           transform="matrix(0.3758986,0,0,0.3758986,629.94555,522.95882)"><path
             inkscape:connector-curvature="0"
             id="path78"
             style="fill:#232323;fill-opacity:1;fill-rule:nonzero;stroke:none"
             d="m 0,0 0,-0.01 c -1.96,-10.95 -21.21,-19.849 -46.01,-21.66 -2.13,0.391 -3.5,0.62 -3.729,0.65 l -0.011,0.13 c 27.24,1.17 48.61,10.781 48.9,22.47 l 0.071,0 C -0.76,1.54 -0.47,1 0,0" /></g><g
           id="g80"
           transform="matrix(0.3758986,0,0,0.3758986,629.91582,491.76695)"><path
             inkscape:connector-curvature="0"
             id="path82"
             style="fill:#775f3c;fill-opacity:1;fill-rule:nonzero;stroke:none"
             d="m 0,0 c -0.24,-0.67 -0.48,-1.34 -0.73,-2.021 l -0.041,0 c -0.07,4.46 -3.209,8.621 -8.589,12.13 0.12,0.29 0.24,0.58 0.349,0.861 C -4.061,7.77 -0.851,4.03 0,0" /></g><g
           id="g84"
           transform="matrix(0.3758986,0,0,0.3758986,627.93829,523.96649)"><path
             inkscape:connector-curvature="0"
             id="path86"
             style="fill:#fbf5ea;fill-opacity:1;fill-rule:nonzero;stroke:none"
             d="m 0,0 c 0,11.85 -22.43,21.5 -50,21.5 -27.569,0 -50,-9.65 -50,-21.5 0,-11.86 22.431,-21.5 50,-21.5 27.57,0 50,9.64 50,21.5 m 4.5,-0.851 c 0,-0.08 0,-0.17 -0.01,-0.25 C 4.2,-12.79 -17.17,-22.4 -44.41,-23.57 c -1.84,-0.08 -3.699,-0.12 -5.59,-0.12 -30.05,0 -54.5,10.25 -54.5,22.839 0,12.59 24.45,22.83 54.5,22.83 30.05,0 54.5,-10.24 54.5,-22.83" /></g><g
           id="g88"
           transform="matrix(0.3758986,0,0,0.3758986,629.62619,491.00744)"><path
             inkscape:connector-curvature="0"
             id="path90"
             style="fill:#775f3c;fill-opacity:1;fill-rule:nonzero;stroke:none"
             d="m 0,0 c 0.01,-0.06 0.01,-0.109 0.01,-0.17 0,-9.069 -12.68,-16.92 -30.989,-20.6 12.469,13.05 13.879,15.76 13.919,15.85 3.63,6.32 6.4,11.99 8.47,17.05 C -3.21,8.62 -0.07,4.46 0,0" /></g><g
           id="g92"
           transform="matrix(0.3758986,0,0,0.3758986,628.07377,507.4721)"><path
             inkscape:connector-curvature="0"
             id="path94"
             style="fill:#d3ac69;fill-opacity:1;fill-rule:nonzero;stroke:none"
             d="m 0,0 c 1.74,-5.86 1.99,-15.561 -4.11,-30.811 -0.28,0.18 -0.57,0.361 -0.86,0.54 5.93,14.871 5.69,24.3 4.01,29.981 -1.97,6.67 -6.09,8.85 -6.13,8.869 -11.8,6.391 -37.59,10.58 -37.85,10.62 l 0.02,0.101 c 1.31,0.059 2.609,0.13 3.89,0.229 C -33.35,18.1 -15.82,14.449 -6.63,9.46 -6.45,9.38 -2.09,7.069 0,0" /></g><g
           id="g96"
           transform="matrix(0.3758986,0,0,0.3758986,627.7129,507.36305)"><path
             inkscape:connector-curvature="0"
             id="path98"
             style="fill:#d3ac69;fill-opacity:1;fill-rule:nonzero;stroke:none"
             d="m 0,0 c 1.68,-5.681 1.92,-15.11 -4.01,-29.98 -10.06,6.12 -26.66,10.129 -45.39,10.129 -28.93,0 -52.75,-9.549 -55.27,-21.689 -15.69,43.43 -3.32,78.85 -0.02,86.909 -0.14,-0.67 -0.21,-1.359 -0.21,-2.05 0,-13.139 24.89,-23.84 55.5,-23.84 1.83,0 3.65,0.041 5.44,0.111 l -0.02,-0.101 C -43.72,19.449 -17.93,15.26 -6.13,8.869 -6.09,8.85 -1.97,6.67 0,0" /></g><g
           id="g100"
           transform="matrix(0.3758986,0,0,0.3758986,626.52867,495.89044)"><path
             inkscape:connector-curvature="0"
             id="path102"
             style="fill:#232323;fill-opacity:1;fill-rule:nonzero;stroke:none"
             d="m 0,0 c -0.109,-0.28 -0.229,-0.57 -0.35,-0.86 -0.27,0.18 -0.56,0.36 -0.85,0.54 0.12,0.29 0.24,0.58 0.341,0.86 C -0.569,0.36 -0.279,0.18 0,0" /></g><g
           id="g104"
           transform="matrix(0.3758986,0,0,0.3758986,626.07752,495.77004)"><path
             inkscape:connector-curvature="0"
             id="path106"
             style="fill:#d3ac69;fill-opacity:1;fill-rule:nonzero;stroke:none"
             d="m 0,0 c 0.29,-0.18 0.58,-0.359 0.851,-0.54 -2.071,-5.06 -4.84,-10.73 -8.47,-17.05 -0.04,-0.09 -1.45,-2.8 -13.92,-15.849 -0.561,-0.121 -1.131,-0.231 -1.7,-0.331 13.12,13.661 14.679,16.541 14.739,16.651 C -4.84,-10.75 -2.069,-5.069 0,0" /></g><g
           id="g108"
           transform="matrix(0.3758986,0,0,0.3758986,626.20566,496.09346)"><path
             inkscape:connector-curvature="0"
             id="path110"
             style="fill:#d3ac69;fill-opacity:1;fill-rule:nonzero;stroke:none"
             d="m 0,0 c -0.101,-0.28 -0.221,-0.57 -0.341,-0.86 -9.819,6.02 -26.349,9.99 -45.05,9.99 -29.91,0 -54.279,-10.15 -54.489,-22.66 l -0.051,0 c -0.25,0.66 -0.489,1.32 -0.729,1.97 2.519,12.14 26.34,21.69 55.269,21.69 C -26.66,10.13 -10.061,6.12 0,0" /></g><g
           id="g112"
           transform="matrix(0.3758986,0,0,0.3758986,609.14336,499.52534)"><path
             inkscape:connector-curvature="0"
             id="path114"
             style="fill:#d3ac69;fill-opacity:1;fill-rule:nonzero;stroke:none"
             d="M 0,0 C 18.7,0 35.23,-3.97 45.05,-9.99 42.98,-15.06 40.21,-20.74 36.55,-27.109 36.49,-27.22 34.931,-30.1 21.811,-43.76 15.13,-44.99 7.75,-45.67 0,-45.67 c -30.05,0 -54.5,10.25 -54.5,22.84 0,0.06 0,0.11 0.011,0.17 C -54.279,-10.149 -29.91,0 0,0" /></g><g
           id="g116"
           transform="matrix(0.3758986,0,0,0.3758986,627.56239,523.96649)"><path
             inkscape:connector-curvature="0"
             id="path118"
             style="fill:#fbf5ea;fill-opacity:1;fill-rule:nonzero;stroke:none"
             d="m 0,0 c 0,11.3 -21.979,20.5 -49,20.5 -27.02,0 -49,-9.2 -49,-20.5 0,-11.311 21.98,-20.5 49,-20.5 27.021,0 49,9.189 49,20.5 m -49,21.5 c 27.57,0 50,-9.65 50,-21.5 0,-11.86 -22.43,-21.5 -50,-21.5 -27.569,0 -50,9.64 -50,21.5 0,11.85 22.431,21.5 50,21.5" /></g><g
           id="g120"
           transform="matrix(0.3758986,0,0,0.3758986,609.14336,531.67242)"><path
             inkscape:connector-curvature="0"
             id="path122"
             style="fill:#f5dfac;fill-opacity:1;fill-rule:nonzero;stroke:none"
             d="M 0,0 C 27.021,0 49,-9.2 49,-20.5 49,-31.811 27.021,-41 0,-41 c -27.02,0 -49,9.189 -49,20.5 C -49,-9.2 -27.02,0 0,0" /></g><g
           id="g124"
           transform="matrix(0.3758986,0,0,0.3758986,617.98104,483.20022)"><path
             inkscape:connector-curvature="0"
             id="path126"
             style="fill:#232323;fill-opacity:1;fill-rule:nonzero;stroke:none"
             d="m 0,0 c -0.36,-0.37 -0.711,-0.74 -1.08,-1.12 l -0.721,0.69 c 0.03,0.03 0.071,0.07 0.101,0.1 0.569,0.1 1.139,0.21 1.7,0.33" /></g><g
           id="g128"
           transform="matrix(0.3758986,0,0,0.3758986,617.57503,482.77913)"><path
             inkscape:connector-curvature="0"
             id="path130"
             style="fill:#232323;fill-opacity:1;fill-rule:nonzero;stroke:none"
             d="m 0,0 0.02,-0.08 c -6.871,-1.31 -14.46,-2.04 -22.451,-2.04 -30.519,0 -55.359,10.64 -55.5,23.73 0.011,-0.02 0.021,-0.05 0.031,-0.07 l 0.929,0.35 0.051,0 c -0.011,-0.06 -0.011,-0.11 -0.011,-0.17 0,-12.59 24.451,-22.84 54.5,-22.84 7.75,0 15.13,0.68 21.811,1.91 C -0.65,0.76 -0.69,0.72 -0.721,0.69 L 0,0 z" /></g><g
           id="g132"
           transform="matrix(0.3758986,0,0,0.3758986,611.24862,515.05762)"><path
             inkscape:connector-curvature="0"
             id="path134"
             style="fill:#232323;fill-opacity:1;fill-rule:nonzero;stroke:none"
             d="m 0,0 c 0.229,-0.03 1.6,-0.26 3.729,-0.65 -1.28,-0.1 -2.58,-0.17 -3.889,-0.23 l 0.13,0.89 c 0,0 0.019,0 0.03,-0.01" /></g><g
           id="g136"
           transform="matrix(0.3758986,0,0,0.3758986,588.64185,491.00744)"><path
             inkscape:connector-curvature="0"
             id="path138"
             style="fill:#232323;fill-opacity:1;fill-rule:nonzero;stroke:none"
             d="m 0,0 -0.93,-0.35 c -0.009,0.02 -0.019,0.05 -0.03,0.071 l 0,0.109 c 0,0.721 0.08,1.441 0.231,2.141 C -0.489,1.32 -0.25,0.66 0,0" /></g><g
           id="g140"
           transform="matrix(0.3758986,0,0,0.3758986,588.55927,525.10517)"><path
             inkscape:connector-curvature="0"
             id="path142"
             style="fill:#232323;fill-opacity:1;fill-rule:nonzero;stroke:none"
             d="M 0,0 0.21,-0.1 C 0.19,-0.149 -0.09,-0.739 -0.53,-1.83 -0.41,-1.21 -0.229,-0.6 0,0" /></g><g
           id="g144"
           transform="matrix(0.3758986,0,0,0.3758986,588.29971,525.22925)"><path
             inkscape:connector-curvature="0"
             id="path146"
             style="fill:#232323;fill-opacity:1;fill-rule:nonzero;stroke:none"
             d="M 0,0 0.69,-0.33 C 0.461,-0.93 0.28,-1.54 0.16,-2.16 -3.14,-10.22 -15.51,-45.64 0.181,-89.069 0.03,-89.77 -0.05,-90.489 -0.05,-91.21 l 0,-0.109 C -19.189,-40.729 -0.199,-0.399 0,0" /></g></g><g
         id="g8237"><g
           id="g148"
           transform="matrix(0.3758986,0,0,0.3758986,571.83543,521.26728)"><path
             inkscape:connector-curvature="0"
             id="path150"
             style="fill:#332d2b;fill-opacity:1;fill-rule:nonzero;stroke:none"
             d="m 0,0 -0.01,-25.91 c -8.469,-33.17 -25.969,-61.46 -52.01,-84.079 -17.07,-14.821 -37.81,-27.24 -61.82,-37.051 l -0.12,0.29 0,0.761 c 45.17,18.599 95.99,53.88 112.96,120.269 l 0,11.1 C -0.34,-9.81 0,-4.93 0,0" /></g><g
           id="g152"
           transform="matrix(0.3758986,0,0,0.3758986,571.83543,521.26728)"><path
             inkscape:connector-curvature="0"
             id="path154"
             style="fill:#332d2b;fill-opacity:1;fill-rule:nonzero;stroke:none"
             d="m 0,0 -1,0 c 0,86.041 -103.81,156.041 -231.41,156.041 -33.26,0 -64.89,-4.75 -93.5,-13.311 0.07,0.37 0.14,0.74 0.21,1.1 28.57,8.49 60.131,13.211 93.29,13.211 C -104.26,157.041 0,86.59 0,0" /></g><g
           id="g156"
           transform="matrix(0.3758986,0,0,0.3758986,571.45953,521.26728)"><path
             inkscape:connector-curvature="0"
             id="path158"
             style="fill:#332d2b;fill-opacity:1;fill-rule:nonzero;stroke:none"
             d="M 0,0 1,0 C 1,-4.93 0.66,-9.81 0,-14.62 L 0,0 z" /></g><g
           id="g160"
           transform="matrix(0.3758986,0,0,0.3758986,571.45953,515.7716)"><path
             inkscape:connector-curvature="0"
             id="path162"
             style="fill:#247a7e;fill-opacity:1;fill-rule:nonzero;stroke:none"
             d="m 0,0 0,-11.1 c -16.97,-66.389 -67.79,-101.67 -112.96,-120.269 l 0,10.909 C -50.64,-95.42 -7.029,-51.239 0,0" /></g><g
           id="g164"
           transform="matrix(0.3758986,0,0,0.3758986,571.45953,521.26728)"><path
             inkscape:connector-curvature="0"
             id="path166"
             style="fill:#332d2b;fill-opacity:1;fill-rule:nonzero;stroke:none"
             d="m 0,0 0,-14.62 c -7.029,-51.239 -50.64,-95.42 -112.96,-120.46 l 0,0.28 -1,0 0,-0.679 c -34.49,-13.71 -74.64,-21.571 -117.45,-21.571 -16.26,0 -32.14,1.13 -47.47,3.3 l 0,0.57 -1,0 0,-0.429 c -98.099,14.109 -173.5,70.179 -182.94,138.989 l 0,7.83 0.22,0.011 c 5.28,-82.91 106.96,-149.271 231.19,-149.271 C -103.81,-156.05 0,-86.04 0,0" /></g><g
           id="g168"
           transform="matrix(0.3758986,0,0,0.3758986,484.47279,579.92269)"><path
             inkscape:connector-curvature="0"
             id="path170"
             style="fill:#9dc2c8;fill-opacity:1;fill-rule:nonzero;stroke:none"
             d="m 0,0 c 127.601,0 231.41,-70 231.41,-156.041 0,-86.04 -103.809,-156.049 -231.41,-156.049 -124.229,0 -225.91,66.36 -231.189,149.27 -0.15,2.25 -0.221,4.51 -0.221,6.779 0,37.941 20.181,72.761 53.69,99.831 6.92,-1.34 14.6,-2.08 22.67,-2.08 7.981,0 15.58,0.73 22.441,2.04 19.389,3.69 32.969,12.02 33.059,21.69 2.74,7.45 4.7,14.55 6.05,21.25 C -64.89,-4.75 -33.26,0 0,0" /></g><g
           id="g172"
           transform="matrix(0.3758986,0,0,0.3758986,528.99806,466.10416)"><path
             inkscape:connector-curvature="0"
             id="path174"
             style="fill:#332d2b;fill-opacity:1;fill-rule:nonzero;stroke:none"
             d="m 0,0 0.12,-0.29 c -5.29,-2.159 -10.74,-4.189 -16.34,-6.09 -4.009,-1.359 -8,-2.62 -11.94,-3.79 l 0,0.37 -1,0 0,-0.66 c -47.6,-13.899 -88.84,-14.08 -89.29,-14.08 -22.65,0 -43.98,1.641 -63.86,4.87 -7.75,1.26 -15.29,2.771 -22.6,4.521 l 0,1.129 c 11.67,-2.839 24.31,-5.14 37.99,-6.759 l 0,-0.601 1,0 0,0.47 c 14.61,-1.699 30.4,-2.63 47.47,-2.63 0.49,0 49.27,0.21 101.94,18.11 5.05,1.72 10.24,3.63 15.51,5.781 L -1,0 0,0 z" /></g><g
           id="g176"
           transform="matrix(0.3758986,0,0,0.3758986,528.99806,466.39011)"><path
             inkscape:connector-curvature="0"
             id="path178"
             style="fill:#332d2b;fill-opacity:1;fill-rule:nonzero;stroke:none"
             d="m 0,0 0,-0.761 -1,0 0,0.351 c 0.33,0.139 0.67,0.269 1,0.41" /></g><g
           id="g180"
           transform="matrix(0.3758986,0,0,0.3758986,528.99806,470.49086)"><path
             inkscape:connector-curvature="0"
             id="path182"
             style="fill:#332d2b;fill-opacity:1;fill-rule:nonzero;stroke:none"
             d="m 0,0 0,-10.909 c -0.33,-0.141 -0.67,-0.271 -1,-0.41 l 0,10.92 C -0.67,-0.27 -0.33,-0.14 0,0" /></g><g
           id="g184"
           transform="matrix(0.3758986,0,0,0.3758986,528.99806,470.59622)"><path
             inkscape:connector-curvature="0"
             id="path186"
             style="fill:#332d2b;fill-opacity:1;fill-rule:nonzero;stroke:none"
             d="m 0,0 0,-0.28 c -0.33,-0.14 -0.67,-0.27 -1,-0.4 L -1,0 0,0 z" /></g><g
           id="g188"
           transform="matrix(0.3758986,0,0,0.3758986,528.62216,470.34072)"><path
             inkscape:connector-curvature="0"
             id="path190"
             style="fill:#5ba4a8;fill-opacity:1;fill-rule:nonzero;stroke:none"
             d="m 0,0 0,-10.92 c -5.27,-2.15 -10.46,-4.06 -15.51,-5.78 -52.67,-17.901 -101.45,-18.111 -101.94,-18.111 -17.07,0 -32.86,0.931 -47.47,2.63 l 0,13.91 c 15.33,-2.169 31.21,-3.299 47.47,-3.299 42.81,0 82.96,7.86 117.45,21.57" /></g><g
           id="g192"
           transform="matrix(0.3758986,0,0,0.3758986,518.41268,453.69218)"><path
             inkscape:connector-curvature="0"
             id="path194"
             style="fill:#332d2b;fill-opacity:1;fill-rule:nonzero;stroke:none"
             d="m 0,0 c 0.48,-1.33 5.65,-16.69 -3.449,-32.12 -9.651,-16.36 -31.261,-26.941 -64.24,-31.46 -0.22,-0.05 -10.481,-1.9 -24.691,-1.9 -17.42,0 -40.769,2.79 -58.779,15.16 -14.24,9.78 -23.181,24.13 -26.581,42.64 l -0.01,25.789 c 0.331,-0.079 0.67,-0.159 1,-0.239 l 0,-25.46 c 3.34,-18.15 12.141,-32.28 26.15,-41.9 32.361,-22.23 82.25,-13.2 82.75,-13.111 11.201,1.54 21.071,3.771 29.59,6.691 l 0,-0.33 1,0 0,0.69 c 15.811,5.58 26.84,13.59 32.95,23.94 9.23,15.65 3.411,31.18 3.34,31.339 L -1,-0.09 -1,22.56 c 0.33,0.1 0.66,0.19 1,0.29 L 0,0 z" /></g><g
           id="g196"
           transform="matrix(0.3758986,0,0,0.3758986,518.41268,462.42043)"><path
             inkscape:connector-curvature="0"
             id="path198"
             style="fill:#332d2b;fill-opacity:1;fill-rule:nonzero;stroke:none"
             d="m 0,0 0,-0.37 c -0.34,-0.1 -0.67,-0.19 -1,-0.29 L -1,0 0,0 z" /></g><g
           id="g200"
           transform="matrix(0.3758986,0,0,0.3758986,518.04817,453.59046)"><path
             inkscape:connector-curvature="0"
             id="path202"
             style="fill:#2b6491;fill-opacity:1;fill-rule:nonzero;stroke:none"
             d="m 0,0 c 0.07,-0.159 5.89,-15.689 -3.34,-31.34 -6.11,-10.349 -17.139,-18.359 -32.95,-23.939 l 0,34.639 -0.02,0.161 C -40.11,-8.93 -123.47,5.75 -153.67,10.71 l 0.49,2.91 c 19.88,-3.229 41.21,-4.87 63.86,-4.87 0.45,0 41.69,0.181 89.29,14.08 L -0.03,0.181 0,0 z" /></g><g
           id="g204"
           transform="matrix(0.3758986,0,0,0.3758986,504.40677,432.81108)"><path
             inkscape:connector-curvature="0"
             id="path206"
             style="fill:#332d2b;fill-opacity:1;fill-rule:nonzero;stroke:none"
             d="m 0,0 0,-0.69 -1,0 0,0.33 c 0.34,0.12 0.67,0.23 1,0.36" /></g><g
           id="g208"
           transform="matrix(0.3758986,0,0,0.3758986,504.40677,445.83206)"><path
             inkscape:connector-curvature="0"
             id="path210"
             style="fill:#8ab0c8;fill-opacity:1;fill-rule:nonzero;stroke:none"
             d="m 0,0 0,-34.64 c -0.33,-0.13 -0.66,-0.24 -1,-0.36 l 0,34.92 c -3.82,10.59 -84.79,25.64 -127.16,32.13 l 0.15,0.99 c 0.83,-0.12 4.71,-0.72 10.63,-1.69 C -87.18,26.39 -3.82,11.71 -0.02,0.16 L 0,0 z" /></g><g
           id="g212"
           transform="matrix(0.3758986,0,0,0.3758986,504.03087,445.80195)"><path
             inkscape:connector-curvature="0"
             id="path214"
             style="fill:#8ab0c8;fill-opacity:1;fill-rule:nonzero;stroke:none"
             d="m 0,0 0,-34.92 c -8.52,-2.92 -18.39,-5.15 -29.59,-6.69 -0.5,-0.09 -50.389,-9.119 -82.75,13.11 -14.01,9.62 -22.81,23.75 -26.15,41.9 l 0,25.46 c 7.31,-1.75 14.85,-3.26 22.6,-4.52 l -0.49,-2.91 c -5.92,0.97 -9.8,1.57 -10.63,1.69 l -0.15,-0.99 C -84.79,25.64 -3.82,10.59 0,0" /></g><g
           id="g216"
           transform="matrix(0.3758986,0,0,0.3758986,466.62896,458.24404)"><path
             inkscape:connector-curvature="0"
             id="path218"
             style="fill:#332d2b;fill-opacity:1;fill-rule:nonzero;stroke:none"
             d="m 0,0 0,-0.47 -1,0 0,0.601 C -0.67,0.08 -0.34,0.04 0,0" /></g><g
           id="g220"
           transform="matrix(0.3758986,0,0,0.3758986,466.62896,463.47287)"><path
             inkscape:connector-curvature="0"
             id="path222"
             style="fill:#332d2b;fill-opacity:1;fill-rule:nonzero;stroke:none"
             d="m 0,0 0,-13.91 c -0.34,0.04 -0.67,0.08 -1,0.131 l 0,13.92 C -0.66,0.09 -0.33,0.04 0,0" /></g><g
           id="g224"
           transform="matrix(0.3758986,0,0,0.3758986,466.62896,463.68724)"><path
             inkscape:connector-curvature="0"
             id="path226"
             style="fill:#332d2b;fill-opacity:1;fill-rule:nonzero;stroke:none"
             d="m 0,0 0,-0.57 c -0.33,0.04 -0.66,0.09 -1,0.14 L -1,0 0,0 z" /></g><g
           id="g228"
           transform="matrix(0.3758986,0,0,0.3758986,466.25306,463.52572)"><path
             inkscape:connector-curvature="0"
             id="path230"
             style="fill:#88c3c3;fill-opacity:1;fill-rule:nonzero;stroke:none"
             d="m 0,0 0,-13.92 c -13.68,1.619 -26.32,3.92 -37.99,6.76 l 0,0.109 -0.45,0 c -54.52,13.311 -87.88,38.191 -107.74,60.16 -31.17,34.491 -36.72,69.441 -36.76,69.71 l 0,16.17 C -173.5,70.18 -98.1,14.109 0,0" /></g><g
           id="g232"
           transform="matrix(0.3758986,0,0,0.3758986,451.97279,460.83425)"><path
             inkscape:connector-curvature="0"
             id="path234"
             style="fill:#332d2b;fill-opacity:1;fill-rule:nonzero;stroke:none"
             d="m 0,0 0,-1.13 c -0.33,0.08 -0.67,0.16 -1,0.239 l 0,1 0.55,0 C -0.3,0.07 -0.15,0.03 0,0" /></g><g
           id="g236"
           transform="matrix(0.3758986,0,0,0.3758986,451.97279,460.87533)"><path
             inkscape:connector-curvature="0"
             id="path238"
             style="fill:#332d2b;fill-opacity:1;fill-rule:nonzero;stroke:none"
             d="M 0,0 0,-0.109 C -0.15,-0.079 -0.3,-0.039 -0.45,0 L 0,0 z" /></g><g
           id="g240"
           transform="matrix(0.3758986,0,0,0.3758986,451.80356,460.87533)"><path
             inkscape:connector-curvature="0"
             id="path242"
             style="fill:#332d2b;fill-opacity:1;fill-rule:nonzero;stroke:none"
             d="m 0,0 -0.55,0 0,-1 c -13.44,3.271 -26.11,7.37 -37.96,12.29 -28.05,11.641 -51.61,27.87 -70.01,48.25 -31.35,34.71 -36.93,69.91 -36.98,70.261 l 0,24.069 0.22,0 c 0.16,-2.63 0.42,-5.239 0.78,-7.83 l 0,-16.17 c 0.04,-0.269 5.59,-35.22 36.76,-69.71 C -87.88,38.19 -54.52,13.311 0,0" /></g><g
           id="g244"
           transform="matrix(0.3758986,0,0,0.3758986,447.05216,599.71371)"><path
             inkscape:connector-curvature="0"
             id="path246"
             style="fill:#332d2b;fill-opacity:1;fill-rule:nonzero;stroke:none"
             d="M 0,0 C 1.08,-2.04 13.54,-26.92 6.26,-64.86 5.9,-64.97 5.54,-65.08 5.18,-65.19 11.8,-31.44 2.65,-8.06 -0.16,-1.94 -0.05,-1.34 0,-0.73 0,-0.11 L 0,0 z" /></g><g
           id="g248"
           transform="matrix(0.3758986,0,0,0.3758986,448.99936,575.20892)"><path
             inkscape:connector-curvature="0"
             id="path250"
             style="fill:#332d2b;fill-opacity:1;fill-rule:nonzero;stroke:none"
             d="M 0,0 C 0.36,0.11 0.72,0.22 1.08,0.33 1.01,-0.03 0.94,-0.4 0.87,-0.77 0.51,-0.88 0.14,-0.99 -0.22,-1.1 -0.14,-0.73 -0.07,-0.36 0,0" /></g><g
           id="g252"
           transform="matrix(0.3758986,0,0,0.3758986,448.91677,574.79539)"><path
             inkscape:connector-curvature="0"
             id="path254"
             style="fill:#9dc2c8;fill-opacity:1;fill-rule:nonzero;stroke:none"
             d="m 0,0 c 0.36,0.11 0.73,0.22 1.09,0.33 -1.35,-6.7 -3.31,-13.8 -6.05,-21.25 l 0,0.1 c 0,0.74 -0.08,1.47 -0.24,2.19 2.3,6.5 3.99,12.72 5.2,18.63" /></g><g
           id="g256"
           transform="matrix(0.3758986,0,0,0.3758986,446.99213,598.9845)"><path
             inkscape:connector-curvature="0"
             id="path258"
             style="fill:#775f3c;fill-opacity:1;fill-rule:nonzero;stroke:none"
             d="m 0,0 c 2.81,-6.12 11.96,-29.5 5.34,-63.25 -4.32,-1.29 -8.56,-2.68 -12.73,-4.15 4.33,12.63 3.97,20.95 2.41,26.2 -2.1,7.08 -6.45,9.38 -6.63,9.47 -9.2,4.98 -26.75,8.63 -34.42,10.06 C -21.21,-19.86 -1.95,-10.95 0,0" /></g><g
           id="g260"
           transform="matrix(0.3758986,0,0,0.3758986,448.99936,575.20892)"><path
             inkscape:connector-curvature="0"
             id="path262"
             style="fill:#332d2b;fill-opacity:1;fill-rule:nonzero;stroke:none"
             d="m 0,0 c -0.07,-0.36 -0.14,-0.73 -0.22,-1.1 -4.38,-1.33 -8.69,-2.74 -12.92,-4.25 0.15,0.41 0.29,0.81 0.41,1.2 C -8.56,-2.68 -4.32,-1.29 0,0" /></g><g
           id="g264"
           transform="matrix(0.3758986,0,0,0.3758986,448.91677,574.79539)"><path
             inkscape:connector-curvature="0"
             id="path266"
             style="fill:#9dc2c8;fill-opacity:1;fill-rule:nonzero;stroke:none"
             d="m 0,0 c -1.21,-5.91 -2.9,-12.13 -5.2,-18.63 -0.85,4.03 -4.05,7.77 -9.01,10.97 0.47,1.17 0.9,2.31 1.29,3.41 C -8.69,-2.74 -4.38,-1.33 0,0" /></g><g
           id="g268"
           transform="matrix(0.3758986,0,0,0.3758986,447.05216,599.71371)"><path
             inkscape:connector-curvature="0"
             id="path270"
             style="fill:#332d2b;fill-opacity:1;fill-rule:nonzero;stroke:none"
             d="m 0,0 0,-0.11 c 0,-0.62 -0.05,-1.23 -0.16,-1.83 -0.46,1.01 -0.76,1.55 -0.78,1.59 l 0.87,0.48 C -0.06,0.12 -0.04,0.08 0,0.01 L 0,0 z" /></g><g
           id="g272"
           transform="matrix(0.3758986,0,0,0.3758986,447.05216,566.96907)"><path
             inkscape:connector-curvature="0"
             id="path274"
             style="fill:#9dc2c8;fill-opacity:1;fill-rule:nonzero;stroke:none"
             d="m 0,0 0,-0.1 c -0.01,-0.02 -0.02,-0.05 -0.03,-0.07 l -0.94,0.34 c 0.25,0.68 0.49,1.35 0.73,2.02 C -0.08,1.47 0,0.74 0,0" /></g><g
           id="g276"
           transform="matrix(0.3758986,0,0,0.3758986,447.04096,566.90517)"><path
             inkscape:connector-curvature="0"
             id="path278"
             style="fill:#9dc2c8;fill-opacity:1;fill-rule:nonzero;stroke:none"
             d="m 0,0 c 0.01,0.02 0.02,0.05 0.03,0.07 -0.09,-9.67 -13.67,-18 -33.06,-21.69 l -0.01,0.07 c 0.37,0.38 0.72,0.75 1.08,1.12 18.31,3.69 30.99,11.53 30.99,20.6 0,0.06 0,0.11 -0.01,0.17 l 0.04,0 L 0,0 z" /></g><g
           id="g280"
           transform="matrix(0.3758986,0,0,0.3758986,447.05216,599.71739)"><path
             inkscape:connector-curvature="0"
             id="path282"
             style="fill:#332d2b;fill-opacity:1;fill-rule:nonzero;stroke:none"
             d="m 0,0 c -0.04,0.07 -0.06,0.11 -0.07,0.12 l -0.87,-0.48 -0.07,0 C -1,-0.28 -1,-0.2 -1,-0.12 c 0,12.59 -24.45,22.83 -54.5,22.83 -30.05,0 -54.5,-10.24 -54.5,-22.83 0,-12.59 24.45,-22.83 54.5,-22.83 1.88,0 3.73,0.04 5.56,0.12 l 0.01,-0.13 -0.13,-0.88 c -1.79,-0.07 -3.61,-0.11 -5.44,-0.11 -30.61,0 -55.5,10.69 -55.5,23.83 0,0.7 0.07,1.39 0.21,2.07 0.44,1.08 0.72,1.66 0.74,1.71 l -0.21,0.1 c 4.33,11.3 27.23,19.95 54.76,19.95 C -24.99,23.71 -0.15,13.09 0,0" /></g><g
           id="g284"
           transform="matrix(0.3758986,0,0,0.3758986,446.96202,567.79244)"><path
             inkscape:connector-curvature="0"
             id="path286"
             style="fill:#9dc2c8;fill-opacity:1;fill-rule:nonzero;stroke:none"
             d="m 0,0 c -0.24,-0.67 -0.48,-1.34 -0.73,-2.02 l -0.04,0 c -0.07,4.46 -3.21,8.62 -8.59,12.13 0.12,0.29 0.24,0.58 0.35,0.86 C -4.05,7.77 -0.85,4.03 0,0" /></g><g
           id="g288"
           transform="matrix(0.3758986,0,0,0.3758986,446.69882,599.58211)"><path
             inkscape:connector-curvature="0"
             id="path290"
             style="fill:#332d2b;fill-opacity:1;fill-rule:nonzero;stroke:none"
             d="m 0,0 c 0.02,-0.04 0.32,-0.58 0.78,-1.59 -1.95,-10.95 -21.21,-19.86 -46.03,-21.67 -2.28,0.42 -3.68,0.65 -3.74,0.66 L -49,-22.47 C -21.74,-21.31 -0.35,-11.69 -0.07,0 L 0,0 z" /></g><g
           id="g292"
           transform="matrix(0.3758986,0,0,0.3758986,444.98472,599.9918)"><path
             inkscape:connector-curvature="0"
             id="path294"
             style="fill:#fbf5ea;fill-opacity:1;fill-rule:nonzero;stroke:none"
             d="m 0,0 c 0,11.86 -22.43,21.5 -50,21.5 -27.57,0 -50,-9.64 -50,-21.5 0,-11.85 22.43,-21.5 50,-21.5 27.57,0 50,9.65 50,21.5 m 4.5,-0.85 c 0,-0.08 0,-0.16 -0.01,-0.24 -0.28,-11.69 -21.67,-21.31 -48.93,-22.47 -1.83,-0.08 -3.68,-0.12 -5.56,-0.12 -30.05,0 -54.5,10.24 -54.5,22.83 0,12.59 24.45,22.83 54.5,22.83 30.05,0 54.5,-10.24 54.5,-22.83" /></g><g
           id="g296"
           transform="matrix(0.3758986,0,0,0.3758986,446.67258,567.03312)"><path
             inkscape:connector-curvature="0"
             id="path298"
             style="fill:#9dc2c8;fill-opacity:1;fill-rule:nonzero;stroke:none"
             d="m 0,0 c 0.01,-0.06 0.01,-0.11 0.01,-0.17 0,-9.07 -12.68,-16.91 -30.99,-20.6 12.47,13.05 13.88,15.76 13.92,15.85 3.63,6.32 6.4,11.99 8.47,17.05 C -3.21,8.62 -0.07,4.46 0,0" /></g><g
           id="g300"
           transform="matrix(0.3758986,0,0,0.3758986,445.12016,583.49741)"><path
             inkscape:connector-curvature="0"
             id="path302"
             style="fill:#332d2b;fill-opacity:1;fill-rule:nonzero;stroke:none"
             d="m 0,0 c 1.56,-5.25 1.92,-13.57 -2.41,-26.2 -0.4,-0.14 -0.79,-0.28 -1.18,-0.42 4.49,12.76 4.18,21.08 2.65,26.28 -1.96,6.69 -6.11,8.9 -6.15,8.92 -11.8,6.39 -37.59,10.58 -37.85,10.62 l 0.02,0.11 c 1.3,0.06 2.6,0.13 3.87,0.22 C -33.38,18.1 -15.83,14.45 -6.63,9.47 -6.45,9.38 -2.1,7.08 0,0" /></g><g
           id="g304"
           transform="matrix(0.3758986,0,0,0.3758986,444.76685,583.36964)"><path
             inkscape:connector-curvature="0"
             id="path306"
             style="fill:#d3ac69;fill-opacity:1;fill-rule:nonzero;stroke:none"
             d="m 0,0 c 1.53,-5.2 1.84,-13.52 -2.65,-26.28 -1.61,-0.58 -3.22,-1.16 -4.81,-1.77 -10.19,5.05 -25.22,8.25 -41.96,8.25 -28.92,0 -52.73,-9.54 -55.27,-21.68 -15.69,43.44 -3.31,78.88 -0.02,86.92 -0.14,-0.68 -0.21,-1.37 -0.21,-2.07 0,-13.14 24.89,-23.83 55.5,-23.83 1.83,0 3.65,0.04 5.44,0.11 L -44,19.54 C -43.74,19.5 -17.95,15.31 -6.15,8.92 -6.11,8.9 -1.96,6.69 0,0" /></g><g
           id="g308"
           transform="matrix(0.3758986,0,0,0.3758986,444.2142,573.64879)"><path
             inkscape:connector-curvature="0"
             id="path310"
             style="fill:#332d2b;fill-opacity:1;fill-rule:nonzero;stroke:none"
             d="m 0,0 c -0.12,-0.39 -0.26,-0.79 -0.41,-1.2 -0.41,-0.14 -0.81,-0.29 -1.21,-0.43 0.15,0.41 0.3,0.81 0.44,1.21 C -0.79,-0.28 -0.4,-0.14 0,0" /></g><g
           id="g312"
           transform="matrix(0.3758986,0,0,0.3758986,443.60517,573.03611)"><path
             inkscape:connector-curvature="0"
             id="path314"
             style="fill:#9dc2c8;fill-opacity:1;fill-rule:nonzero;stroke:none"
             d="M 0,0 C 0.4,0.14 0.8,0.29 1.21,0.43 0.82,-0.67 0.39,-1.81 -0.08,-2.98 -0.36,-2.8 -0.65,-2.62 -0.94,-2.44 -0.6,-1.61 -0.29,-0.8 0,0" /></g><g
           id="g316"
           transform="matrix(0.3758986,0,0,0.3758986,443.77057,573.49095)"><path
             inkscape:connector-curvature="0"
             id="path318"
             style="fill:#332d2b;fill-opacity:1;fill-rule:nonzero;stroke:none"
             d="m 0,0 c -0.14,-0.4 -0.29,-0.8 -0.44,-1.21 -1.07,-0.39 -2.13,-0.77 -3.18,-1.17 -0.39,0.21 -0.79,0.41 -1.19,0.61 1.59,0.61 3.2,1.19 4.81,1.77" /></g><g
           id="g320"
           transform="matrix(0.3758986,0,0,0.3758986,443.5751,571.91593)"><path
             inkscape:connector-curvature="0"
             id="path322"
             style="fill:#9dc2c8;fill-opacity:1;fill-rule:nonzero;stroke:none"
             d="m 0,0 c -0.11,-0.28 -0.23,-0.57 -0.35,-0.86 -0.27,0.18 -0.56,0.36 -0.85,0.54 0.12,0.29 0.23,0.57 0.34,0.86 C -0.57,0.36 -0.28,0.18 0,0" /></g><g
           id="g324"
           transform="matrix(0.3758986,0,0,0.3758986,443.60517,573.03611)"><path
             inkscape:connector-curvature="0"
             id="path326"
             style="fill:#9dc2c8;fill-opacity:1;fill-rule:nonzero;stroke:none"
             d="m 0,0 c -0.29,-0.8 -0.6,-1.61 -0.94,-2.44 -0.72,0.43 -1.46,0.86 -2.24,1.27 1.05,0.4 2.11,0.78 3.18,1.17" /></g><g
           id="g328"
           transform="matrix(0.3758986,0,0,0.3758986,443.12414,571.79572)"><path
             inkscape:connector-curvature="0"
             id="path330"
             style="fill:#9dc2c8;fill-opacity:1;fill-rule:nonzero;stroke:none"
             d="m 0,0 c 0.29,-0.18 0.58,-0.36 0.85,-0.54 -2.07,-5.06 -4.84,-10.73 -8.47,-17.05 -0.04,-0.09 -1.45,-2.8 -13.92,-15.85 -0.56,-0.11 -1.12,-0.22 -1.69,-0.32 13.11,13.67 14.67,16.53 14.73,16.65 3.66,6.36 6.43,12.05 8.5,17.11" /></g><g
           id="g332"
           transform="matrix(0.3758986,0,0,0.3758986,443.25187,572.11896)"><path
             inkscape:connector-curvature="0"
             id="path334"
             style="fill:#9dc2c8;fill-opacity:1;fill-rule:nonzero;stroke:none"
             d="m 0,0 c -0.11,-0.29 -0.22,-0.57 -0.34,-0.86 -0.95,0.58 -1.97,1.15 -3.05,1.7 0.38,0.14 0.76,0.29 1.15,0.43 C -1.46,0.86 -0.72,0.43 0,0" /></g><g
           id="g336"
           transform="matrix(0.3758986,0,0,0.3758986,441.96265,572.82557)"><path
             inkscape:connector-curvature="0"
             id="path338"
             style="fill:#332d2b;fill-opacity:1;fill-rule:nonzero;stroke:none"
             d="M 0,0 C 0.4,-0.2 0.8,-0.4 1.19,-0.61 0.8,-0.75 0.42,-0.9 0.04,-1.04 c -0.39,0.2 -0.8,0.39 -1.21,0.59 0.39,0.16 0.78,0.31 1.17,0.45" /></g><g
           id="g340"
           transform="matrix(0.3758986,0,0,0.3758986,441.97753,572.43464)"><path
             inkscape:connector-curvature="0"
             id="path342"
             style="fill:#9dc2c8;fill-opacity:1;fill-rule:nonzero;stroke:none"
             d="m 0,0 c 1.08,-0.55 2.1,-1.12 3.05,-1.7 -2.07,-5.06 -4.84,-10.75 -8.5,-17.11 -0.06,-0.12 -1.62,-2.98 -14.73,-16.65 -6.69,-1.23 -14.07,-1.91 -21.82,-1.91 -7.69,0 -15.02,0.67 -21.66,1.89 C -45.81,-21.25 -24.25,-9.19 0,0" /></g><g
           id="g344"
           transform="matrix(0.3758986,0,0,0.3758986,441.96265,572.82557)"><path
             inkscape:connector-curvature="0"
             id="path346"
             style="fill:#d3ac69;fill-opacity:1;fill-rule:nonzero;stroke:none"
             d="m 0,0 c -0.39,-0.14 -0.78,-0.29 -1.17,-0.45 -9.99,4.72 -24.57,7.7 -40.79,7.7 -29.91,0 -54.27,-10.14 -54.49,-22.65 l -0.05,0 c -0.25,0.66 -0.49,1.32 -0.73,1.97 2.54,12.14 26.35,21.68 55.27,21.68 C -25.22,8.25 -10.19,5.05 0,0" /></g><g
           id="g348"
           transform="matrix(0.3758986,0,0,0.3758986,441.52269,572.65653)"><path
             inkscape:connector-curvature="0"
             id="path350"
             style="fill:#332d2b;fill-opacity:1;fill-rule:nonzero;stroke:none"
             d="m 0,0 c 0.41,-0.2 0.82,-0.39 1.21,-0.59 -24.25,-9.19 -45.81,-21.25 -63.66,-35.48 -0.43,0.07 -0.85,0.15 -1.28,0.23 C -45.88,-21.48 -24.29,-9.3 0,0" /></g><g
           id="g352"
           transform="matrix(0.3758986,0,0,0.3758986,426.18979,575.55083)"><path
             inkscape:connector-curvature="0"
             id="path354"
             style="fill:#d3ac69;fill-opacity:1;fill-rule:nonzero;stroke:none"
             d="M 0,0 C 16.22,0 30.8,-2.98 40.79,-7.7 16.5,-17 -5.09,-29.18 -22.94,-43.54 c -18.62,3.64 -31.56,11.55 -31.56,20.71 0,0.06 0,0.12 0.01,0.18 C -54.27,-10.14 -29.91,0 0,0" /></g><g
           id="g356"
           transform="matrix(0.3758986,0,0,0.3758986,444.60882,599.9918)"><path
             inkscape:connector-curvature="0"
             id="path358"
             style="fill:#fbf5ea;fill-opacity:1;fill-rule:nonzero;stroke:none"
             d="m 0,0 c 0,11.31 -21.98,20.5 -49,20.5 -27.02,0 -49,-9.19 -49,-20.5 0,-11.3 21.98,-20.5 49,-20.5 27.02,0 49,9.2 49,20.5 m -49,21.5 c 27.57,0 50,-9.64 50,-21.5 0,-11.85 -22.43,-21.5 -50,-21.5 -27.57,0 -50,9.65 -50,21.5 0,11.86 22.43,21.5 50,21.5" /></g><g
           id="g360"
           transform="matrix(0.3758986,0,0,0.3758986,426.18979,607.69772)"><path
             inkscape:connector-curvature="0"
             id="path362"
             style="fill:#f5dfac;fill-opacity:1;fill-rule:nonzero;stroke:none"
             d="M 0,0 C 27.02,0 49,-9.19 49,-20.5 49,-31.8 27.02,-41 0,-41 c -27.02,0 -49,9.2 -49,20.5 C -49,-9.19 -27.02,0 0,0" /></g><g
           id="g364"
           transform="matrix(0.3758986,0,0,0.3758986,435.02724,559.22571)"><path
             inkscape:connector-curvature="0"
             id="path366"
             style="fill:#9dc2c8;fill-opacity:1;fill-rule:nonzero;stroke:none"
             d="m 0,0 c -0.36,-0.37 -0.71,-0.74 -1.08,-1.12 l -0.72,0.69 c 0.04,0.04 0.07,0.07 0.11,0.11 0.57,0.1 1.13,0.21 1.69,0.32" /></g><g
           id="g368"
           transform="matrix(0.3758986,0,0,0.3758986,434.62123,558.80463)"><path
             inkscape:connector-curvature="0"
             id="path370"
             style="fill:#9dc2c8;fill-opacity:1;fill-rule:nonzero;stroke:none"
             d="m 0,0 0.01,-0.07 c -6.86,-1.31 -14.46,-2.04 -22.44,-2.04 -8.07,0 -15.75,0.74 -22.67,2.08 0.34,0.27 0.67,0.54 1.01,0.81 6.64,-1.22 13.97,-1.89 21.66,-1.89 7.75,0 15.13,0.68 21.82,1.91 C -0.65,0.76 -0.68,0.73 -0.72,0.69 L 0,0 z" /></g><g
           id="g372"
           transform="matrix(0.3758986,0,0,0.3758986,429.68941,590.83863)"><path
             inkscape:connector-curvature="0"
             id="path374"
             style="fill:#332d2b;fill-opacity:1;fill-rule:nonzero;stroke:none"
             d="m 0,0 c -1.27,-0.09 -2.57,-0.16 -3.87,-0.22 l 0.13,0.88 C -3.68,0.65 -2.28,0.42 0,0" /></g><g
           id="g436"
           transform="matrix(0.3758986,0,0,0.3758986,418.04794,559.09775)"><path
             inkscape:connector-curvature="0"
             id="path438"
             style="fill:#332d2b;fill-opacity:1;fill-rule:nonzero;stroke:none"
             d="m 0,0 c -0.34,-0.27 -0.67,-0.54 -1.01,-0.81 -0.42,0.08 -0.84,0.16 -1.25,0.25 0.32,0.26 0.65,0.53 0.98,0.79 C -0.85,0.15 -0.43,0.07 0,0" /></g><g
           id="g440"
           transform="matrix(0.3758986,0,0,0.3758986,417.1983,558.88725)"><path
             inkscape:connector-curvature="0"
             id="path442"
             style="fill:#332d2b;fill-opacity:1;fill-rule:nonzero;stroke:none"
             d="m 0,0 c 0.41,-0.09 0.83,-0.17 1.25,-0.25 -33.51,-27.069 -53.69,-61.89 -53.69,-99.83 0,-2.27 0.07,-4.529 0.22,-6.779 l -0.22,-0.011 -0.78,0 c -0.15,2.25 -0.22,4.511 -0.22,6.79 0,38 20.07,72.891 53.44,100.08" /></g><g
           id="g444"
           transform="matrix(0.3758986,0,0,0.3758986,417.56668,559.18421)"><path
             inkscape:connector-curvature="0"
             id="path446"
             style="fill:#332d2b;fill-opacity:1;fill-rule:nonzero;stroke:none"
             d="m 0,0 c -0.33,-0.26 -0.66,-0.53 -0.98,-0.79 -18.59,3.83 -31.48,11.97 -31.58,21.39 0.01,-0.02 0.02,-0.05 0.03,-0.07 l 0.93,0.36 0.05,0 c -0.01,-0.06 -0.01,-0.12 -0.01,-0.18 C -31.56,11.55 -18.62,3.64 0,0" /></g><g
           id="g468"
           transform="matrix(0.3758986,0,0,0.3758986,405.68843,567.03677)"><path
             inkscape:connector-curvature="0"
             id="path470"
             style="fill:#332d2b;fill-opacity:1;fill-rule:nonzero;stroke:none"
             d="m 0,0 -0.93,-0.36 c -0.01,0.02 -0.02,0.05 -0.03,0.07 l 0,0.11 c 0,0.73 0.08,1.44 0.23,2.15 C -0.49,1.32 -0.25,0.66 0,0" /></g><g
           id="g472"
           transform="matrix(0.3758986,0,0,0.3758986,405.60566,601.13085)"><path
             inkscape:connector-curvature="0"
             id="path474"
             style="fill:#332d2b;fill-opacity:1;fill-rule:nonzero;stroke:none"
             d="M 0,0 0.21,-0.1 C 0.19,-0.15 -0.09,-0.73 -0.53,-1.81 -0.41,-1.2 -0.23,-0.59 0,0" /></g><g
           id="g476"
           transform="matrix(0.3758986,0,0,0.3758986,405.34633,601.25862)"><path
             inkscape:connector-curvature="0"
             id="path478"
             style="fill:#332d2b;fill-opacity:1;fill-rule:nonzero;stroke:none"
             d="m 0,0 0.69,-0.34 c -0.23,-0.59 -0.41,-1.2 -0.53,-1.81 -3.29,-8.04 -15.67,-43.48 0.02,-86.92 -0.15,-0.71 -0.23,-1.42 -0.23,-2.15 l 0,-0.11 C -19.19,-40.74 -0.2,-0.4 0,0" /></g><g
           id="g484"
           transform="matrix(0.3758986,0,0,0.3758986,397.48621,518.71489)"><path
             inkscape:connector-curvature="0"
             id="path486"
             style="fill:#332d2b;fill-opacity:1;fill-rule:nonzero;stroke:none"
             d="M 0,0 0,-7.83 C -0.36,-5.239 -0.62,-2.63 -0.78,0 L 0,0 z" /></g></g><g
         id="g8187"><g
           id="g376"
           transform="matrix(0.3758986,0,0,0.3758986,423.14516,454.96632)"><path
             inkscape:connector-curvature="0"
             id="path378"
             style="fill:#232323;fill-opacity:1;fill-rule:nonzero;stroke:none"
             d="m 0,0 c 1.1,-2.08 18.65,-36.68 0,-87.24 l 0,0.1 c 0,0.741 -0.08,1.47 -0.24,2.19 15.65,44.29 3.4,75.79 0.08,83 0.11,0.6 0.16,1.2 0.16,1.81 L 0,0 z" /></g><g
           id="g380"
           transform="matrix(0.3758986,0,0,0.3758986,423.08494,454.23324)"><path
             inkscape:connector-curvature="0"
             id="path382"
             style="fill:#775f3c;fill-opacity:1;fill-rule:nonzero;stroke:none"
             d="m 0,0 c 3.32,-7.21 15.57,-38.71 -0.08,-83 -0.85,4.03 -4.05,7.771 -9,10.971 6.1,15.25 5.85,24.949 4.11,30.809 -2.1,7.08 -6.45,9.38 -6.63,9.47 -9.21,4.98 -26.76,8.631 -34.43,10.061 C -21.19,-19.88 -1.93,-10.96 0,0" /></g><g
           id="g384"
           transform="matrix(0.3758986,0,0,0.3758986,423.14516,454.96632)"><path
             inkscape:connector-curvature="0"
             id="path386"
             style="fill:#232323;fill-opacity:1;fill-rule:nonzero;stroke:none"
             d="m 0,0 0,-0.14 c 0,-0.61 -0.05,-1.21 -0.16,-1.81 -0.46,1 -0.75,1.53 -0.77,1.57 l 0.87,0.481 C -0.05,0.09 -0.04,0.061 0,0" /></g><g
           id="g388"
           transform="matrix(0.3758986,0,0,0.3758986,423.14516,422.21067)"><path
             inkscape:connector-curvature="0"
             id="path390"
             style="fill:#232323;fill-opacity:1;fill-rule:nonzero;stroke:none"
             d="M 0,0 0,-0.101 C -0.01,-0.12 -0.02,-0.15 -0.03,-0.17 l -0.94,0.34 c 0.25,0.68 0.49,1.35 0.73,2.019 C -0.08,1.47 0,0.74 0,0" /></g><g
           id="g392"
           transform="matrix(0.3758986,0,0,0.3758986,423.13377,422.14677)"><path
             inkscape:connector-curvature="0"
             id="path394"
             style="fill:#232323;fill-opacity:1;fill-rule:nonzero;stroke:none"
             d="m 0,0 c 0.01,0.02 0.02,0.05 0.03,0.069 -0.09,-9.67 -13.66,-18 -33.05,-21.689 l -0.01,0.07 c 0.37,0.38 0.72,0.75 1.08,1.119 18.31,3.691 30.98,11.54 30.98,20.601 0,0.059 0,0.109 -0.01,0.17 l 0.04,0 L 0,0 z" /></g><g
           id="g396"
           transform="matrix(0.3758986,0,0,0.3758986,423.14516,454.96632)"><path
             inkscape:connector-curvature="0"
             id="path398"
             style="fill:#232323;fill-opacity:1;fill-rule:nonzero;stroke:none"
             d="m 0,0 c -0.04,0.061 -0.05,0.09 -0.06,0.101 l -0.87,-0.481 -0.08,0 C -1,-0.3 -1,-0.22 -1,-0.14 -1,12.45 -25.44,22.7 -55.5,22.7 -85.55,22.7 -110,12.45 -110,-0.14 c 0,-12.589 24.45,-22.83 54.5,-22.83 1.88,0 3.74,0.04 5.57,0.12 l 0.01,-0.129 -0.14,-0.88 c -1.79,-0.071 -3.61,-0.111 -5.44,-0.111 -30.6,0 -55.5,10.69 -55.5,23.83 0,0.69 0.07,1.38 0.21,2.05 0.44,1.09 0.72,1.68 0.74,1.731 l -0.21,0.099 C -105.93,15.05 -83.02,23.7 -55.5,23.7 -25,23.7 -0.18,13.08 0,0" /></g><g
           id="g400"
           transform="matrix(0.3758986,0,0,0.3758986,423.05483,423.03366)"><path
             inkscape:connector-curvature="0"
             id="path402"
             style="fill:#775f3c;fill-opacity:1;fill-rule:nonzero;stroke:none"
             d="m 0,0 c -0.24,-0.67 -0.48,-1.34 -0.73,-2.02 l -0.04,0 c -0.07,4.46 -3.21,8.621 -8.58,12.121 0.12,0.29 0.23,0.58 0.35,0.87 C -4.05,7.771 -0.85,4.03 0,0" /></g><g
           id="g404"
           transform="matrix(0.3758986,0,0,0.3758986,422.7955,454.82352)"><path
             inkscape:connector-curvature="0"
             id="path406"
             style="fill:#232323;fill-opacity:1;fill-rule:nonzero;stroke:none"
             d="m 0,0 c 0.02,-0.04 0.31,-0.57 0.77,-1.57 -1.93,-10.96 -21.19,-19.88 -46.03,-21.69 -2.27,0.42 -3.67,0.65 -3.73,0.66 L -49,-22.47 C -21.74,-21.31 -0.36,-11.689 -0.08,0 L 0,0 z" /></g><g
           id="g408"
           transform="matrix(0.3758986,0,0,0.3758986,421.07772,455.23321)"><path
             inkscape:connector-curvature="0"
             id="path410"
             style="fill:#fbf5ea;fill-opacity:1;fill-rule:nonzero;stroke:none"
             d="m 0,0 c 0,11.86 -22.43,21.5 -50,21.5 -27.57,0 -50,-9.64 -50,-21.5 0,-11.85 22.43,-21.5 50,-21.5 27.57,0 50,9.65 50,21.5 m 4.5,-0.85 c 0,-0.08 0,-0.16 -0.01,-0.24 -0.28,-11.689 -21.66,-21.309 -48.92,-22.47 -1.83,-0.08 -3.69,-0.12 -5.57,-0.12 -30.05,0 -54.5,10.241 -54.5,22.83 0,12.59 24.45,22.84 54.5,22.84 30.06,0 54.5,-10.25 54.5,-22.84" /></g><g
           id="g412"
           transform="matrix(0.3758986,0,0,0.3758986,422.76539,422.27453)"><path
             inkscape:connector-curvature="0"
             id="path414"
             style="fill:#775f3c;fill-opacity:1;fill-rule:nonzero;stroke:none"
             d="m 0,0 c 0.01,-0.061 0.01,-0.11 0.01,-0.17 0,-9.06 -12.67,-16.91 -30.98,-20.601 12.46,13.051 13.87,15.761 13.92,15.851 3.63,6.32 6.39,11.98 8.47,17.04 C -3.21,8.62 -0.07,4.46 0,0" /></g><g
           id="g416"
           transform="matrix(0.3758986,0,0,0.3758986,421.21665,438.73882)"><path
             inkscape:connector-curvature="0"
             id="path418"
             style="fill:#d3ac69;fill-opacity:1;fill-rule:nonzero;stroke:none"
             d="m 0,0 c 1.74,-5.86 1.99,-15.56 -4.11,-30.81 -0.28,0.18 -0.56,0.36 -0.86,0.54 5.93,14.88 5.69,24.31 4.01,29.99 -1.98,6.67 -6.09,8.841 -6.13,8.86 -11.8,6.4 -37.6,10.58 -37.86,10.62 l 0.02,0.111 c 1.3,0.059 2.6,0.129 3.87,0.219 7.67,-1.429 25.22,-5.08 34.43,-10.06 C -6.45,9.38 -2.1,7.08 0,0" /></g><g
           id="g420"
           transform="matrix(0.3758986,0,0,0.3758986,420.85579,438.63345)"><path
             inkscape:connector-curvature="0"
             id="path422"
             style="fill:#d3ac69;fill-opacity:1;fill-rule:nonzero;stroke:none"
             d="m 0,0 c 1.68,-5.68 1.92,-15.109 -4.01,-29.989 -10.05,6.13 -26.65,10.139 -45.4,10.139 -28.9,0 -52.72,-9.549 -55.27,-21.679 -15.68,43.41 -3.32,78.819 -0.02,86.889 -0.14,-0.67 -0.21,-1.36 -0.21,-2.049 0,-13.141 24.9,-23.831 55.5,-23.831 1.83,0 3.65,0.041 5.44,0.111 L -43.99,19.48 C -43.73,19.44 -17.93,15.261 -6.13,8.86 -6.09,8.841 -1.98,6.67 0,0" /></g><g
           id="g424"
           transform="matrix(0.3758986,0,0,0.3758986,419.67175,427.15753)"><path
             inkscape:connector-curvature="0"
             id="path426"
             style="fill:#232323;fill-opacity:1;fill-rule:nonzero;stroke:none"
             d="m 0,0 c -0.12,-0.29 -0.23,-0.58 -0.35,-0.87 -0.28,0.18 -0.56,0.37 -0.86,0.55 0.13,0.29 0.24,0.58 0.35,0.86 C -0.56,0.359 -0.28,0.18 0,0" /></g><g
           id="g428"
           transform="matrix(0.3758986,0,0,0.3758986,419.21695,427.03713)"><path
             inkscape:connector-curvature="0"
             id="path430"
             style="fill:#d3ac69;fill-opacity:1;fill-rule:nonzero;stroke:none"
             d="m 0,0 c 0.3,-0.18 0.58,-0.37 0.86,-0.55 -2.08,-5.06 -4.84,-10.72 -8.47,-17.04 -0.05,-0.09 -1.46,-2.8 -13.92,-15.85 -0.56,-0.11 -1.13,-0.22 -1.7,-0.32 13.11,13.67 14.68,16.53 14.74,16.65 C -4.83,-10.75 -2.06,-5.06 0,0" /></g><g
           id="g432"
           transform="matrix(0.3758986,0,0,0.3758986,419.34855,427.36055)"><path
             inkscape:connector-curvature="0"
             id="path434"
             style="fill:#d3ac69;fill-opacity:1;fill-rule:nonzero;stroke:none"
             d="m 0,0 c -0.11,-0.28 -0.22,-0.57 -0.35,-0.86 -9.81,6.03 -26.34,10 -45.05,10 -29.91,0 -54.27,-10.151 -54.49,-22.661 l -0.04,0 c -0.25,0.661 -0.5,1.321 -0.74,1.981 2.55,12.13 26.37,21.68 55.27,21.68 C -26.65,10.14 -10.05,6.13 0,0" /></g><g
           id="g448"
           transform="matrix(0.3758986,0,0,0.3758986,402.28279,430.79612)"><path
             inkscape:connector-curvature="0"
             id="path450"
             style="fill:#d3ac69;fill-opacity:1;fill-rule:nonzero;stroke:none"
             d="M 0,0 C 18.71,0 35.24,-3.97 45.05,-10 42.99,-15.06 40.22,-20.75 36.56,-27.11 36.5,-27.23 34.93,-30.09 21.82,-43.76 15.14,-44.99 7.76,-45.67 0,-45.67 c -30.05,0 -54.5,10.24 -54.5,22.83 0,0.06 0,0.12 0.01,0.18 C -54.27,-10.15 -29.91,0 0,0" /></g><g
           id="g452"
           transform="matrix(0.3758986,0,0,0.3758986,420.70182,455.23321)"><path
             inkscape:connector-curvature="0"
             id="path454"
             style="fill:#f5dfac;fill-opacity:1;fill-rule:nonzero;stroke:none"
             d="m 0,0 c 0,11.311 -21.98,20.5 -49,20.5 -27.01,0 -49,-9.189 -49,-20.5 0,-11.3 21.99,-20.5 49,-20.5 27.02,0 49,9.2 49,20.5 m -49,21.5 c 27.57,0 50,-9.64 50,-21.5 0,-11.85 -22.43,-21.5 -50,-21.5 -27.57,0 -50,9.65 -50,21.5 0,11.86 22.43,21.5 50,21.5" /></g><g
           id="g456"
           transform="matrix(0.3758986,0,0,0.3758986,402.28279,462.93913)"><path
             inkscape:connector-curvature="0"
             id="path458"
             style="fill:#f5dfac;fill-opacity:1;fill-rule:nonzero;stroke:none"
             d="M 0,0 C 27.02,0 49,-9.189 49,-20.5 49,-31.8 27.02,-41 0,-41 c -27.01,0 -49,9.2 -49,20.5 C -49,-9.189 -27.01,0 0,0" /></g><g
           id="g460"
           transform="matrix(0.3758986,0,0,0.3758986,411.12393,414.46693)"><path
             inkscape:connector-curvature="0"
             id="path462"
             style="fill:#232323;fill-opacity:1;fill-rule:nonzero;stroke:none"
             d="m 0,0 c -0.36,-0.369 -0.71,-0.739 -1.08,-1.119 l -0.73,0.689 c 0.04,0.04 0.07,0.071 0.11,0.111 0.57,0.099 1.14,0.21 1.7,0.319" /></g><g
           id="g464"
           transform="matrix(0.3758986,0,0,0.3758986,410.71792,414.04623)"><path
             inkscape:connector-curvature="0"
             id="path466"
             style="fill:#232323;fill-opacity:1;fill-rule:nonzero;stroke:none"
             d="m 0,0 0.01,-0.07 c -6.87,-1.311 -14.46,-2.04 -22.45,-2.04 -30.54,0 -55.4,10.65 -55.5,23.75 0.01,-0.031 0.03,-0.071 0.04,-0.1 l 0.93,0.359 0.04,0 c -0.01,-0.059 -0.01,-0.12 -0.01,-0.179 0,-12.59 24.45,-22.83 54.5,-22.83 7.76,0 15.14,0.679 21.82,1.91 C -0.66,0.76 -0.69,0.729 -0.73,0.689 L 0,0 z" /></g><g
           id="g480"
           transform="matrix(0.3758986,0,0,0.3758986,405.78241,446.08023)"><path
             inkscape:connector-curvature="0"
             id="path482"
             style="fill:#232323;fill-opacity:1;fill-rule:nonzero;stroke:none"
             d="m 0,0 c -1.27,-0.09 -2.57,-0.16 -3.87,-0.22 l 0.14,0.88 C -3.67,0.649 -2.27,0.42 0,0" /></g><g
           id="g502"
           transform="matrix(0.3758986,0,0,0.3758986,381.78493,422.27818)"><path
             inkscape:connector-curvature="0"
             id="path504"
             style="fill:#232323;fill-opacity:1;fill-rule:nonzero;stroke:none"
             d="m 0,0 -0.93,-0.359 c -0.01,0.029 -0.03,0.069 -0.04,0.099 l 0,0.08 c 0,0.73 0.08,1.451 0.23,2.16 C -0.5,1.32 -0.25,0.66 0,0" /></g><g
           id="g506"
           transform="matrix(0.3758986,0,0,0.3758986,381.69847,456.37226)"><path
             inkscape:connector-curvature="0"
             id="path508"
             style="fill:#232323;fill-opacity:1;fill-rule:nonzero;stroke:none"
             d="M 0,0 0.21,-0.1 C 0.19,-0.15 -0.09,-0.74 -0.53,-1.83 -0.41,-1.21 -0.23,-0.6 0,0" /></g><g
           id="g510"
           transform="matrix(0.3758986,0,0,0.3758986,381.43914,456.50003)"><path
             inkscape:connector-curvature="0"
             id="path512"
             style="fill:#232323;fill-opacity:1;fill-rule:nonzero;stroke:none"
             d="M 0,0 0.69,-0.34 C 0.46,-0.939 0.28,-1.55 0.16,-2.17 c -3.3,-8.07 -15.66,-43.479 0.02,-86.89 -0.15,-0.71 -0.23,-1.43 -0.23,-2.16 l 0,-0.08 C -19.17,-40.729 -0.19,-0.399 0,0" /></g></g></g><g
       id="g522"
       transform="matrix(0.31235958,0,0,0.31235958,122.29526,589.28657)"
       inkscape:export-filename="/home/lenik/tasks/22-qt/sweeper/qml/contents/images/room-2.png"
       inkscape:export-xdpi="90"
       inkscape:export-ydpi="90"><path
         inkscape:connector-curvature="0"
         id="path524"
         style="fill:#232323;fill-opacity:1;fill-rule:nonzero;stroke:none"
         d="M 0,0 0,-0.069 C 0,-0.1 -0.01,-0.12 -0.02,-0.149 L -0.5,-0.01 0,0 z" /></g><g
       id="g530"
       transform="matrix(0.31235958,0,0,0.31235958,112.51847,634.7631)"
       inkscape:export-filename="/home/lenik/tasks/22-qt/sweeper/qml/contents/images/room-2.png"
       inkscape:export-xdpi="90"
       inkscape:export-ydpi="90"><path
         inkscape:connector-curvature="0"
         id="path532"
         style="fill:#cec898;fill-opacity:1;fill-rule:nonzero;stroke:none"
         d="m 0,0 -21.08,-26.55 c -0.06,0.07 -0.11,0.13 -0.15,0.18 l 0,1.25 20.14,25.36 0,-0.18 1,0.01 L 0,0 z" /></g><g
       id="g534"
       transform="matrix(0.31235958,0,0,0.31235958,112.48399,635.22233)"
       inkscape:export-filename="/home/lenik/tasks/22-qt/sweeper/qml/contents/images/room-2.png"
       inkscape:export-xdpi="90"
       inkscape:export-ydpi="90"><path
         inkscape:connector-curvature="0"
         id="path536"
         style="fill:#cec898;fill-opacity:1;fill-rule:nonzero;stroke:none"
         d="m 0,0 0.02,-1.4 -1,-0.01 0,0.18 L 0,0 z" /></g><g
       id="g538"
       transform="matrix(0.31235958,0,0,0.31235958,110.89108,734.22158)"
       inkscape:export-filename="/home/lenik/tasks/22-qt/sweeper/qml/contents/images/room-2.png"
       inkscape:export-xdpi="90"
       inkscape:export-ydpi="90"><path
         inkscape:connector-curvature="0"
         id="path540"
         style="fill:#232323;fill-opacity:1;fill-rule:nonzero;stroke:none"
         d="m 0,0 5.1,-316.94 -0.98,-1.23 -5.09,316.19 -208.4,-156.3 0,-428.72 -1,-1.26 0,430.48 0.2,0.15 L 0,0 z" /></g><g
       id="g542"
       transform="matrix(0.31235958,0,0,0.31235958,110.58802,733.6031)"
       inkscape:export-filename="/home/lenik/tasks/22-qt/sweeper/qml/contents/images/room-2.png"
       inkscape:export-xdpi="90"
       inkscape:export-ydpi="90"><path
         inkscape:connector-curvature="0"
         id="path544"
         style="fill:#a85d33;fill-opacity:1;fill-rule:nonzero;stroke:none"
         d="m 0,0 5.09,-316.19 -20.14,-25.36 0,308.63 -33.92,-27.77 -28.01,-22.93 -97.58,-79.9 0,-263.13 0,-115.76 -33.84,-42.611 0,428.721 L 0,0 z" /></g><g
       id="g546"
       transform="matrix(0.31235958,0,0,0.31235958,105.9339,626.47001)"
       inkscape:export-filename="/home/lenik/tasks/22-qt/sweeper/qml/contents/images/room-2.png"
       inkscape:export-xdpi="90"
       inkscape:export-ydpi="90"><path
         inkscape:connector-curvature="0"
         id="path548"
         style="fill:#cec898;fill-opacity:1;fill-rule:nonzero;stroke:none"
         d="m 0,0 -0.15,-0.18 0,0.17 0,0.19 C -0.11,0.13 -0.06,0.07 0,0" /></g><g
       id="g550"
       transform="matrix(0.31235958,0,0,0.31235958,105.88707,626.41054)"
       inkscape:export-filename="/home/lenik/tasks/22-qt/sweeper/qml/contents/images/room-2.png"
       inkscape:export-xdpi="90"
       inkscape:export-ydpi="90"><path
         inkscape:connector-curvature="0"
         id="path552"
         style="fill:#cec898;fill-opacity:1;fill-rule:nonzero;stroke:none"
         d="m 0,0 0,-0.51 -0.01,0 C 0,-0.29 0,-0.12 0,0" /></g><g
       id="g554"
       transform="matrix(0.31235958,0,0,0.31235958,105.88707,626.46683)"
       inkscape:export-filename="/home/lenik/tasks/22-qt/sweeper/qml/contents/images/room-2.png"
       inkscape:export-xdpi="90"
       inkscape:export-ydpi="90"><path
         inkscape:connector-curvature="0"
         id="path556"
         style="fill:#cec898;fill-opacity:1;fill-rule:nonzero;stroke:none"
         d="m 0,0 0,-0.17 0,-0.01 -0.33,-0.4 -0.46,0.15 c -0.05,0.06 -0.08,0.1 -0.09,0.11 L -0.51,0 0,0 z" /></g><g
       id="g558"
       transform="matrix(0.31235958,0,0,0.31235958,105.88707,626.52615)"
       inkscape:export-filename="/home/lenik/tasks/22-qt/sweeper/qml/contents/images/room-2.png"
       inkscape:export-xdpi="90"
       inkscape:export-ydpi="90"><path
         inkscape:connector-curvature="0"
         id="path560"
         style="fill:#cec898;fill-opacity:1;fill-rule:nonzero;stroke:none"
         d="m 0,0 0,-0.19 -0.51,0 0.39,0.33 C -0.11,0.12 -0.07,0.08 0,0" /></g><g
       id="g562"
       transform="matrix(0.31235958,0,0,0.31235958,105.88707,626.91659)"
       inkscape:export-filename="/home/lenik/tasks/22-qt/sweeper/qml/contents/images/room-2.png"
       inkscape:export-xdpi="90"
       inkscape:export-ydpi="90"><path
         inkscape:connector-curvature="0"
         id="path564"
         style="fill:#cec898;fill-opacity:1;fill-rule:nonzero;stroke:none"
         d="m 0,0 0,-1.25 c -0.07,0.08 -0.11,0.12 -0.12,0.14 l -0.39,-0.33 -0.49,0 c 0,-0.02 0,-0.14 -0.01,-0.35 L -1.34,-1.68 0,0 z" /></g><g
       id="g566"
       transform="matrix(0.31235958,0,0,0.31235958,105.57471,626.68554)"
       inkscape:export-filename="/home/lenik/tasks/22-qt/sweeper/qml/contents/images/room-2.png"
       inkscape:export-xdpi="90"
       inkscape:export-ydpi="90"><path
         inkscape:connector-curvature="0"
         id="path568"
         style="fill:#cec898;fill-opacity:1;fill-rule:nonzero;stroke:none"
         d="M 0,0 0,307.26 -12.45,297.07 -12.45,4.15 0,0 z M 1,309.37 1,0.74 l -1.34,-1.68 -12.6,4.2 1.35,0.43 -1.86,0.9 0,291.67 -18.35,-15.03 0,0.23 -1,0 -0.12,0.14 L 1,309.37 z" /></g><g
       id="g570"
       transform="matrix(0.31235958,0,0,0.31235958,105.78397,626.28563)"
       inkscape:export-filename="/home/lenik/tasks/22-qt/sweeper/qml/contents/images/room-2.png"
       inkscape:export-xdpi="90"
       inkscape:export-ydpi="90"><path
         inkscape:connector-curvature="0"
         id="path572"
         style="fill:#cec898;fill-opacity:1;fill-rule:nonzero;stroke:none"
         d="m 0,0 0.33,0.4 c 0,-0.12 0,-0.29 -0.01,-0.51 L 0,0 z" /></g><g
       id="g574"
       transform="matrix(0.31235958,0,0,0.31235958,105.78397,626.28563)"
       inkscape:export-filename="/home/lenik/tasks/22-qt/sweeper/qml/contents/images/room-2.png"
       inkscape:export-xdpi="90"
       inkscape:export-ydpi="90"><path
         inkscape:connector-curvature="0"
         id="path576"
         style="fill:#cec898;fill-opacity:1;fill-rule:nonzero;stroke:none"
         d="m 0,0 0.32,-0.11 c 0,-0.18 0,-0.4 -0.01,-0.65 -0.18,0.21 -0.34,0.4 -0.47,0.55 L 0,0 z" /></g><g
       id="g578"
       transform="matrix(0.31235958,0,0,0.31235958,105.78397,626.28563)"
       inkscape:export-filename="/home/lenik/tasks/22-qt/sweeper/qml/contents/images/room-2.png"
       inkscape:export-xdpi="90"
       inkscape:export-ydpi="90"><path
         inkscape:connector-curvature="0"
         id="path580"
         style="fill:#cec898;fill-opacity:1;fill-rule:nonzero;stroke:none"
         d="m 0,0 -0.16,-0.21 c -0.13,0.16 -0.23,0.29 -0.3,0.36 L 0,0 z" /></g><g
       id="g586"
       transform="matrix(0.31235958,0,0,0.31235958,105.73396,626.22003)"
       inkscape:export-filename="/home/lenik/tasks/22-qt/sweeper/qml/contents/images/room-2.png"
       inkscape:export-xdpi="90"
       inkscape:export-ydpi="90"><path
         inkscape:connector-curvature="0"
         id="path588"
         style="fill:#cec898;fill-opacity:1;fill-rule:nonzero;stroke:none"
         d="m 0,0 -0.53,-0.67 c 0.01,0.49 0.01,0.86 0.01,1.11 L -0.3,0.36 C -0.23,0.29 -0.13,0.16 0,0" /></g><g
       id="g590"
       transform="matrix(0.31235958,0,0,0.31235958,105.72771,626.46683)"
       inkscape:export-filename="/home/lenik/tasks/22-qt/sweeper/qml/contents/images/room-2.png"
       inkscape:export-xdpi="90"
       inkscape:export-ydpi="90"><path
         inkscape:connector-curvature="0"
         id="path592"
         style="fill:#cec898;fill-opacity:1;fill-rule:nonzero;stroke:none"
         d="m 0,0 -0.37,-0.32 c 0.01,-0.01 0.04,-0.05 0.09,-0.11 l -0.22,0.08 c 0.01,0.21 0.01,0.33 0.01,0.35 L 0,0 z" /></g><g
       id="g594"
       transform="matrix(0.31235958,0,0,0.31235958,105.57471,722.66105)"
       inkscape:export-filename="/home/lenik/tasks/22-qt/sweeper/qml/contents/images/room-2.png"
       inkscape:export-xdpi="90"
       inkscape:export-ydpi="90"><path
         inkscape:connector-curvature="0"
         id="path596"
         style="fill:#352f26;fill-opacity:1;fill-rule:nonzero;stroke:none"
         d="m 0,0 0,-307.26 -12.45,4.15 0,292.92 L 0,0 z" /></g><g
       id="g598"
       transform="matrix(0.31235958,0,0,0.31235958,105.46842,626.39193)"
       inkscape:export-filename="/home/lenik/tasks/22-qt/sweeper/qml/contents/images/room-2.png"
       inkscape:export-xdpi="90"
       inkscape:export-ydpi="90"><path
         inkscape:connector-curvature="0"
         id="path600"
         style="fill:#cec898;fill-opacity:1;fill-rule:nonzero;stroke:none"
         d="m 0,0 0.33,-0.11 c 0,-0.25 0,-0.62 -0.01,-1.11 l -157.48,-198.29 -0.01,0.16 0,1.43 L 0,0 z" /></g><g
       id="g606"
       transform="matrix(0.31235958,0,0,0.31235958,105.46842,626.39193)"
       inkscape:export-filename="/home/lenik/tasks/22-qt/sweeper/qml/contents/images/room-2.png"
       inkscape:export-xdpi="90"
       inkscape:export-ydpi="90"><path
         inkscape:connector-curvature="0"
         id="path608"
         style="fill:#faf3dd;fill-opacity:1;fill-rule:nonzero;stroke:none"
         d="m 0,0 -157.17,-197.92 0,114.04 87.69,115.53 25.08,-12.11 11.94,-21.07 0,-0.55 L -12.6,4.2 0,0 z" /></g><g
       id="g610"
       transform="matrix(0.31235958,0,0,0.31235958,101.95438,627.83812)"
       inkscape:export-filename="/home/lenik/tasks/22-qt/sweeper/qml/contents/images/room-2.png"
       inkscape:export-xdpi="90"
       inkscape:export-ydpi="90"><path
         inkscape:connector-curvature="0"
         id="path612"
         style="fill:#cec898;fill-opacity:1;fill-rule:nonzero;stroke:none"
         d="m 0,0 -1.35,-0.43 -0.51,0.17 0,1.16 L 0,0 z" /></g><g
       id="g614"
       transform="matrix(0.31235958,0,0,0.31235958,95.641587,626.17003)"
       inkscape:export-filename="/home/lenik/tasks/22-qt/sweeper/qml/contents/images/room-2.png"
       inkscape:export-xdpi="90"
       inkscape:export-ydpi="90"><path
         inkscape:connector-curvature="0"
         id="path616"
         style="fill:#edc876;fill-opacity:1;fill-rule:nonzero;stroke:none"
         d="M 0,0 17.5,5.53 0,13.99 0,0 z M 18.86,4.91 -1,-1.37 l 0,0.55 0.06,-0.11 0.87,0.49 -0.93,1.64 0,13.28 -10.36,5.01 -0.87,1.53 11.23,-5.43 0,266.47 1,0.82 0,-267.78 18.35,-8.86 0,-1.16 0.51,-0.17 z" /></g><g
       id="g618"
       transform="matrix(0.31235958,0,0,0.31235958,101.37342,719.2251)"
       inkscape:export-filename="/home/lenik/tasks/22-qt/sweeper/qml/contents/images/room-2.png"
       inkscape:export-xdpi="90"
       inkscape:export-ydpi="90"><path
         inkscape:connector-curvature="0"
         id="path620"
         style="fill:#664c30;fill-opacity:1;fill-rule:nonzero;stroke:none"
         d="m 0,0 0,-291.67 -18.35,8.86 0,267.78 L 0,0 z" /></g><g
       id="g622"
       transform="matrix(0.31235958,0,0,0.31235958,101.10788,627.89743)"
       inkscape:export-filename="/home/lenik/tasks/22-qt/sweeper/qml/contents/images/room-2.png"
       inkscape:export-xdpi="90"
       inkscape:export-ydpi="90"><path
         inkscape:connector-curvature="0"
         id="path624"
         style="fill:#664c30;fill-opacity:1;fill-rule:nonzero;stroke:none"
         d="m 0,0 -17.5,-5.53 0,13.99 L 0,0 z" /></g><g
       id="g626"
       transform="matrix(0.31235958,0,0,0.31235958,95.641587,714.60224)"
       inkscape:export-filename="/home/lenik/tasks/22-qt/sweeper/qml/contents/images/room-2.png"
       inkscape:export-xdpi="90"
       inkscape:export-ydpi="90"><path
         inkscape:connector-curvature="0"
         id="path628"
         style="fill:#cec898;fill-opacity:1;fill-rule:nonzero;stroke:none"
         d="M 0,0 0,-0.23 -1,-1.05 -1,0 0,0 z" /></g><g
       id="g630"
       transform="matrix(0.31235958,0,0,0.31235958,95.329227,626.54492)"
       inkscape:export-filename="/home/lenik/tasks/22-qt/sweeper/qml/contents/images/room-2.png"
       inkscape:export-xdpi="90"
       inkscape:export-ydpi="90"><path
         inkscape:connector-curvature="0"
         id="path632"
         style="fill:#cec898;fill-opacity:1;fill-rule:nonzero;stroke:none"
         d="M 0,0 0.93,-1.64 0.06,-2.13 0,-2.02 0,0 z" /></g><g
       id="g634"
       transform="matrix(0.31235958,0,0,0.31235958,95.329227,626.54492)"
       inkscape:export-filename="/home/lenik/tasks/22-qt/sweeper/qml/contents/images/room-2.png"
       inkscape:export-xdpi="90"
       inkscape:export-ydpi="90"><path
         inkscape:connector-curvature="0"
         id="path636"
         style="fill:#cec898;fill-opacity:1;fill-rule:nonzero;stroke:none"
         d="M 0,0 0,-2.02 -11.94,19.05 -10.36,18.29 0,0 z" /></g><g
       id="g638"
       transform="matrix(0.31235958,0,0,0.31235958,95.329227,630.69312)"
       inkscape:export-filename="/home/lenik/tasks/22-qt/sweeper/qml/contents/images/room-2.png"
       inkscape:export-xdpi="90"
       inkscape:export-ydpi="90"><path
         inkscape:connector-curvature="0"
         id="path640"
         style="fill:#edc876;fill-opacity:1;fill-rule:nonzero;stroke:none"
         d="M 0,0 0,-13.28 -10.36,5.01 0,0 z" /></g><g
       id="g642"
       transform="matrix(0.31235958,0,0,0.31235958,95.329227,714.27417)"
       inkscape:export-filename="/home/lenik/tasks/22-qt/sweeper/qml/contents/images/room-2.png"
       inkscape:export-xdpi="90"
       inkscape:export-ydpi="90"><path
         inkscape:connector-curvature="0"
         id="path644"
         style="fill:#edc876;fill-opacity:1;fill-rule:nonzero;stroke:none"
         d="m 0,0 0,-266.47 -11.23,5.43 -11.78,20.78 -4,218.15 L 0,0 z" /></g><g
       id="g646"
       transform="matrix(0.31235958,0,0,0.31235958,95.329227,714.60224)"
       inkscape:export-filename="/home/lenik/tasks/22-qt/sweeper/qml/contents/images/room-2.png"
       inkscape:export-xdpi="90"
       inkscape:export-ydpi="90"><path
         inkscape:connector-curvature="0"
         id="path648"
         style="fill:#cec898;fill-opacity:1;fill-rule:nonzero;stroke:none"
         d="m 0,0 0,-1.05 -27.01,-22.11 0,0.24 -1,-0.02 -0.12,0.15 L -0.12,0.14 0,0 z" /></g><g
       id="g650"
       transform="matrix(0.31235958,0,0,0.31235958,92.093237,632.25798)"
       inkscape:export-filename="/home/lenik/tasks/22-qt/sweeper/qml/contents/images/room-2.png"
       inkscape:export-xdpi="90"
       inkscape:export-ydpi="90"><path
         inkscape:connector-curvature="0"
         id="path652"
         style="fill:#cec898;fill-opacity:1;fill-rule:nonzero;stroke:none"
         d="M 0,0 -1.58,0.76 -2.45,2.29 -0.87,1.53 0,0 z" /></g><g
       id="g654"
       transform="matrix(0.31235958,0,0,0.31235958,91.821427,632.73583)"
       inkscape:export-filename="/home/lenik/tasks/22-qt/sweeper/qml/contents/images/room-2.png"
       inkscape:export-xdpi="90"
       inkscape:export-ydpi="90"><path
         inkscape:connector-curvature="0"
         id="path656"
         style="fill:#cec898;fill-opacity:1;fill-rule:nonzero;stroke:none"
         d="m 0,0 -1.58,0.76 -11.19,19.74 0,0.13 -3.99,217.49 0.98,0.81 4,-218.15 L 0,0 z" /></g><g
       id="g658"
       transform="matrix(0.31235958,0,0,0.31235958,91.599687,632.4953)"
       inkscape:export-filename="/home/lenik/tasks/22-qt/sweeper/qml/contents/images/room-2.png"
       inkscape:export-xdpi="90"
       inkscape:export-ydpi="90"><path
         inkscape:connector-curvature="0"
         id="path660"
         style="fill:#cec898;fill-opacity:1;fill-rule:nonzero;stroke:none"
         d="m 0,0 -25.08,12.11 -87.69,-115.53 0,1.65 L -25.38,13.37 -0.87,1.53 0,0 z" /></g><g
       id="g662"
       transform="matrix(0.31235958,0,0,0.31235958,87.832597,639.1392)"
       inkscape:export-filename="/home/lenik/tasks/22-qt/sweeper/qml/contents/images/room-2.png"
       inkscape:export-xdpi="90"
       inkscape:export-ydpi="90"><path
         inkscape:connector-curvature="0"
         id="path664"
         style="fill:#d9ecda;fill-opacity:1;fill-rule:nonzero;stroke:none"
         d="m 0,0 11.19,-19.74 -24.51,11.84 -87.39,-115.14 0,261.46 96.72,79.2 L 0,0.13 0,0 z" /></g><g
       id="g666"
       transform="matrix(0.31235958,0,0,0.31235958,86.892487,707.44299)"
       inkscape:export-filename="/home/lenik/tasks/22-qt/sweeper/qml/contents/images/room-2.png"
       inkscape:export-xdpi="90"
       inkscape:export-ydpi="90"><path
         inkscape:connector-curvature="0"
         id="path668"
         style="fill:#cec898;fill-opacity:1;fill-rule:nonzero;stroke:none"
         d="M 0,0 0,-0.24 -0.98,-1.05 -1,-0.02 0,0 z" /></g><g
       id="g670"
       transform="matrix(0.31235958,0,0,0.31235958,86.580127,707.43675)"
       inkscape:export-filename="/home/lenik/tasks/22-qt/sweeper/qml/contents/images/room-2.png"
       inkscape:export-xdpi="90"
       inkscape:export-ydpi="90"><path
         inkscape:connector-curvature="0"
         id="path672"
         style="fill:#cec898;fill-opacity:1;fill-rule:nonzero;stroke:none"
         d="m 0,0 0.02,-1.03 -96.72,-79.2 0,-261.46 -0.9,-1.19 -0.1,0 0,263.13 L -0.12,0.15 0,0 z" /></g><g
       id="g690"
       transform="matrix(0.31235958,0,0,0.31235958,57.040156,551.95655)"
       inkscape:export-filename="/home/lenik/tasks/22-qt/sweeper/qml/contents/images/room-2.png"
       inkscape:export-xdpi="90"
       inkscape:export-ydpi="90"><path
         inkscape:connector-curvature="0"
         id="path692"
         style="fill:#cec898;fill-opacity:1;fill-rule:nonzero;stroke:none"
         d="m 0,0 5.49,-100.57 c -0.05,0.05 -0.1,0.091 -0.15,0.14 l -0.68,-0.73 -0.14,-0.01 -7.58,138.78 0.94,1.18 2.06,-37.8 C -0.23,0.98 -0.4,0.96 -0.57,0.95 l 0.08,-0.99 C -0.33,-0.03 -0.16,-0.01 0,0" /></g><g
       id="g694"
       transform="matrix(0.31235958,0,0,0.31235958,57.021406,552.26587)"
       inkscape:export-filename="/home/lenik/tasks/22-qt/sweeper/qml/contents/images/room-2.png"
       inkscape:export-xdpi="90"
       inkscape:export-ydpi="90"><path
         inkscape:connector-curvature="0"
         id="path696"
         style="fill:#cec898;fill-opacity:1;fill-rule:nonzero;stroke:none"
         d="M 0,0 0.06,-0.99 C -0.1,-1 -0.27,-1.021 -0.43,-1.03 l -0.08,0.99 C -0.34,-0.03 -0.17,-0.01 0,0" /></g><g
       id="g698"
       transform="matrix(0.31235958,0,0,0.31235958,56.374896,564.12301)"
       inkscape:export-filename="/home/lenik/tasks/22-qt/sweeper/qml/contents/images/room-2.png"
       inkscape:export-xdpi="90"
       inkscape:export-ydpi="90"><path
         inkscape:connector-curvature="0"
         id="path700"
         style="fill:#cec898;fill-opacity:1;fill-rule:nonzero;stroke:none"
         d="M 0,0 0.01,-0.16 -0.93,-1.34 -1,-0.03 -1,0.17 0,1.43 0,0 z" /></g><g
       id="g702"
       transform="matrix(0.31235958,0,0,0.31235958,56.374896,600.19108)"
       inkscape:export-filename="/home/lenik/tasks/22-qt/sweeper/qml/contents/images/room-2.png"
       inkscape:export-xdpi="90"
       inkscape:export-ydpi="90"><path
         inkscape:connector-curvature="0"
         id="path704"
         style="fill:#cec898;fill-opacity:1;fill-rule:nonzero;stroke:none"
         d="m 0,0 0,-114.04 -1,-1.26 0,115.76 0.1,0 0.79,-0.6 L 0,0 z" /></g><g
       id="g706"
       transform="matrix(0.31235958,0,0,0.31235958,56.374896,600.70659)"
       inkscape:export-filename="/home/lenik/tasks/22-qt/sweeper/qml/contents/images/room-2.png"
       inkscape:export-xdpi="90"
       inkscape:export-ydpi="90"><path
         inkscape:connector-curvature="0"
         id="path708"
         style="fill:#cec898;fill-opacity:1;fill-rule:nonzero;stroke:none"
         d="M 0,0 0,-1.65 -0.11,-1.79 -0.9,-1.19 0,0 z" /></g><g
       id="g710"
       transform="matrix(0.31235958,0,0,0.31235958,56.062536,564.11354)"
       inkscape:export-filename="/home/lenik/tasks/22-qt/sweeper/qml/contents/images/room-2.png"
       inkscape:export-xdpi="90"
       inkscape:export-ydpi="90"><path
         inkscape:connector-curvature="0"
         id="path712"
         style="fill:#232323;fill-opacity:1;fill-rule:nonzero;stroke:none"
         d="m 0,0 0.07,-1.31 -33.83,-42.6 -0.08,0.07 0,1.43 L 0,0.2 0,0 z" /></g><g
       id="g714"
       transform="matrix(0.31235958,0,0,0.31235958,45.517336,550.39781)"
       inkscape:export-filename="/home/lenik/tasks/22-qt/sweeper/qml/contents/images/room-2.png"
       inkscape:export-xdpi="90"
       inkscape:export-ydpi="90"><path
         inkscape:connector-curvature="0"
         id="path716"
         style="fill:#232323;fill-opacity:1;fill-rule:nonzero;stroke:none"
         d="m 0,0 -41.2,-51.88 0,1.601 40.12,50.519 0,-0.17 1,0 L 0,0 z" /></g><g
       id="g718"
       transform="matrix(0.31235958,0,0,0.31235958,45.492316,550.86634)"
       inkscape:export-filename="/home/lenik/tasks/22-qt/sweeper/qml/contents/images/room-2.png"
       inkscape:export-xdpi="90"
       inkscape:export-ydpi="90"><path
         inkscape:connector-curvature="0"
         id="path720"
         style="fill:#cec898;fill-opacity:1;fill-rule:nonzero;stroke:none"
         d="m 0,0 0,-1.43 -1,0 0,0.17 L 0,0 z" /></g><g
       id="g722"
       transform="matrix(0.31235958,0,0,0.31235958,32.648053,534.69259)"
       inkscape:export-filename="/home/lenik/tasks/22-qt/sweeper/qml/contents/images/room-2.png"
       inkscape:export-xdpi="90"
       inkscape:export-ydpi="90"><path
         inkscape:connector-curvature="0"
         id="path724"
         style="fill:#cec898;fill-opacity:1;fill-rule:nonzero;stroke:none"
         d="M 0,0 0,-1.601 -0.11,-1.74 -0.89,-1.12 0,0 z" /></g></g></svg>