<?xml version="1.0" encoding="UTF-8" standalone="no"?>
<!-- Created with Inkscape (http://www.inkscape.org/) -->

<svg
   xmlns:dc="http://purl.org/dc/elements/1.1/"
   xmlns:cc="http://creativecommons.org/ns#"
   xmlns:rdf="http://www.w3.org/1999/02/22-rdf-syntax-ns#"
   xmlns:svg="http://www.w3.org/2000/svg"
   xmlns="http://www.w3.org/2000/svg"
   xmlns:xlink="http://www.w3.org/1999/xlink"
   xmlns:sodipodi="http://sodipodi.sourceforge.net/DTD/sodipodi-0.dtd"
   xmlns:inkscape="http://www.inkscape.org/namespaces/inkscape"
   width="744.09448819"
   height="1052.3622047"
   id="svg2"
   version="1.1"
   inkscape:version="0.48.3.1 r9886"
   sodipodi:docname="copyword.svg">
  <defs
     id="defs4">
    <linearGradient
       id="linearGradient6270">
      <stop
         style="stop-color:#fa8072;stop-opacity:1;"
         offset="0"
         id="stop6272" />
      <stop
         style="stop-color:#ffffff;stop-opacity:1"
         offset="1"
         id="stop6274" />
    </linearGradient>
    <linearGradient
       id="linearGradient3929">
      <stop
         style="stop-color:#ffffff;stop-opacity:1;"
         offset="0"
         id="stop3931" />
      <stop
         style="stop-color:#ffffff;stop-opacity:0;"
         offset="1"
         id="stop3933" />
    </linearGradient>
    <radialGradient
       inkscape:collect="always"
       xlink:href="#linearGradient3929"
       id="radialGradient4116"
       gradientUnits="userSpaceOnUse"
       gradientTransform="matrix(-0.7604264,0,0,-0.5591994,469.76082,1132.5224)"
       cx="243.54901"
       cy="593.62787"
       fx="243.54901"
       fy="593.62787"
       r="99.462334" />
    <radialGradient
       inkscape:collect="always"
       xlink:href="#linearGradient3929"
       id="radialGradient4190"
       gradientUnits="userSpaceOnUse"
       gradientTransform="matrix(-0.7604264,0,0,-0.5591994,469.76082,1132.5224)"
       cx="243.54901"
       cy="593.62787"
       fx="243.54901"
       fy="593.62787"
       r="99.462334" />
    <filter
       id="filter4706"
       inkscape:label="Smooth edges"
       inkscape:menu="Morphology"
       inkscape:menu-tooltip="Smooth the outside of shapes and pictures without altering their contents"
       color-interpolation-filters="sRGB">
      <feGaussianBlur
         id="feGaussianBlur4708"
         stdDeviation="3"
         result="result1" />
      <feComposite
         id="feComposite4710"
         in2="SourceGraphic"
         operator="arithmetic"
         k2="2"
         k4="-1"
         in="result1"
         result="result2" />
      <feColorMatrix
         id="feColorMatrix4712"
         values="0 0 0 0 0 0 1 0 0 0 0 0 1 0 0 0 0 0 8 -6 "
         result="result3" />
      <feComposite
         id="feComposite4714"
         in2="result3"
         in="SourceGraphic"
         operator="in" />
    </filter>
    <linearGradient
       inkscape:collect="always"
       xlink:href="#linearGradient3929"
       id="linearGradient6719"
       gradientUnits="userSpaceOnUse"
       gradientTransform="matrix(0.99240164,0,0,0.98596837,-20.959557,-692.14438)"
       x1="305.33853"
       y1="1526.7463"
       x2="264.13367"
       y2="1450.6758" />
    <linearGradient
       inkscape:collect="always"
       xlink:href="#linearGradient3929"
       id="linearGradient6775"
       gradientUnits="userSpaceOnUse"
       gradientTransform="matrix(0.99240164,0,0,0.98596837,-20.959557,-692.14438)"
       x1="305.33853"
       y1="1526.7463"
       x2="264.13367"
       y2="1450.6758" />
    <filter
       id="filter7615"
       x="-0.25"
       width="1.5"
       y="-0.25"
       height="1.5"
       inkscape:menu="Non realistic 3D shaders"
       inkscape:menu-tooltip="Non realistic frosted glass imitation"
       inkscape:label="Frosted glass"
       color-interpolation-filters="sRGB">
      <feGaussianBlur
         id="feGaussianBlur7617"
         result="result8"
         stdDeviation="7" />
      <feComposite
         id="feComposite7619"
         in2="result8"
         in="result8"
         operator="xor"
         result="result6" />
      <feDisplacementMap
         id="feDisplacementMap7621"
         in2="result6"
         result="result4"
         scale="75"
         yChannelSelector="A"
         xChannelSelector="A"
         in="result6" />
      <feComposite
         id="feComposite7623"
         in2="result4"
         k1="2"
         in="SourceGraphic"
         operator="arithmetic"
         result="result2" />
      <feComposite
         id="feComposite7625"
         in2="result2"
         operator="in"
         in="result6"
         result="fbSourceGraphic" />
    </filter>
    <filter
       id="filter7627"
       x="-0.25"
       width="1.5"
       y="-0.25"
       height="1.5"
       inkscape:menu="Non realistic 3D shaders"
       inkscape:menu-tooltip="Non realistic frosted glass imitation"
       inkscape:label="Frosted glass"
       color-interpolation-filters="sRGB">
      <feGaussianBlur
         id="feGaussianBlur7629"
         result="result8"
         stdDeviation="7" />
      <feComposite
         id="feComposite7631"
         in2="result8"
         in="result8"
         operator="xor"
         result="result6" />
      <feDisplacementMap
         id="feDisplacementMap7633"
         in2="result6"
         result="result4"
         scale="75"
         yChannelSelector="A"
         xChannelSelector="A"
         in="result6" />
      <feComposite
         id="feComposite7635"
         in2="result4"
         k1="2"
         in="SourceGraphic"
         operator="arithmetic"
         result="result2" />
      <feComposite
         id="feComposite7637"
         in2="result2"
         operator="in"
         in="result6"
         result="fbSourceGraphic" />
    </filter>
    <filter
       id="filter7639"
       x="-0.25"
       width="1.5"
       y="-0.25"
       height="1.5"
       inkscape:menu="Non realistic 3D shaders"
       inkscape:menu-tooltip="Non realistic frosted glass imitation"
       inkscape:label="Frosted glass"
       color-interpolation-filters="sRGB">
      <feGaussianBlur
         id="feGaussianBlur7641"
         result="result8"
         stdDeviation="7" />
      <feComposite
         id="feComposite7643"
         in2="result8"
         in="result8"
         operator="xor"
         result="result6" />
      <feDisplacementMap
         id="feDisplacementMap7645"
         in2="result6"
         result="result4"
         scale="75"
         yChannelSelector="A"
         xChannelSelector="A"
         in="result6" />
      <feComposite
         id="feComposite7647"
         in2="result4"
         k1="2"
         in="SourceGraphic"
         operator="arithmetic"
         result="result2" />
      <feComposite
         id="feComposite7649"
         in2="result2"
         operator="in"
         in="result6"
         result="fbSourceGraphic" />
    </filter>
    <filter
       id="filter7651"
       x="-0.25"
       width="1.5"
       y="-0.25"
       height="1.5"
       inkscape:menu="Non realistic 3D shaders"
       inkscape:menu-tooltip="Non realistic frosted glass imitation"
       inkscape:label="Frosted glass"
       color-interpolation-filters="sRGB">
      <feGaussianBlur
         id="feGaussianBlur7653"
         result="result8"
         stdDeviation="7" />
      <feComposite
         id="feComposite7655"
         in2="result8"
         in="result8"
         operator="xor"
         result="result6" />
      <feDisplacementMap
         id="feDisplacementMap7657"
         in2="result6"
         result="result4"
         scale="75"
         yChannelSelector="A"
         xChannelSelector="A"
         in="result6" />
      <feComposite
         id="feComposite7659"
         in2="result4"
         k1="2"
         in="SourceGraphic"
         operator="arithmetic"
         result="result2" />
      <feComposite
         id="feComposite7661"
         in2="result2"
         operator="in"
         in="result6"
         result="fbSourceGraphic" />
    </filter>
    <filter
       id="filter7670"
       x="-0.25"
       width="1.5"
       y="-0.25"
       height="1.5"
       inkscape:menu="Non realistic 3D shaders"
       inkscape:menu-tooltip="Non realistic frosted glass imitation"
       inkscape:label="Frosted glass"
       color-interpolation-filters="sRGB">
      <feGaussianBlur
         id="feGaussianBlur7672"
         result="result8"
         stdDeviation="7" />
      <feComposite
         id="feComposite7674"
         in2="result8"
         in="result8"
         operator="xor"
         result="result6" />
      <feDisplacementMap
         id="feDisplacementMap7676"
         in2="result6"
         result="result4"
         scale="75"
         yChannelSelector="A"
         xChannelSelector="A"
         in="result6" />
      <feComposite
         id="feComposite7678"
         in2="result4"
         k1="2"
         in="SourceGraphic"
         operator="arithmetic"
         result="result2" />
      <feComposite
         id="feComposite7680"
         in2="result2"
         operator="in"
         in="result6"
         result="fbSourceGraphic" />
    </filter>
  </defs>
  <sodipodi:namedview
     id="base"
     pagecolor="#ffffff"
     bordercolor="#666666"
     borderopacity="1.0"
     inkscape:pageopacity="0.0"
     inkscape:pageshadow="2"
     inkscape:zoom="0.34"
     inkscape:cx="384.88421"
     inkscape:cy="492.35741"
     inkscape:document-units="px"
     inkscape:current-layer="layer1"
     showgrid="false"
     inkscape:snap-to-guides="false"
     showguides="true"
     inkscape:guide-bbox="true"
     inkscape:window-width="798"
     inkscape:window-height="638"
     inkscape:window-x="333"
     inkscape:window-y="311"
     inkscape:window-maximized="0" />
  <metadata
     id="metadata7">
    <rdf:RDF>
      <cc:Work
         rdf:about="">
        <dc:format>image/svg+xml</dc:format>
        <dc:type
           rdf:resource="http://purl.org/dc/dcmitype/StillImage" />
        <dc:title></dc:title>
      </cc:Work>
    </rdf:RDF>
  </metadata>
  <g
     inkscape:groupmode="layer"
     id="layer2"
     inkscape:label="back"
     style="display:inline" />
  <g
     inkscape:label="front"
     inkscape:groupmode="layer"
     id="layer1">
    <g
       id="g3154"
       transform="matrix(0.40391301,0,0,0.40391301,421.47506,-68.137256)">
      <rect
         ry="53.118698"
         rx="44.178768"
         y="212.48268"
         x="22.361443"
         height="347.05573"
         width="703.30792"
         id="rect4445"
         style="fill:#dcdcdc;fill-opacity:1;fill-rule:nonzero;stroke:#dcdcdc;stroke-width:5.63006496;stroke-miterlimit:4;stroke-opacity:1;stroke-dasharray:none" />
      <path
         d="m 230.69426,341.87403 c 4.97932,7.96727 7.46907,16.709 7.46921,26.22522 -1.4e-4,14.27457 -4.70297,26.44659 -14.10851,36.51613 -9.51644,10.06966 -23.12698,15.76836 -40.83167,17.09619 -11.39753,0.88528 -19.1987,1.88117 -23.40351,2.98769 -4.0943,0.99593 -7.85655,3.09836 -11.28681,6.30732 -3.43034,3.09838 -5.14549,6.1967 -5.14545,9.29502 -4e-5,4.64753 2.65566,8.07783 7.96715,10.29092 5.20073,2.2131 16.21088,3.59627 33.0305,4.14955 24.67594,0.88523 41.1635,1.99179 49.46275,3.31964 8.29898,1.21721 15.38088,5.03481 21.24575,11.45279 5.9752,6.52864 8.96288,14.88306 8.96304,25.06334 -1.6e-4,16.8195 -7.41404,30.48537 -22.24164,40.99765 -14.82787,10.51213 -36.73753,15.76824 -65.72901,15.76834 -21.46713,-10e-5 -37.62273,-2.76647 -48.46688,-8.29913 -10.73353,-5.53283 -16.1003,-13.7766 -16.10028,-24.73137 -2e-5,-17.26221 16.3769,-31.31538 49.13079,-42.15953 -13.83191,-2.21311 -23.56955,-5.25611 -29.21291,-9.12903 -5.64343,-3.76227 -8.46513,-9.0737 -8.46509,-15.93432 -4e-5,-7.08189 2.93232,-13.27855 8.79706,-18.59002 5.97533,-5.42207 14.88303,-9.9589 26.72316,-13.61056 -10.62292,-3.0983 -19.19866,-8.52038 -25.72726,-16.26628 -6.41802,-7.85643 -9.627,-17.04077 -9.62698,-27.55307 -2e-5,-15.15962 5.75402,-28.38288 17.26217,-39.66979 11.50805,-11.39733 26.1145,-17.09605 43.81935,-17.09619 17.26207,1.4e-4 31.31522,5.92018 42.15952,17.76011 11.39732,-12.94648 22.07552,-19.4198 32.03462,-19.41994 6.97109,1.4e-4 12.33784,1.99193 16.10028,5.97536 3.87275,3.98372 5.8092,8.35459 5.80938,13.11262 -1.8e-4,2.9878 -1.10672,5.47755 -3.31964,7.46921 -2.21327,1.99189 -4.86899,2.98779 -7.96715,2.98768 -5.64357,1.1e-4 -10.1251,-3.31953 -13.44458,-9.95893 -1.99195,-3.98346 -4.37103,-5.97524 -7.13725,-5.97539 -4.537,1.5e-4 -10.45702,3.87306 -17.76011,11.61877 m -81.1654,27.88505 c -4e-5,16.377 3.5409,28.05108 10.62288,35.02228 7.19249,6.86066 14.77236,10.29096 22.7396,10.29092 7.41377,4e-5 14.05307,-3.54092 19.91787,-10.62288 5.97526,-7.08185 8.96294,-17.92603 8.96305,-32.53256 -1.1e-4,-15.04896 -2.93247,-26.66771 -8.79707,-34.8563 -5.8648,-8.29898 -13.05736,-12.44854 -21.5777,-12.44866 -9.40575,1.2e-4 -17.09626,3.9837 -23.07156,11.95072 -5.86477,7.96728 -8.79711,19.03275 -8.79707,33.19648 m 44.15133,106.89267 c -11.50821,-2e-5 -22.18638,1.88111 -32.0346,5.64339 -9.84834,3.76225 -17.15158,8.24377 -21.90969,13.44457 -4.64755,5.31141 -6.97129,11.61873 -6.97125,18.92201 -4e-5,9.73755 4.70279,17.15143 14.10849,22.24164 9.40562,5.2007 21.19037,7.80109 35.35426,7.80117 21.46694,-8e-5 37.40124,-4.37095 47.80292,-13.11262 10.40144,-8.63115 15.6022,-18.09213 15.60235,-28.38298 -1.5e-4,-8.85243 -4.31568,-15.49173 -12.94662,-19.9179 -8.63121,-4.42621 -21.63315,-6.6393 -39.00586,-6.63928"
         style="font-size:166.34207153px;font-style:normal;font-variant:normal;font-weight:normal;font-stretch:normal;text-align:start;line-height:125%;letter-spacing:0px;word-spacing:0px;writing-mode:lr-tb;text-anchor:start;fill:#696969;fill-opacity:1;stroke:none;font-family:Bell MT;-inkscape-font-specification:Bell MT"
         id="path4452"
         inkscape:connector-curvature="0" />
      <path
         d="m 316.17652,321.42769 c 12.28266,8.9 22.35224,13.34996 30.20879,13.34987 9.62692,9e-5 18.42396,-4.73093 26.39121,-14.19303 7.96705,-9.4619 11.95063,-20.89125 11.95073,-34.28811 -1e-4,-12.83445 -4.039,-23.13963 -12.11673,-30.9155 -7.96723,-7.77552 -16.98559,-11.6634 -27.05513,-11.66358 -10.18029,1.8e-4 -15.27042,2.99804 -15.27036,8.99361 -6e-5,0.937 0.11056,2.10803 0.33196,3.51313 0.22125,1.59278 0.33191,2.8575 0.33195,3.79418 -4e-5,3.74748 -1.38323,6.83903 -4.14955,9.27464 -2.65576,2.34224 -5.92008,3.51327 -9.79296,3.51311 -9.627,1.6e-4 -14.44049,-4.30926 -14.44047,-12.92829 -2e-5,-6.74503 4.14953,-11.94445 12.44868,-15.59828 8.29909,-3.65345 18.03671,-5.48028 29.2129,-5.48047 17.59405,1.9e-4 32.86441,5.43382 45.81114,16.3009 12.94651,10.77375 19.41981,23.28045 19.41994,37.52018 -1.3e-4,14.52105 -5.36687,26.5125 -16.10028,35.9744 -10.62298,9.46211 -23.34828,14.19312 -38.17597,14.19304 -9.62704,8e-5 -19.41998,-2.66989 -29.37887,-8.00993 -1.88117,20.32935 -2.82175,34.28815 -2.82171,41.87645 -4e-5,2.15476 -0.22134,3.51316 -0.66393,4.07523 -0.44266,0.46846 -1.65985,0.70268 -3.6516,0.70262 -2.43445,6e-5 -3.65166,-1.31151 -3.65162,-3.9347 l -0.16594,-6.60468 c -4e-5,-22.95233 0.44258,-39.44058 1.32786,-49.46479 m 5.47742,80.23978 c 4.42615,2e-5 8.24375,1.35842 11.45279,4.07523 3.31958,2.62315 4.97941,5.90206 4.97947,9.83675 -6e-5,3.84102 -1.60455,7.11993 -4.81349,9.83675 -3.20904,2.71681 -7.08196,4.07521 -11.61877,4.07523 -4.53689,-2e-5 -8.40981,-1.35842 -11.61877,-4.07523 -3.20902,-2.71682 -4.81351,-5.99573 -4.81349,-9.83675 -2e-5,-3.93469 1.60447,-7.2136 4.81349,-9.83675 3.31962,-2.71681 7.19254,-4.07521 11.61877,-4.07523"
         style="font-size:166.34207153px;font-style:normal;font-variant:normal;font-weight:normal;font-stretch:normal;text-align:start;line-height:125%;letter-spacing:0px;word-spacing:0px;writing-mode:lr-tb;text-anchor:start;fill:#fa8072;fill-opacity:1;stroke:none;font-family:Bell MT;-inkscape-font-specification:Bell MT"
         id="path4454"
         inkscape:connector-curvature="0" />
      <path
         d="m 486.14119,355.98254 c 6.9712,-12.39324 14.38507,-21.68824 22.24164,-27.88504 7.96707,-6.19654 16.3215,-9.29488 25.06335,-9.29501 6.0859,1.3e-4 11.342,2.21323 15.76832,6.63928 4.42607,4.31568 6.63915,9.23983 6.6393,14.77245 -1.5e-4,10.51232 -4.48166,15.76843 -13.44458,15.76832 -4.20499,1.1e-4 -7.74595,-2.93224 -10.62287,-8.79706 -3.54106,-7.41377 -8.24389,-11.12071 -14.10852,-11.12083 -5.53282,1.2e-4 -11.23155,3.09846 -17.09617,9.29502 -5.86478,6.19678 -9.79304,13.00206 -11.78477,20.41583 -1.99182,7.30332 -2.98772,22.68434 -2.98768,46.14312 -4e-5,21.46708 0.8852,33.80509 2.65573,37.01407 1.77042,3.09834 6.30726,5.09012 13.61055,5.97536 1.99171,0.22132 2.9876,0.99589 2.98768,2.32376 -8e-5,2.32375 -2.60046,3.48562 -7.80117,3.48562 l -52.94839,0 c -3.76228,0 -5.6434,-0.94055 -5.64338,-2.8217 -2e-5,-1.77047 2.48972,-2.76636 7.46919,-2.98768 6.97124,-0.44262 11.28679,-2.60039 12.94664,-6.47332 1.65979,-3.8729 2.4897,-18.14737 2.48972,-42.82346 -2e-5,-36.18407 -0.77461,-57.92773 -2.32374,-65.23107 -1.43855,-7.30309 -6.97128,-11.17603 -16.59824,-11.61877 -3.98359,-0.22117 -5.97538,-1.27241 -5.97536,-3.15366 -2e-5,-0.99577 0.38728,-1.71502 1.16187,-2.15778 0.88524,-0.55314 5.97534,-1.10641 15.27039,-1.65981 l 30.54075,-1.65983 c 0.77453,5.9755 1.60445,17.92621 2.48974,35.85219"
         style="font-size:166.34207153px;font-style:normal;font-variant:normal;font-weight:normal;font-stretch:normal;text-align:start;line-height:125%;letter-spacing:0px;word-spacing:0px;writing-mode:lr-tb;text-anchor:start;fill:#696969;fill-opacity:1;stroke:none;font-family:Bell MT;-inkscape-font-specification:Bell MT"
         id="path4456"
         inkscape:connector-curvature="0" />
      <path
         d="m 622.24674,233.48752 c 0.3319,13.94274 0.60854,27.88526 0.82992,41.82758 l -0.33198,103.40702 0.66394,50.12669 c -6e-5,9.51634 1.32779,16.37696 3.98357,20.58181 2.7663,4.20492 8.63101,6.69464 17.59413,7.46922 3.54088,0.33197 5.31135,1.38319 5.31145,3.15366 -10e-5,1.88114 -1.43861,2.8217 -4.31555,2.8217 -0.77466,0 -1.71523,-0.0554 -2.82171,-0.16594 -11.39753,-1.21719 -25.00806,-1.82581 -40.83166,-1.82581 -9.627,0 -17.37285,0.44262 -23.23754,1.32787 -1.21721,0.11056 -2.32376,0.16594 -3.31964,0.16594 -3.31966,0 -4.97949,-0.99589 -4.97947,-2.98768 -2e-5,-1.88113 1.49384,-2.87702 4.48152,-2.98768 10.06957,-0.11076 16.65353,-2.98768 19.75191,-8.63109 3.20894,-5.75404 4.81345,-15.32568 4.81349,-28.71496 l -0.49795,-94.60997 c -0.11076,-30.42993 -0.55332,-48.57731 -1.32785,-54.44222 -0.66398,-5.97516 -2.93241,-10.95463 -6.80528,-14.93841 -3.87296,-3.98337 -9.29504,-6.52843 -16.26628,-7.63519 -4.31555,-0.66371 -6.47332,-1.82561 -6.47332,-3.48564 0,-1.8809 1.77047,-2.93214 5.31145,-3.15366 20.24981,-1.32765 35.46485,-3.76205 45.64515,-7.30324 l 2.8217,0"
         style="font-size:166.34207153px;font-style:normal;font-variant:normal;font-weight:normal;font-stretch:normal;text-align:start;line-height:125%;letter-spacing:0px;word-spacing:0px;writing-mode:lr-tb;text-anchor:start;fill:#696969;fill-opacity:1;stroke:none;font-family:Bell MT;-inkscape-font-specification:Bell MT"
         id="path4458"
         inkscape:connector-curvature="0" />
      <rect
         y="445.38437"
         x="276.85431"
         height="21.593792"
         width="144.66275"
         id="rect4464"
         style="fill:#ffffff;fill-opacity:1;fill-rule:nonzero;stroke:#dcdcdc;stroke-width:4.94823217;stroke-miterlimit:4;stroke-opacity:1;stroke-dasharray:none" />
    </g>
    <path
       style="fill:#dcdcdc;fill-opacity:1;fill-rule:nonzero;stroke:#8b0000;stroke-width:1;stroke-miterlimit:4;stroke-opacity:1;stroke-dasharray:none"
       d=""
       id="path6636"
       inkscape:connector-curvature="0" />
    <path
       style="fill:#dcdcdc;fill-opacity:1;fill-rule:nonzero;stroke:#8b0000;stroke-width:1;stroke-miterlimit:4;stroke-opacity:1;stroke-dasharray:none"
       d=""
       id="path6646"
       inkscape:connector-curvature="0" />
    <path
       style="fill:#dcdcdc;fill-opacity:1;fill-rule:nonzero;stroke:#8b0000;stroke-width:1;stroke-miterlimit:4;stroke-opacity:1;stroke-dasharray:none"
       d=""
       id="path6648"
       inkscape:connector-curvature="0" />
    <path
       style="fill:#dcdcdc;fill-opacity:1;fill-rule:nonzero;stroke:#8b0000;stroke-width:1;stroke-miterlimit:4;stroke-opacity:1;stroke-dasharray:none"
       d=""
       id="path6650"
       inkscape:connector-curvature="0" />
    <g
       id="g3222"
       transform="matrix(0.3898706,0,0,0.3898706,1.5422323,4.3570509)"
       inkscape:export-filename="/home/lenik/tasks/22-qt/copyword/copyword80.png"
       inkscape:export-xdpi="24.99"
       inkscape:export-ydpi="24.99">
      <rect
         ry="200"
         rx="200"
         y="7.6411915"
         x="3.0277135"
         height="736.54846"
         width="736.54852"
         id="rect4349"
         style="fill:#b0c4de;stroke:#dcdcdc;stroke-width:2.56495357" />
      <text
         transform="matrix(0.98780759,0.1556797,-0.1556797,0.98780759,0,0)"
         xml:space="preserve"
         style="font-size:238.59938049px;font-style:normal;font-variant:normal;font-weight:normal;font-stretch:normal;text-align:start;line-height:125%;letter-spacing:0px;word-spacing:0px;writing-mode:lr-tb;text-anchor:start;fill:#ffffff;fill-opacity:1;stroke:none;font-family:Bookman Uralic;-inkscape-font-specification:Bookman Uralic"
         x="367.33252"
         y="362.1232"
         id="text3194"
         sodipodi:linespacing="125%"><tspan
           sodipodi:role="line"
           x="367.33252"
           y="362.1232"
           id="tspan3200">gay</tspan></text>
      <text
         transform="matrix(0.94081696,-0.3389151,0.3389151,0.94081696,0,0)"
         sodipodi:linespacing="125%"
         id="text3202"
         y="349.56216"
         x="-28.361937"
         style="font-size:285.56103516px;font-style:normal;font-variant:normal;font-weight:normal;font-stretch:normal;text-align:start;line-height:125%;letter-spacing:0px;word-spacing:0px;writing-mode:lr-tb;text-anchor:start;fill:#4682b4;fill-opacity:1;stroke:none;font-family:Bookman Uralic;-inkscape-font-specification:Bookman Uralic"
         xml:space="preserve"><tspan
           id="tspan3208"
           y="349.56216"
           x="-28.361937"
           sodipodi:role="line">gas</tspan></text>
      <text
         transform="matrix(0.93141579,0.36395691,-0.36395691,0.93141579,0,0)"
         sodipodi:linespacing="125%"
         id="text3182"
         y="377.22806"
         x="259.19949"
         style="font-size:321.7159729px;font-style:normal;font-variant:normal;font-weight:normal;font-stretch:normal;text-align:start;line-height:125%;letter-spacing:0px;word-spacing:0px;writing-mode:lr-tb;text-anchor:start;fill:#1e90ff;fill-opacity:1;stroke:none;font-family:Bookman Uralic;-inkscape-font-specification:Bookman Uralic"
         xml:space="preserve"><tspan
           id="tspan3188"
           y="377.22806"
           x="259.19949"
           sodipodi:role="line">guy</tspan></text>
    </g>
    <g
       id="g4404"
       inkscape:export-filename="/home/lenik/tasks/22-qt/copyword/qml/contents/images/mountain.png"
       inkscape:export-xdpi="180"
       inkscape:export-ydpi="180"
       transform="translate(-23.529407,-411.76471)">
      <rect
         y="922.23431"
         x="49.913422"
         height="85.060425"
         width="240"
         id="rect3231"
         style="fill:#87cefa;fill-opacity:1;fill-rule:nonzero;stroke:none;display:inline" />
      <path
         inkscape:connector-curvature="0"
         id="path3498"
         d="m 101.55342,978.65757 c -17.922319,0.05 -35.151624,8.7525 -51.639999,26.67083 l 0,2.4663 111.819999,0 c -20.82413,-19.23253 -40.9037,-29.19143 -60.18,-29.13713 z"
         style="fill:#006400;stroke:none" />
      <path
         inkscape:connector-curvature="0"
         id="path3500"
         d="m 212.20342,935.90897 c -29.18333,0.2607 -61.45605,20.4277 -90.74,71.88573 l 168.45,0 0,-14.26673 c -16.41845,-33.4144 -45.14026,-57.91 -77.71,-57.619 z"
         style="fill:#3cb371;stroke:none" />
    </g>
    <g
       id="g4389"
       inkscape:export-filename="/home/lenik/tasks/22-qt/copyword/qml/contents/images/sky.png"
       inkscape:export-xdpi="180"
       inkscape:export-ydpi="180"
       transform="translate(-23.529407,-411.76471)">
      <rect
         inkscape:export-ydpi="180"
         inkscape:export-xdpi="180"
         inkscape:export-filename="/home/lenik/tasks/22-qt/copyword/qml/contents/images/sky.png"
         style="fill:#87cefa;fill-opacity:1;fill-rule:nonzero;stroke:none;display:inline"
         id="rect4386"
         width="240"
         height="120"
         x="49.913422"
         y="767.29474" />
      <g
         inkscape:export-ydpi="180"
         inkscape:export-xdpi="180"
         inkscape:export-filename="/home/lenik/tasks/22-qt/copyword/qml/contents/images/sky.png"
         transform="matrix(0.33278563,0,0,0.33299779,60.478126,366.59869)"
         id="g4364">
        <path
           style="fill:#f0f8ff;stroke:none"
           d="m 559.02269,1368.9119 c 7.75547,0.2193 14.1338,6.0117 16.73017,13.1384 0.98768,5.9218 4.11581,9.1558 9.87985,10.4629 5.59852,2.906 12.08567,9.726 6.53799,15.8661 -6.65895,8.494 -18.92368,8.4956 -28.64013,6.8815 -6.72925,-1.1368 -8.39052,8.7825 -13.2946,12.0869 2.41925,4.4502 12.86206,7.2128 17.49016,12.3473 5.47084,4.4248 11.03919,9.539 13.25295,16.3033 2.12764,7.5986 -3.62195,14.8838 -10.80641,16.8447 -10.39903,3.0805 -21.28762,3.3739 -32.04446,3.144 -5.53046,2.6327 -10.21439,7.419 -16.34497,9.1511 -7.29612,2.2271 -17.27063,-1.8422 -17.55261,-10.3795 -1.00154,-4.1369 4.85951,-8.3096 -1.89477,-8.8388 -3.0189,-2.3095 -6.02236,-1.6203 -9.18233,0.083 -10.74035,3.4234 -22.34061,4.8073 -33.46033,2.6651 -8.06668,-1.3435 -16.11842,-8.2536 -14.70006,-17.1049 -0.3286,-6.4547 3.61016,-12.2745 6.26731,-17.2091 -6.21274,2.0812 -15.39706,-2.3423 -13.69021,-9.8278 0.66136,-4.2017 5.78807,-6.6275 1.46792,-10.3275 -2.63363,-5.5707 -3.59178,-12.5978 -1.05149,-18.323 4.74204,-6.1326 13.05679,-8.5503 20.48847,-6.7879 15.60245,2.0008 29.49375,9.9941 43.22566,17.0946 6.21049,0.6283 12.65009,-1.6788 18.93726,-2.2175 3.26233,-1.9624 12.41746,-0.6427 12.58666,-4.1643 -2.91445,-4.971 -4.24803,-13.642 2.25914,-16.3658 2.71717,-1.8263 7.80614,0.3734 8.34947,-3.9041 2.64034,-5.5968 8.4303,-9.5227 14.42938,-10.619 0.25295,0 0.50981,-0.01 0.75998,0 z"
           id="path3262"
           inkscape:connector-curvature="0"
           sodipodi:nodetypes="cccccccccccccccccccccccccccc" />
        <path
           inkscape:connector-curvature="0"
           id="path3275"
           d="m 558.2685,1368.9097 c 8.0947,-0.149 14.80583,5.7808 17.48595,13.1374 0.98769,5.9218 4.12017,9.161 9.88421,10.4681 5.59852,2.906 12.0792,9.7289 6.53152,15.869 -6.65895,8.4941 -18.92271,8.4956 -28.63915,6.8814 -6.72926,-1.1368 -8.39294,8.7796 -13.29702,12.084 2.41924,4.4502 12.8661,7.2136 17.4942,12.348 5.47084,4.4248 11.03805,9.5343 13.25182,16.2986 2.12764,7.5986 -3.62068,14.8898 -10.80514,16.8507 -10.39903,3.0805 -21.29022,3.3658 -32.04706,3.1359 -5.53046,2.6328 -10.21042,7.4233 -16.341,9.1555 -7.29613,2.2271 -17.27434,-1.8386 -17.55635,-10.376 -1.00154,-4.1368 4.86136,-8.3082 -1.8929,-8.8374 -3.0189,-2.3095 -6.02538,-1.6203 -9.18533,0.083 -10.74035,3.4234 -22.33353,4.8 -33.45327,2.6578 -8.06665,-1.3435 -16.11882,-8.2503 -14.70045,-17.1016 -0.32862,-6.4547 3.60347,-12.2798 6.26064,-17.2144 -6.21274,2.0812 -15.39607,-2.3323 -13.68919,-9.8178 0.66136,-4.2017 5.79054,-6.6292 1.47037,-10.3291 -2.63362,-5.5708 -3.59621,-12.5982 -1.05591,-18.3235 4.74203,-6.1326 13.05858,-8.5566 20.49027,-6.7941 15.60245,2.0007 29.49999,9.9944 43.23189,17.0949 6.2105,0.6283 12.65008,-1.6788 18.93725,-2.2175 3.26233,-1.9623 12.40859,-0.6376 12.57779,-4.1592 -2.91446,-4.971 -4.2487,-13.6408 2.25847,-16.3646 2.71717,-1.8263 7.80582,0.3683 8.34915,-3.9092 2.64033,-5.5968 8.44016,-9.5238 14.43924,-10.6202 z m 0.83286,2.1967 c -6.61762,1.2873 -12.99989,5.8911 -13.8924,12.9899 -1.38995,6.1463 1.43149,15.2905 -6.42642,17.8604 -10.16447,3.9849 -21.24137,4.6031 -31.87917,6.6799 -14.66134,2.0179 -29.39258,5.6289 -42.46745,12.7228 -3.63659,1.7645 -8.81797,6.9685 -1.27558,6.0701 5.84784,-0.8321 19.1087,-2.264 13.40495,7.5357 -6.72362,3.4087 -14.64316,1.9563 -21.70731,0.4904 -4.04926,3.2777 -9.65747,11.4554 -0.39398,11.1943 6.8013,2.4778 7.61694,11.9779 2.89257,16.7587 -1.43039,4.315 9.01882,3.2366 12.70278,3.9462 8.47366,0.1147 16.90408,-1.9732 24.91144,-4.5709 -7.20864,-4.011 -3.62456,-13.6035 2.60713,-16.6599 6.34733,-5.5639 13.7955,-9.8108 21.1886,-13.8068 7.56201,-3.3443 15.41634,-8.2469 24.03563,-6.0464 3.3414,1.765 5.90616,0.2317 7.69442,-2.9278 2.66177,-4.1839 10.16159,-8.8758 3.34948,-12.6187 -2.06434,-6.9654 6.5506,-10.478 10.60578,-14.5879 3.37813,-3.618 13.92537,-3.4689 10.09917,-10.153 -1.93351,-6.8882 -6.81815,-13.5863 -14.37247,-14.5828 -0.35906,-0.098 -0.71811,-0.1961 -1.07717,-0.2942 z m -18.05233,13.6173 c -8.62127,-0.8402 -9.41809,9.6902 -4.98678,14.825 6.88401,1.0684 6.40399,-8.4313 6.05809,-13.2359 -0.0319,-0.6198 -0.10999,-1.7743 -1.07131,-1.5891 z m -87.85678,6.486 c -6.25541,-0.2814 -14.59015,3.682 -14.30445,10.8792 -0.44975,11.2597 7.84089,20.0173 15.24142,27.4429 2.45175,-6.3169 8.1642,-10.4556 14.28886,-12.9039 9.17053,-4.8239 19.48449,-6.6324 29.33241,-9.3023 -9.92811,-6.7536 -21.3743,-11.2552 -32.85916,-14.6616 -3.83501,-0.8762 -7.7633,-1.4008 -11.69908,-1.4543 z m 124.70062,1.4679 c -8.2642,1.4142 -14.95148,7.3562 -20.61072,13.1681 -4.91347,7.3994 8.69121,7.1112 13.01187,8.1536 8.00958,0.2887 17.87937,-1.7874 21.53577,-9.8296 0.12527,-6.3541 -7.23223,-10.2338 -12.68863,-11.4253 l -1.24829,-0.067 z m -51.87705,18.1252 c 9.21994,4.8033 -7.62598,5.1519 0,0 z m -7.31879,2.7276 c 8.17655,4.8086 -7.10093,4.1563 0,0 z m -7.6936,2.2696 c 6.7404,1.4111 -2.59484,7.6981 -2.28298,1.1824 0.50092,-0.7452 1.39755,-1.1675 2.28298,-1.1824 z m 0.0417,1.7802 c -0.90833,0.7689 1.41117,0.6309 0,0 z m -7.28757,0.5518 c 7.65676,1.8489 -3.16225,8.2516 -2.3603,1.3775 0.45411,-0.8575 1.4212,-1.3309 2.3603,-1.3775 z m 0.24986,1.9989 c -1.73475,0.8429 1.67236,0.6789 0,0 z m -8.37029,0.7391 c 9.57748,2.6158 -6.55134,8.4686 -1.62092,0.3724 l 0.73416,-0.2754 0.88676,-0.097 0,0 z m -51.81456,1.3743 c -4.4926,2.5785 2.0748,10.8365 3.18058,4.1422 -0.59317,-1.5733 -1.56519,-3.4473 -3.18058,-4.1422 z m 51.81456,0.5518 c -2.70277,1.8809 3.60934,1.095 0,0 z m -8.38068,1.4054 c 7.42102,0.7659 -0.48073,10.0154 -2.73253,3.072 -0.67238,-1.755 1.01393,-3.3135 2.73253,-3.072 z m 0.26026,1.5929 c -4.30461,2.4715 4.22155,2.2562 0,0 z m 49.88859,2.332 c -7.29842,0.5679 -13.70933,4.8619 -20.23575,7.872 -8.20702,4.7519 -16.95036,9.4615 -23.03527,16.9078 -3.32256,7.5852 6.90901,9.4043 11.8924,11.7853 17.48666,7.4327 36.94686,11.0017 55.84654,7.6429 6.37814,-1.0887 14.95829,-3.1497 16.26455,-10.6519 2.0874,-8.3348 -5.12608,-14.2977 -10.67615,-19.1594 -8.45312,-6.7378 -18.19822,-13.0687 -29.14572,-14.3761 l -0.9106,-0.021 z m -64.1514,0.4476 c -5.21353,0.7753 -11.34777,0.5148 -16.09927,0.5355 -4.61786,5.8717 4.60325,5.8308 8.64207,5.8559 4.11229,1.7257 16.2221,-2.7472 7.4572,-6.3914 z m -23.67417,0.1354 c -1.87448,2.2468 -6.59512,4.0721 -0.88094,3.6127 4.18681,-0.2936 3.9756,-1.4115 0.88094,-3.6127 z m -1.64491,18.3542 c -1.3487,5.7741 -0.51327,12.5569 4.77082,16.1307 5.87309,0.58 7.5232,-10.2934 2.78743,-13.6113 -1.98305,-2.0556 -4.9189,-2.1605 -7.55825,-2.5194 z m 61.40293,21.54 c -1.68025,1.2504 -2.08546,2.5351 0,0 z m 2.41531,1.0307 c -5.12815,4.0502 0.96772,12.6641 6.66389,10.0769 7.60451,-4.1835 -0.34614,-9.7489 -5.83392,-9.8253 -0.27665,-0.084 -0.55332,-0.1678 -0.82997,-0.2516 z m 13.31543,3.8311 c -0.89866,4.7223 -5.91294,12.0137 -12.30786,8.3495 -2.80492,-1.5994 -4.47598,-2.8617 -0.93118,-0.058 5.70118,3.0142 12.72357,0.7854 17.42022,-3.1521 3.28516,-1.4773 6.08383,-4.6134 0.41963,-4.034 -1.56245,-0.2504 -3.03675,-0.8675 -4.60081,-1.1056 z"
           style="fill:#000000" />
      </g>
      <g
         inkscape:export-ydpi="180"
         inkscape:export-xdpi="180"
         inkscape:export-filename="/home/lenik/tasks/22-qt/copyword/qml/contents/images/sky.png"
         transform="matrix(0.418172,0,0,0.5258846,-323.40915,-154.6694)"
         id="g4357">
        <path
           style="fill:#ffffff"
           d="m 992.84375,1852.0938 c -3.7724,0.2996 -7.61467,1.8886 -9.65625,5.1874 -6.04828,-2.7376 -14.40641,-0.5758 -16.375,6.3126 -1.63589,3.7814 -7.59173,3.9484 -6.71875,8.9687 0.68893,3.7767 2.25123,7.5146 3.03125,11.375 2.11463,4.5768 8.96509,0.8071 10.625,5.1563 3.19437,4.0904 9.33702,4.8868 13.875,2.75 4.48279,4.5543 11.55318,4.1066 16.6562,1.0937 3.7756,0.324 7.3438,3.2677 11.4063,1.4375 2.9286,-0.7464 4.6045,-4.0533 7.7187,-1.9375 5.0281,1.5054 10.8722,-0.1934 13.3438,-4.9375 4.078,-2.4807 10.0214,-5.0725 8.9688,-10.9375 1.7078,-3.1391 3.3641,-7.5551 -0.3438,-10 -6.1758,-3.0621 -10.4786,-11.1024 -18.3438,-9.25 -5.56,0.1374 -9.0273,-5.6663 -14.8124,-4.75 -3.594,-0.7963 -6.9582,2.3204 -9.7771,2.238 -2.75696,-1.9358 -6.21692,-3.0139 -9.59795,-2.7067 z"
           id="path3568"
           inkscape:connector-curvature="0" />
        <path
           style="fill:#dae5f5;fill-opacity:1"
           d="m 993.35265,1850.034 c -3.97534,0.3335 -8.41532,1.5559 -10.87496,4.9377 -5.01613,-1.6746 -11.07943,-0.8626 -14.75971,3.1949 -2.50992,2.8893 -2.86387,6.8461 -7.01438,8.0788 -2.78121,2.1401 -2.88612,6.1934 -2.35122,9.3717 2.53925,2.9767 1.15941,7.2159 3.67769,10.2163 2.19752,2.8355 5.88581,3.0277 9.16637,2.9816 2.90408,5.5618 10.45717,7.5214 16.09375,5.2813 4.14226,3.5645 10.24985,4.1149 15.15901,1.8698 1.4222,-0.8947 2.7041,-1.6884 4.1534,-0.4321 4.5653,2.238 10.4378,1.6525 14.2188,-1.8438 5.2219,2.0036 11.9322,1.8239 15.8653,-2.6216 1.0618,-3.3341 4.1559,-3.7202 6.8212,-5.3161 2.9162,-1.9131 4.5096,-5.4926 4.2501,-8.9362 0.7538,-2.7002 3.244,-5.4733 1.3445,-8.375 -0.992,-3.718 -5.007,-4.5814 -7.5632,-6.4379 -3.4503,-5.3615 -10.52,-8.1321 -16.7014,-6.5949 -3.2396,-2.3348 -6.8643,-4.8244 -11.1708,-4.7435 -3.5733,-0.2932 -7.4003,0.083 -10.347,2.3069 -2.9207,-1.9888 -6.41856,-3.0566 -9.96745,-2.9379 z m 0,1.625 c 3.54469,-0.07 7.30245,0.9148 9.81245,3.4688 2.4225,-2.1478 5.6614,-3.0932 8.9017,-2.9353 4.9146,-0.089 10.2849,1.9322 12.4216,6.6798 2.8178,2.56 -0.1184,-3.1993 2.9138,-1.9814 3.6973,-0.4597 7.4013,0.6194 10.1944,3.1122 2.3265,2.225 3.546,5.0734 7.0853,5.4987 2.787,1.7298 4.489,5.8237 2.3346,8.6692 -3.3091,-2.3851 -0.7138,2.6741 -0.9594,4.3886 -0.3826,3.9869 -3.9148,7.2601 -7.8821,7.5408 -1.9895,2.7956 -5.3022,4.9842 -9.1303,4.6888 -3.688,1.1828 -5.4587,-4.0075 -8.4959,-1.3588 -3.4551,0.2491 -7.6674,-0.5462 -9.4462,-3.8648 -1.2696,-2.3535 -4.9323,2.2535 -7.5005,0.875 -3.101,1.1734 -6.33806,-3.0737 -8.84086,-1.0747 -3.14189,1.3075 -7.31035,0.9741 -9.9083,-1.3419 -1.54505,-2.1257 -5.65777,0.5994 -8.14064,-0.6883 -3.3112,-0.637 -5.07333,-3.8507 -6.34418,-6.4275 -4.22213,-0.6115 -5.45861,-5.8469 -4.94687,-9.4597 1.78543,-2.6644 0.98667,-6.3362 3.8097,-8.6007 2.98854,-3.0124 7.6748,-3.4131 11.6236,-2.5835 0.85632,0.7993 -0.54416,5.31 1.7037,3.1711 0.45091,-5.31 6.19624,-7.5322 10.7944,-7.7764 z"
           id="path3553"
           inkscape:connector-curvature="0" />
        <path
           style="fill:#8391b5;fill-opacity:1;stroke:none"
           d="m 994.30421,1850.3461 c -4.36405,-0.096 -8.69881,1.6509 -11.625,4.9062 -5.06824,-1.6465 -11.25325,-0.8575 -14.78214,3.4582 -2.09567,2.8619 -2.75029,6.4425 -6.55569,7.5789 -3.32431,2.7745 -4.26815,8.4805 -1.13046,11.7346 0.76888,3.5525 0.82715,8.1296 4.97741,9.6582 2.03646,0.9854 4.3322,0.7503 6.52248,0.8199 2.65349,5.7979 10.43153,7.4959 16,5.2188 4.46068,4.516 11.99,3.9505 17.03129,0.75 1.9776,0.4508 3.8829,1.8047 6.0303,1.9464 3.6702,0.6564 7.4838,-0.6114 10.1884,-3.1344 5.296,2.3197 12.567,1.9724 16.1319,-3.1143 1.1472,-4.0209 6.4131,-3.0226 8.3686,-6.5229 2.8473,-2.4602 1.2876,-6.5084 3.1622,-9.2798 2.4743,-3.4919 -0.101,-8.3029 -3.4312,-10.1564 -3.9311,-0.7259 -5.091,-5.02 -8.5358,-6.6213 -3.4353,-2.0151 -7.638,-2.857 -11.5385,-1.8759 -3.0543,-1.7756 -6.0478,-4.339 -9.8495,-4.6375 -4.063,-0.7854 -8.2674,0.1008 -11.8077,2.1769 -2.8003,-1.6337 -5.83569,-3.0179 -9.15659,-2.9056 z m -0.2812,1.0624 c 3.6205,-0.5666 7.04059,1.8353 9.71579,3.1551 4.0171,-3.5145 9.991,-3.0765 14.7745,-1.6255 2.8946,0.9434 5.2262,3.1316 6.5676,5.835 1.8504,1.7828 -1.107,-3.5041 2.0063,-2.3636 5.5998,-0.5118 11.6335,2.1651 14.2004,7.3226 4.2034,0.814 8.6633,4.8723 6.8123,9.4994 -0.4116,1.8129 -1.4501,1.1516 -2.2808,0.9263 1.1097,3.143 1.1601,6.9342 -1.4956,9.3719 -2.4315,2.9369 -7.3142,1.9798 -8.3531,6.2566 -3.2652,4.0398 -9.2298,4.4952 -13.7912,2.6848 0.6242,-1.0427 2.1652,-5.0598 -0.1779,-2.6637 -2.0457,3.6255 -5.9716,6.1338 -10.2295,5.4657 -3.8356,-0.3019 -7.1222,-3.4603 -10.5946,-0.3346 -3.93459,1.2933 -9.11151,1.463 -12.17251,-1.732 0.56528,-3.3197 -3.80111,1.207 -5.55948,0.2789 -3.97739,0.1294 -9.03271,-1.1944 -10.5157,-5.2961 0.0293,-2.1446 -1.36946,-2.5746 -2.24107,-1.0208 -4.1139,1.0664 -9.28674,-2.1816 -8.69633,-6.7605 0.42696,-3.2471 -3.85898,-5.145 -2.59305,-8.6899 0.50137,-3.1914 3.17141,-5.6578 6.25788,-6.3639 1.33324,-2.3981 2.01054,-6.685 5.49855,-8.1511 2.76156,-1.6725 9.36166,-3.2341 10.64725,0.061 -0.95325,1.8796 0.5308,3.5708 0.97037,0.7691 1.31367,-4.7585 6.78948,-6.6328 11.2499,-6.6245 z m -23.8125,26.125 c -0.99476,3.2807 3.19506,6.297 6.09923,7.2268 2.3199,0.7555 6.84863,1.0721 7.89644,-1.0139 -3.62274,-0.1757 -7.87663,1.0029 -10.77683,-1.8817 -1.83359,-0.9346 -1.71829,-3.4457 -3.21884,-4.3312 z m 25.7813,7.375 c 0.4878,2.6495 5.42039,3.0479 7.98739,3.3643 2.1322,-0.1618 6.7876,-0.8157 6.6218,-3.1352 -4.0126,2.0308 -8.8988,2.4158 -12.98419,0.2703 -0.5184,-0.2212 -1.0339,-0.542 -1.625,-0.4994 z"
           id="path3549"
           inkscape:connector-curvature="0" />
      </g>
      <g
         inkscape:export-ydpi="180"
         inkscape:export-xdpi="180"
         inkscape:export-filename="/home/lenik/tasks/22-qt/copyword/qml/contents/images/sky.png"
         id="g4368"
         transform="matrix(0.58894477,0,0,0.56731505,-439.15081,-262.65768)">
        <path
           inkscape:connector-curvature="0"
           id="path4370"
           d="m 992.84375,1852.0938 c -3.7724,0.2996 -7.61467,1.8886 -9.65625,5.1874 -6.04828,-2.7376 -14.40641,-0.5758 -16.375,6.3126 -1.63589,3.7814 -7.59173,3.9484 -6.71875,8.9687 0.68893,3.7767 2.25123,7.5146 3.03125,11.375 2.11463,4.5768 8.96509,0.8071 10.625,5.1563 3.19437,4.0904 9.33702,4.8868 13.875,2.75 4.48279,4.5543 11.55318,4.1066 16.6562,1.0937 3.7756,0.324 7.3438,3.2677 11.4063,1.4375 2.9286,-0.7464 4.6045,-4.0533 7.7187,-1.9375 5.0281,1.5054 10.8722,-0.1934 13.3438,-4.9375 4.078,-2.4807 10.0214,-5.0725 8.9688,-10.9375 1.7078,-3.1391 3.3641,-7.5551 -0.3438,-10 -6.1758,-3.0621 -10.4786,-11.1024 -18.3438,-9.25 -5.56,0.1374 -9.0273,-5.6663 -14.8124,-4.75 -3.594,-0.7963 -6.9582,2.3204 -9.7771,2.238 -2.75696,-1.9358 -6.21692,-3.0139 -9.59795,-2.7067 z"
           style="fill:#ffffff" />
        <path
           inkscape:connector-curvature="0"
           id="path4372"
           d="m 993.35265,1850.034 c -3.97534,0.3335 -8.41532,1.5559 -10.87496,4.9377 -5.01613,-1.6746 -11.07943,-0.8626 -14.75971,3.1949 -2.50992,2.8893 -2.86387,6.8461 -7.01438,8.0788 -2.78121,2.1401 -2.88612,6.1934 -2.35122,9.3717 2.53925,2.9767 1.15941,7.2159 3.67769,10.2163 2.19752,2.8355 5.88581,3.0277 9.16637,2.9816 2.90408,5.5618 10.45717,7.5214 16.09375,5.2813 4.14226,3.5645 10.24985,4.1149 15.15901,1.8698 1.4222,-0.8947 2.7041,-1.6884 4.1534,-0.4321 4.5653,2.238 10.4378,1.6525 14.2188,-1.8438 5.2219,2.0036 11.9322,1.8239 15.8653,-2.6216 1.0618,-3.3341 4.1559,-3.7202 6.8212,-5.3161 2.9162,-1.9131 4.5096,-5.4926 4.2501,-8.9362 0.7538,-2.7002 3.244,-5.4733 1.3445,-8.375 -0.992,-3.718 -5.007,-4.5814 -7.5632,-6.4379 -3.4503,-5.3615 -10.52,-8.1321 -16.7014,-6.5949 -3.2396,-2.3348 -6.8643,-4.8244 -11.1708,-4.7435 -3.5733,-0.2932 -7.4003,0.083 -10.347,2.3069 -2.9207,-1.9888 -6.41856,-3.0566 -9.96745,-2.9379 z m 0,1.625 c 3.54469,-0.07 7.30245,0.9148 9.81245,3.4688 2.4225,-2.1478 5.6614,-3.0932 8.9017,-2.9353 4.9146,-0.089 10.2849,1.9322 12.4216,6.6798 2.8178,2.56 -0.1184,-3.1993 2.9138,-1.9814 3.6973,-0.4597 7.4013,0.6194 10.1944,3.1122 2.3265,2.225 3.546,5.0734 7.0853,5.4987 2.787,1.7298 4.489,5.8237 2.3346,8.6692 -3.3091,-2.3851 -0.7138,2.6741 -0.9594,4.3886 -0.3826,3.9869 -3.9148,7.2601 -7.8821,7.5408 -1.9895,2.7956 -5.3022,4.9842 -9.1303,4.6888 -3.688,1.1828 -5.4587,-4.0075 -8.4959,-1.3588 -3.4551,0.2491 -7.6674,-0.5462 -9.4462,-3.8648 -1.2696,-2.3535 -4.9323,2.2535 -7.5005,0.875 -3.101,1.1734 -6.33806,-3.0737 -8.84086,-1.0747 -3.14189,1.3075 -7.31035,0.9741 -9.9083,-1.3419 -1.54505,-2.1257 -5.65777,0.5994 -8.14064,-0.6883 -3.3112,-0.637 -5.07333,-3.8507 -6.34418,-6.4275 -4.22213,-0.6115 -5.45861,-5.8469 -4.94687,-9.4597 1.78543,-2.6644 0.98667,-6.3362 3.8097,-8.6007 2.98854,-3.0124 7.6748,-3.4131 11.6236,-2.5835 0.85632,0.7993 -0.54416,5.31 1.7037,3.1711 0.45091,-5.31 6.19624,-7.5322 10.7944,-7.7764 z"
           style="fill:#dae5f5;fill-opacity:1" />
        <path
           inkscape:connector-curvature="0"
           id="path4374"
           d="m 994.30421,1850.3461 c -4.36405,-0.096 -8.69881,1.6509 -11.625,4.9062 -5.06824,-1.6465 -11.25325,-0.8575 -14.78214,3.4582 -2.09567,2.8619 -2.75029,6.4425 -6.55569,7.5789 -3.32431,2.7745 -4.26815,8.4805 -1.13046,11.7346 0.76888,3.5525 0.82715,8.1296 4.97741,9.6582 2.03646,0.9854 4.3322,0.7503 6.52248,0.8199 2.65349,5.7979 10.43153,7.4959 16,5.2188 4.46068,4.516 11.99,3.9505 17.03129,0.75 1.9776,0.4508 3.8829,1.8047 6.0303,1.9464 3.6702,0.6564 7.4838,-0.6114 10.1884,-3.1344 5.296,2.3197 12.567,1.9724 16.1319,-3.1143 1.1472,-4.0209 6.4131,-3.0226 8.3686,-6.5229 2.8473,-2.4602 1.2876,-6.5084 3.1622,-9.2798 2.4743,-3.4919 -0.101,-8.3029 -3.4312,-10.1564 -3.9311,-0.7259 -5.091,-5.02 -8.5358,-6.6213 -3.4353,-2.0151 -7.638,-2.857 -11.5385,-1.8759 -3.0543,-1.7756 -6.0478,-4.339 -9.8495,-4.6375 -4.063,-0.7854 -8.2674,0.1008 -11.8077,2.1769 -2.8003,-1.6337 -5.83569,-3.0179 -9.15659,-2.9056 z m -0.2812,1.0624 c 3.6205,-0.5666 7.04059,1.8353 9.71579,3.1551 4.0171,-3.5145 9.991,-3.0765 14.7745,-1.6255 2.8946,0.9434 5.2262,3.1316 6.5676,5.835 1.8504,1.7828 -1.107,-3.5041 2.0063,-2.3636 5.5998,-0.5118 11.6335,2.1651 14.2004,7.3226 4.2034,0.814 8.6633,4.8723 6.8123,9.4994 -0.4116,1.8129 -1.4501,1.1516 -2.2808,0.9263 1.1097,3.143 1.1601,6.9342 -1.4956,9.3719 -2.4315,2.9369 -7.3142,1.9798 -8.3531,6.2566 -3.2652,4.0398 -9.2298,4.4952 -13.7912,2.6848 0.6242,-1.0427 2.1652,-5.0598 -0.1779,-2.6637 -2.0457,3.6255 -5.9716,6.1338 -10.2295,5.4657 -3.8356,-0.3019 -7.1222,-3.4603 -10.5946,-0.3346 -3.93459,1.2933 -9.11151,1.463 -12.17251,-1.732 0.56528,-3.3197 -3.80111,1.207 -5.55948,0.2789 -3.97739,0.1294 -9.03271,-1.1944 -10.5157,-5.2961 0.0293,-2.1446 -1.36946,-2.5746 -2.24107,-1.0208 -4.1139,1.0664 -9.28674,-2.1816 -8.69633,-6.7605 0.42696,-3.2471 -3.85898,-5.145 -2.59305,-8.6899 0.50137,-3.1914 3.17141,-5.6578 6.25788,-6.3639 1.33324,-2.3981 2.01054,-6.685 5.49855,-8.1511 2.76156,-1.6725 9.36166,-3.2341 10.64725,0.061 -0.95325,1.8796 0.5308,3.5708 0.97037,0.7691 1.31367,-4.7585 6.78948,-6.6328 11.2499,-6.6245 z m -23.8125,26.125 c -0.99476,3.2807 3.19506,6.297 6.09923,7.2268 2.3199,0.7555 6.84863,1.0721 7.89644,-1.0139 -3.62274,-0.1757 -7.87663,1.0029 -10.77683,-1.8817 -1.83359,-0.9346 -1.71829,-3.4457 -3.21884,-4.3312 z m 25.7813,7.375 c 0.4878,2.6495 5.42039,3.0479 7.98739,3.3643 2.1322,-0.1618 6.7876,-0.8157 6.6218,-3.1352 -4.0126,2.0308 -8.8988,2.4158 -12.98419,0.2703 -0.5184,-0.2212 -1.0339,-0.542 -1.625,-0.4994 z"
           style="fill:#8391b5;fill-opacity:1;stroke:none" />
      </g>
    </g>
  </g>
</svg>
