<?xml version="1.0" encoding="UTF-8" standalone="no"?>
<!-- Created with Inkscape (http://www.inkscape.org/) -->

<svg
   xmlns:dc="http://purl.org/dc/elements/1.1/"
   xmlns:cc="http://creativecommons.org/ns#"
   xmlns:rdf="http://www.w3.org/1999/02/22-rdf-syntax-ns#"
   xmlns:svg="http://www.w3.org/2000/svg"
   xmlns="http://www.w3.org/2000/svg"
   xmlns:xlink="http://www.w3.org/1999/xlink"
   xmlns:sodipodi="http://sodipodi.sourceforge.net/DTD/sodipodi-0.dtd"
   xmlns:inkscape="http://www.inkscape.org/namespaces/inkscape"
   width="744.09448819"
   height="1052.3622047"
   id="svg2"
   version="1.1"
   inkscape:version="0.48.3.1 r9886"
   sodipodi:docname="icons.svg">
  <defs
     id="defs4">
    <linearGradient
       id="linearGradient6270">
      <stop
         style="stop-color:#fa8072;stop-opacity:1;"
         offset="0"
         id="stop6272" />
      <stop
         style="stop-color:#ffffff;stop-opacity:1"
         offset="1"
         id="stop6274" />
    </linearGradient>
    <linearGradient
       id="linearGradient3929">
      <stop
         style="stop-color:#ffffff;stop-opacity:1;"
         offset="0"
         id="stop3931" />
      <stop
         style="stop-color:#ffffff;stop-opacity:0;"
         offset="1"
         id="stop3933" />
    </linearGradient>
    <radialGradient
       inkscape:collect="always"
       xlink:href="#linearGradient3929"
       id="radialGradient4116"
       gradientUnits="userSpaceOnUse"
       gradientTransform="matrix(-0.7604264,0,0,-0.5591994,469.76082,1132.5224)"
       cx="243.54901"
       cy="593.62787"
       fx="243.54901"
       fy="593.62787"
       r="99.462334" />
    <radialGradient
       inkscape:collect="always"
       xlink:href="#linearGradient3929"
       id="radialGradient4190"
       gradientUnits="userSpaceOnUse"
       gradientTransform="matrix(-0.7604264,0,0,-0.5591994,469.76082,1132.5224)"
       cx="243.54901"
       cy="593.62787"
       fx="243.54901"
       fy="593.62787"
       r="99.462334" />
    <filter
       id="filter4706"
       inkscape:label="Smooth edges"
       inkscape:menu="Morphology"
       inkscape:menu-tooltip="Smooth the outside of shapes and pictures without altering their contents"
       color-interpolation-filters="sRGB">
      <feGaussianBlur
         id="feGaussianBlur4708"
         stdDeviation="3"
         result="result1" />
      <feComposite
         id="feComposite4710"
         in2="SourceGraphic"
         operator="arithmetic"
         k2="2"
         k4="-1"
         in="result1"
         result="result2" />
      <feColorMatrix
         id="feColorMatrix4712"
         values="0 0 0 0 0 0 1 0 0 0 0 0 1 0 0 0 0 0 8 -6 "
         result="result3" />
      <feComposite
         id="feComposite4714"
         in2="result3"
         in="SourceGraphic"
         operator="in" />
    </filter>
    <linearGradient
       inkscape:collect="always"
       xlink:href="#linearGradient3929"
       id="linearGradient6719"
       gradientUnits="userSpaceOnUse"
       gradientTransform="matrix(0.99240164,0,0,0.98596837,-20.959557,-692.14438)"
       x1="305.33853"
       y1="1526.7463"
       x2="264.13367"
       y2="1450.6758" />
    <linearGradient
       inkscape:collect="always"
       xlink:href="#linearGradient3929"
       id="linearGradient6775"
       gradientUnits="userSpaceOnUse"
       gradientTransform="matrix(0.99240164,0,0,0.98596837,-20.959557,-692.14438)"
       x1="305.33853"
       y1="1526.7463"
       x2="264.13367"
       y2="1450.6758" />
    <filter
       id="filter7615"
       x="-0.25"
       width="1.5"
       y="-0.25"
       height="1.5"
       inkscape:menu="Non realistic 3D shaders"
       inkscape:menu-tooltip="Non realistic frosted glass imitation"
       inkscape:label="Frosted glass"
       color-interpolation-filters="sRGB">
      <feGaussianBlur
         id="feGaussianBlur7617"
         result="result8"
         stdDeviation="7" />
      <feComposite
         id="feComposite7619"
         in2="result8"
         in="result8"
         operator="xor"
         result="result6" />
      <feDisplacementMap
         id="feDisplacementMap7621"
         in2="result6"
         result="result4"
         scale="75"
         yChannelSelector="A"
         xChannelSelector="A"
         in="result6" />
      <feComposite
         id="feComposite7623"
         in2="result4"
         k1="2"
         in="SourceGraphic"
         operator="arithmetic"
         result="result2" />
      <feComposite
         id="feComposite7625"
         in2="result2"
         operator="in"
         in="result6"
         result="fbSourceGraphic" />
    </filter>
    <filter
       id="filter7627"
       x="-0.25"
       width="1.5"
       y="-0.25"
       height="1.5"
       inkscape:menu="Non realistic 3D shaders"
       inkscape:menu-tooltip="Non realistic frosted glass imitation"
       inkscape:label="Frosted glass"
       color-interpolation-filters="sRGB">
      <feGaussianBlur
         id="feGaussianBlur7629"
         result="result8"
         stdDeviation="7" />
      <feComposite
         id="feComposite7631"
         in2="result8"
         in="result8"
         operator="xor"
         result="result6" />
      <feDisplacementMap
         id="feDisplacementMap7633"
         in2="result6"
         result="result4"
         scale="75"
         yChannelSelector="A"
         xChannelSelector="A"
         in="result6" />
      <feComposite
         id="feComposite7635"
         in2="result4"
         k1="2"
         in="SourceGraphic"
         operator="arithmetic"
         result="result2" />
      <feComposite
         id="feComposite7637"
         in2="result2"
         operator="in"
         in="result6"
         result="fbSourceGraphic" />
    </filter>
    <filter
       id="filter7639"
       x="-0.25"
       width="1.5"
       y="-0.25"
       height="1.5"
       inkscape:menu="Non realistic 3D shaders"
       inkscape:menu-tooltip="Non realistic frosted glass imitation"
       inkscape:label="Frosted glass"
       color-interpolation-filters="sRGB">
      <feGaussianBlur
         id="feGaussianBlur7641"
         result="result8"
         stdDeviation="7" />
      <feComposite
         id="feComposite7643"
         in2="result8"
         in="result8"
         operator="xor"
         result="result6" />
      <feDisplacementMap
         id="feDisplacementMap7645"
         in2="result6"
         result="result4"
         scale="75"
         yChannelSelector="A"
         xChannelSelector="A"
         in="result6" />
      <feComposite
         id="feComposite7647"
         in2="result4"
         k1="2"
         in="SourceGraphic"
         operator="arithmetic"
         result="result2" />
      <feComposite
         id="feComposite7649"
         in2="result2"
         operator="in"
         in="result6"
         result="fbSourceGraphic" />
    </filter>
    <filter
       id="filter7651"
       x="-0.25"
       width="1.5"
       y="-0.25"
       height="1.5"
       inkscape:menu="Non realistic 3D shaders"
       inkscape:menu-tooltip="Non realistic frosted glass imitation"
       inkscape:label="Frosted glass"
       color-interpolation-filters="sRGB">
      <feGaussianBlur
         id="feGaussianBlur7653"
         result="result8"
         stdDeviation="7" />
      <feComposite
         id="feComposite7655"
         in2="result8"
         in="result8"
         operator="xor"
         result="result6" />
      <feDisplacementMap
         id="feDisplacementMap7657"
         in2="result6"
         result="result4"
         scale="75"
         yChannelSelector="A"
         xChannelSelector="A"
         in="result6" />
      <feComposite
         id="feComposite7659"
         in2="result4"
         k1="2"
         in="SourceGraphic"
         operator="arithmetic"
         result="result2" />
      <feComposite
         id="feComposite7661"
         in2="result2"
         operator="in"
         in="result6"
         result="fbSourceGraphic" />
    </filter>
    <filter
       id="filter7670"
       x="-0.25"
       width="1.5"
       y="-0.25"
       height="1.5"
       inkscape:menu="Non realistic 3D shaders"
       inkscape:menu-tooltip="Non realistic frosted glass imitation"
       inkscape:label="Frosted glass"
       color-interpolation-filters="sRGB">
      <feGaussianBlur
         id="feGaussianBlur7672"
         result="result8"
         stdDeviation="7" />
      <feComposite
         id="feComposite7674"
         in2="result8"
         in="result8"
         operator="xor"
         result="result6" />
      <feDisplacementMap
         id="feDisplacementMap7676"
         in2="result6"
         result="result4"
         scale="75"
         yChannelSelector="A"
         xChannelSelector="A"
         in="result6" />
      <feComposite
         id="feComposite7678"
         in2="result4"
         k1="2"
         in="SourceGraphic"
         operator="arithmetic"
         result="result2" />
      <feComposite
         id="feComposite7680"
         in2="result2"
         operator="in"
         in="result6"
         result="fbSourceGraphic" />
    </filter>
  </defs>
  <sodipodi:namedview
     id="base"
     pagecolor="#ffffff"
     bordercolor="#666666"
     borderopacity="1.0"
     inkscape:pageopacity="0.0"
     inkscape:pageshadow="2"
     inkscape:zoom="0.23662262"
     inkscape:cx="-436.95468"
     inkscape:cy="804.72847"
     inkscape:document-units="px"
     inkscape:current-layer="layer1"
     showgrid="false"
     inkscape:snap-to-guides="false"
     showguides="true"
     inkscape:guide-bbox="true"
     inkscape:window-width="1077"
     inkscape:window-height="784"
     inkscape:window-x="97"
     inkscape:window-y="91"
     inkscape:window-maximized="0" />
  <metadata
     id="metadata7">
    <rdf:RDF>
      <cc:Work
         rdf:about="">
        <dc:format>image/svg+xml</dc:format>
        <dc:type
           rdf:resource="http://purl.org/dc/dcmitype/StillImage" />
        <dc:title></dc:title>
      </cc:Work>
    </rdf:RDF>
  </metadata>
  <g
     inkscape:label="Layer 1"
     inkscape:groupmode="layer"
     id="layer1">
    <g
       id="g3905"
       inkscape:export-xdpi="19.98"
       inkscape:export-ydpi="19.98"
       inkscape:export-filename="/home/lenik/tasks/22-qt/cookbook/icon80.png"
       transform="translate(-52.018748,-62.824644)">
      <g
         transform="translate(15,-62)"
         id="g3870">
        <path
           style="fill:#dcdcdc;fill-opacity:1;fill-rule:nonzero;stroke:#d3d3d3"
           d="m 203.81726,127.91907 c -22.36387,0.0558 -43.87797,13.4409 -32.125,36.34375 -35.79451,-41.62498 -105.886582,-11.62049 -56.875,40.875 -43.316472,-25.39237 -69.118752,67.14296 9.34375,84.78125 3.85123,0 8.01586,0.0401 12.3125,0.0937 -0.54625,1.87994 -0.84375,3.87084 -0.84375,5.9375 l 0,26.65625 0,92.65625 c 0,11.43974 8.99711,20.65625 20.15625,20.65625 l 102.125,0 c 11.15914,0 20.15625,-9.21651 20.15625,-20.65625 l 0,-90.6875 0,-28.625 c 0,-0.94219 -0.0694,-1.87322 -0.1875,-2.78125 64.34695,-6.07189 78.0566,-100.52864 4.5625,-63.75 60.68374,-46.0873 1.33314,-112.79295 -41.40625,-57.84375 8.34659,-30.42556 -14.85488,-43.71207 -37.21875,-43.65625 z"
           id="path3835"
           inkscape:connector-curvature="0" />
        <g
           id="g3824">
          <path
             id="path3004"
             d="m 267.69479,312.70538 0,-28.625 c 0,-0.94219 -0.0694,-1.87322 -0.1875,-2.78125 64.34695,-6.07189 78.0566,-100.52864 4.5625,-63.75 60.68374,-46.0873 1.33314,-112.7929 -41.40625,-57.8437 8.34659,-30.42556 -14.85488,-43.71207 -37.21875,-43.65625 l 0,0 0,0 c -22.36387,0.0558 -43.87797,13.4409 -32.125,36.34375 -35.79451,-41.62498 -105.886584,-11.62049 -56.875,40.875 -43.316474,-25.39237 -69.118754,67.14296 9.34375,84.78125 3.85123,0 8.01586,0.04 12.3125,0.0937 -0.54625,1.87994 -0.84375,3.87084 -0.84375,5.9375 l 0,26.65625"
             style="fill:#ffffff;fill-opacity:1;fill-rule:nonzero;stroke:#ff8c00;stroke-width:3.5;stroke-miterlimit:4;stroke-dasharray:none"
             inkscape:connector-curvature="0" />
          <path
             id="rect2987"
             d="m 125.25729,310.73663 0,92.65625 c 0,11.43974 8.99711,20.65625 20.15625,20.65625 l 102.125,0 c 11.15914,0 20.15625,-9.21651 20.15625,-20.65625 l 0,-90.6875"
             style="fill:#ffebcd;fill-opacity:1;fill-rule:nonzero;stroke:#ff8c00;stroke-width:3.5;stroke-miterlimit:4;stroke-dasharray:none"
             inkscape:connector-curvature="0" />
          <path
             transform="translate(-93.944184,4.0406104)"
             d="m 272.74119,345.76047 c 0,8.08943 -6.78391,14.64721 -15.15229,14.64721 -8.36838,0 -15.15229,-6.55778 -15.15229,-14.64721 0,-8.08943 6.78391,-14.64721 15.15229,-14.64721 8.36838,0 15.15229,6.55778 15.15229,14.64721 z"
             sodipodi:ry="14.647212"
             sodipodi:rx="15.152288"
             sodipodi:cy="345.76047"
             sodipodi:cx="257.5889"
             id="path3006"
             style="fill:#f5f5f5;fill-opacity:1;fill-rule:nonzero;stroke:#000000;stroke-width:3.5;stroke-miterlimit:4;stroke-opacity:1;stroke-dasharray:none"
             sodipodi:type="arc" />
          <path
             transform="translate(-31.314726,4.0406104)"
             sodipodi:type="arc"
             style="fill:#ffffff;fill-opacity:1;fill-rule:nonzero;stroke:#000000;stroke-width:3.5;stroke-miterlimit:4;stroke-opacity:1;stroke-dasharray:none"
             id="path3008"
             sodipodi:cx="257.5889"
             sodipodi:cy="345.76047"
             sodipodi:rx="15.152288"
             sodipodi:ry="14.647212"
             d="m 272.74119,345.76047 c 0,8.08943 -6.78391,14.64721 -15.15229,14.64721 -8.36838,0 -15.15229,-6.55778 -15.15229,-14.64721 0,-8.08943 6.78391,-14.64721 15.15229,-14.64721 8.36838,0 15.15229,6.55778 15.15229,14.64721 z" />
          <path
             transform="matrix(0.58049586,0,0,0.60019377,18.665786,142.2778)"
             sodipodi:type="arc"
             style="fill:#000000;fill-opacity:1;fill-rule:nonzero;stroke:none"
             id="path3010"
             sodipodi:cx="257.5889"
             sodipodi:cy="345.76047"
             sodipodi:rx="15.152288"
             sodipodi:ry="14.647212"
             d="m 272.74119,345.76047 c 0,8.08943 -6.78391,14.64721 -15.15229,14.64721 -8.36838,0 -15.15229,-6.55778 -15.15229,-14.64721 0,-8.08943 6.78391,-14.64721 15.15229,-14.64721 8.36838,0 15.15229,6.55778 15.15229,14.64721 z" />
          <path
             d="m 272.74119,345.76047 c 0,8.08943 -6.78391,14.64721 -15.15229,14.64721 -8.36838,0 -15.15229,-6.55778 -15.15229,-14.64721 0,-8.08943 6.78391,-14.64721 15.15229,-14.64721 8.36838,0 15.15229,6.55778 15.15229,14.64721 z"
             sodipodi:ry="14.647212"
             sodipodi:rx="15.152288"
             sodipodi:cy="345.76047"
             sodipodi:cx="257.5889"
             id="path3012"
             style="fill:#000000;fill-opacity:1;fill-rule:nonzero;stroke:none"
             sodipodi:type="arc"
             transform="matrix(0.58049586,0,0,0.60019377,82.296046,144.29811)" />
          <path
             sodipodi:nodetypes="sssss"
             inkscape:connector-curvature="0"
             id="path3014"
             d="m 236.3757,388.69196 c 0,10.59994 -18.31656,19.1929 -40.91118,19.1929 -22.59462,0 -40.91117,-8.59296 -40.91117,-19.1929 0,-10.59995 16.29624,6.06091 38.89086,6.06091 22.59462,0 42.93149,-16.66086 42.93149,-6.06091 z"
             style="fill:#ffe4e1;fill-opacity:1;fill-rule:nonzero;stroke:#ff8c00;stroke-width:3.5;stroke-miterlimit:4;stroke-opacity:1;stroke-dasharray:none" />
        </g>
      </g>
      <rect
         ry="21.830603"
         rx="19.910082"
         y="28.621292"
         x="35.23735"
         height="360.42212"
         width="360.42215"
         id="rect3857"
         style="fill:none;stroke:none" />
    </g>
    <g
       id="g4284"
       transform="translate(260.73774,-673.9384)"
       inkscape:export-filename="/home/lenik/tasks/22-qt/et-vortaro/icon.png"
       inkscape:export-xdpi="19.98"
       inkscape:export-ydpi="19.98">
      <g
         transform="matrix(1.5814335,0,0,1.5814335,-222.73009,-597.46248)"
         id="g4206">
        <g
           id="g4166"
           transform="matrix(1.2264195,0,0,1.3381621,-23.832767,-196.88156)">
          <rect
             y="765.01367"
             x="210.79643"
             height="107.761"
             width="162.77339"
             id="rect4131"
             style="fill:#7fff00;fill-opacity:1;fill-rule:nonzero;stroke:none" />
          <rect
             y="764.9848"
             x="210.25038"
             height="55.468071"
             width="58.109409"
             id="rect4133"
             style="fill:#ffffff;fill-opacity:1;fill-rule:nonzero;stroke:none" />
          <path
             transform="matrix(0.33215734,-0.15225289,0.15225289,0.33215734,46.983154,579.85051)"
             inkscape:transform-center-y="-2.0196144"
             inkscape:transform-center-x="3.0588307"
             d="m 249.44784,763.44221 -4.64832,40.77803 -20.84815,-35.35264 -40.21863,8.18029 27.17993,-30.75234 -20.20816,-35.72234 37.64627,16.34666 27.7293,-30.25792 -3.91325,40.85513 37.3458,17.02192 z"
             inkscape:randomized="0"
             inkscape:rounded="0"
             inkscape:flatsided="false"
             sodipodi:arg2="1.3611336"
             sodipodi:arg1="0.7328151"
             sodipodi:r2="56.85688"
             sodipodi:r1="22.174183"
             sodipodi:cy="748.60846"
             sodipodi:cx="232.9659"
             sodipodi:sides="5"
             id="path4135"
             style="fill:#32cd32;fill-opacity:1;fill-rule:nonzero;stroke:none"
             sodipodi:type="star" />
        </g>
        <path
           style="font-size:97.46286774px;font-style:normal;font-variant:normal;font-weight:normal;font-stretch:normal;text-align:start;line-height:125%;letter-spacing:0px;word-spacing:0px;writing-mode:lr-tb;text-anchor:start;fill:#228b22;fill-opacity:1;stroke:none;font-family:FZCuSong-B09T;-inkscape-font-specification:FZCuSong-B09T"
           inkscape:connector-curvature="0"
           d="m 242.72327,924.84437 0.33854,-2.05952 16.3199,0 -0.33854,2.05952 c -3.20001,4e-5 -4.78484,0.68654 -4.75452,2.05952 -0.4443,-0.41187 0.4602,6.93375 2.71353,22.03688 l 0.192,0 c 0.36883,-0.6865 0.93338,-1.7849 1.69367,-3.29523 6.79719,-13.31822 9.69895,-19.29082 8.70529,-17.91784 0.31595,-1.92219 -0.87006,-2.88329 -3.55801,-2.88333 l 0.33855,-2.05952 11.13592,0 -0.33854,2.05952 c -2.49973,0.41194 -4.16356,1.579 -4.9915,3.50119 l -15.60424,30.68686 -4.03197,0 -4.20549,-30.48091 c -0.18861,-2.746 -1.39347,-3.98171 -3.61459,-3.70714"
           id="path3995" />
        <path
           style="font-size:97.46286774px;font-style:normal;font-variant:normal;font-weight:normal;font-stretch:normal;text-align:start;line-height:125%;letter-spacing:0px;word-spacing:0px;writing-mode:lr-tb;text-anchor:start;fill:#228b22;fill-opacity:1;stroke:none;font-family:FZCuSong-B09T;-inkscape-font-specification:FZCuSong-B09T"
           inkscape:connector-curvature="0"
           d="m 313.32693,959.03242 -15.35989,0 0.33854,-2.05952 c 2.64284,0.27461 4.11467,-0.89245 4.4155,-3.50118 l 2.23439,-13.59284 c 0.53424,-2.47141 -0.5539,-3.63847 -3.26445,-3.50119 l 0.30469,-1.85357 10.40179,-0.20595 -0.91407,5.56071 0.192,0 c 2.19049,-3.98172 4.70502,-6.04124 7.54359,-6.17857 2.77081,0.27463 4.05854,1.78495 3.86317,4.53095 -0.68485,2.60875 -2.06253,3.98176 -4.13307,4.11904 -2.176,2e-5 -3.11358,-1.30435 -2.81274,-3.91309 -0.10545,-0.13728 -0.0603,-0.41188 0.13542,-0.82381 0.19569,-0.41188 0.31611,-0.75513 0.36127,-1.02976 -3.19968,2.33415 -5.45403,7.48295 -6.76305,15.44641 -1.14396,3.84445 0.12119,5.49206 3.79546,4.94285 l -0.33855,2.05952"
           id="path3999" />
        <path
           style="font-size:97.46286774px;font-style:normal;font-variant:normal;font-weight:normal;font-stretch:normal;text-align:start;line-height:125%;letter-spacing:0px;word-spacing:0px;writing-mode:lr-tb;text-anchor:start;fill:#228b22;fill-opacity:1;stroke:none;font-family:FZCuSong-B09T;-inkscape-font-specification:FZCuSong-B09T"
           inkscape:connector-curvature="0"
           d="m 337.17552,926.08008 -1.35418,8.23809 7.87195,0 -0.3724,2.26547 -7.87195,0 -2.64064,16.06427 c -0.62455,3.02063 0.0985,4.4623 2.16904,4.32499 2.1534,0.13731 3.59122,-1.99086 4.31346,-6.38451 l 2.30398,0 c -0.88765,6.17856 -4.04959,9.06189 -9.48583,8.64999 -4.9694,-0.1373 -7.10427,-2.33412 -6.40461,-6.59047 l 2.64065,-16.06427 -4.03198,0 0.30469,-1.85357 c 4.78853,-1.09838 8.27046,-3.98171 10.44583,-8.64999 l 2.11199,0"
           id="path4001" />
        <path
           style="font-size:97.46286774px;font-style:normal;font-variant:normal;font-weight:normal;font-stretch:normal;text-align:start;line-height:125%;letter-spacing:0px;word-spacing:0px;writing-mode:lr-tb;text-anchor:start;fill:#228b22;fill-opacity:1;stroke:none;font-family:FZCuSong-B09T;-inkscape-font-specification:FZCuSong-B09T"
           inkscape:connector-curvature="0"
           d="m 366.03379,940.90864 -1.99741,12.15117 c -0.46656,2.05953 -0.12384,3.08929 1.02818,3.08928 0.87339,0.13731 1.65252,-1.0984 2.33737,-3.70714 l 1.72798,0 -0.16927,1.02977 c -0.8654,3.70714 -3.22936,5.62936 -7.09188,5.76666 -2.56,0 -4.11872,-1.02976 -4.67615,-3.08929 -2.13055,2.05953 -4.6678,3.08929 -7.61177,3.08929 -5.0974,-0.1373 -7.34141,-2.05952 -6.73202,-5.76666 0.63194,-3.84443 5.18301,-7.00236 13.65322,-9.4738 0.66255,-0.13729 1.2724,-0.34324 1.82955,-0.61786 l 0.47396,-2.88333 c 0.49652,-3.02061 -0.72721,-4.53092 -3.67117,-4.53094 -1.30258,0.13732 -2.43571,0.41192 -3.3994,0.8238 l -0.0339,0.20596 c 1.59627,0.41192 2.30042,1.57899 2.11245,3.50118 -0.61712,2.19684 -1.96095,3.3639 -4.0315,3.50119 -2.43199,10e-6 -3.43357,-1.30435 -3.00474,-3.91309 1.03851,-3.98172 4.78031,-6.10989 11.22542,-6.38452 6.14393,3e-5 8.82095,2.4028 8.03103,7.20833 m -9.09023,10.91546 0.98178,-5.97261 c -4.34425,1.51033 -6.83992,3.84445 -7.48701,7.00237 -0.42883,2.60873 0.38075,3.91309 2.42874,3.91309 2.04798,0 3.4068,-1.64761 4.07649,-4.94285"
           id="path4003" />
        <path
           style="font-size:97.46286774px;font-style:normal;font-variant:normal;font-weight:normal;font-stretch:normal;text-align:start;line-height:125%;letter-spacing:0px;word-spacing:0px;writing-mode:lr-tb;text-anchor:start;fill:#228b22;fill-opacity:1;stroke:none;font-family:FZCuSong-B09T;-inkscape-font-specification:FZCuSong-B09T"
           inkscape:connector-curvature="0"
           d="m 384.17446,959.03242 -15.35989,0 0.33854,-2.05952 c 2.64284,0.27461 4.11467,-0.89245 4.4155,-3.50118 l 2.2344,-13.59284 c 0.53424,-2.47141 -0.55391,-3.63847 -3.26446,-3.50119 l 0.30469,-1.85357 10.40179,-0.20595 -0.91407,5.56071 0.192,0 c 2.19049,-3.98172 4.70502,-6.04124 7.54359,-6.17857 2.77081,0.27463 4.05854,1.78495 3.86317,4.53095 -0.68485,2.60875 -2.06253,3.98176 -4.13306,4.11904 -2.17601,2e-5 -3.11359,-1.30435 -2.81275,-3.91309 -0.10545,-0.13728 -0.0603,-0.41188 0.13542,-0.82381 0.19569,-0.41188 0.31611,-0.75513 0.36127,-1.02976 -3.19968,2.33415 -5.45403,7.48295 -6.76305,15.44641 -1.14396,3.84445 0.12119,5.49206 3.79546,4.94285 l -0.33855,2.05952"
           id="path4005" />
        <path
           style="font-size:97.46286774px;font-style:normal;font-variant:normal;font-weight:normal;font-stretch:normal;text-align:start;line-height:125%;letter-spacing:0px;word-spacing:0px;writing-mode:lr-tb;text-anchor:start;fill:#228b22;fill-opacity:1;stroke:none;font-family:FZCuSong-B09T;-inkscape-font-specification:FZCuSong-B09T"
           inkscape:connector-curvature="0"
           d="m 411.93356,946.6753 c 1.06817,-7.27696 0.14156,-10.98409 -2.77983,-11.12142 -3.09457,0.13733 -5.23993,3.84446 -6.43611,11.12142 -1.1962,7.27698 -0.26959,10.98411 2.77983,11.12141 2.96653,-0.1373 5.1119,-3.84443 6.43611,-11.12141 m 8.25595,0 c -2.22763,8.10078 -7.20397,12.28848 -14.92904,12.56308 -7.76282,-0.2746 -11.36241,-4.4623 -10.79879,-12.56308 2.09959,-8.10076 7.0985,-12.42576 14.99674,-12.97499 7.56708,0.68653 11.1441,5.01153 10.73109,12.97499"
           id="path4007" />
        <path
           id="path4021"
           d="m 243.55404,925.92629 0.33854,-2.05952 16.3199,0 -0.33854,2.05952 c -3.20001,4e-5 -4.78484,0.68654 -4.75452,2.05952 -0.4443,-0.41187 0.4602,6.93375 2.71353,22.03688 l 0.192,0 c 0.36883,-0.6865 0.93338,-1.7849 1.69367,-3.29523 6.79719,-13.31822 9.69895,-19.29082 8.70529,-17.91784 0.31595,-1.92219 -0.87006,-2.88329 -3.55801,-2.88333 l 0.33855,-2.05952 11.13592,0 -0.33854,2.05952 c -2.49973,0.41194 -4.16356,1.579 -4.9915,3.50119 l -15.60424,30.68686 -4.03197,0 -4.20549,-30.48091 c -0.18861,-2.746 -1.39347,-3.98171 -3.61459,-3.70714"
           inkscape:connector-curvature="0"
           style="font-size:97.46286774px;font-style:normal;font-variant:normal;font-weight:normal;font-stretch:normal;text-align:start;line-height:125%;letter-spacing:0px;word-spacing:0px;writing-mode:lr-tb;text-anchor:start;fill:#ffff00;fill-opacity:1;stroke:none;font-family:FZCuSong-B09T;-inkscape-font-specification:FZCuSong-B09T" />
        <path
           id="path4025"
           d="m 314.1577,960.11434 -15.35989,0 0.33854,-2.05952 c 2.64284,0.27461 4.11467,-0.89245 4.4155,-3.50118 l 2.23439,-13.59284 c 0.53424,-2.47141 -0.5539,-3.63847 -3.26445,-3.50119 l 0.30469,-1.85357 10.40179,-0.20595 -0.91407,5.56071 0.192,0 c 2.19049,-3.98172 4.70502,-6.04124 7.54359,-6.17857 2.77081,0.27463 4.05854,1.78495 3.86317,4.53095 -0.68485,2.60875 -2.06253,3.98176 -4.13307,4.11904 -2.176,2e-5 -3.11358,-1.30435 -2.81274,-3.91309 -0.10545,-0.13728 -0.0603,-0.41188 0.13542,-0.82381 0.19569,-0.41188 0.31611,-0.75513 0.36127,-1.02976 -3.19968,2.33415 -5.45403,7.48295 -6.76305,15.44641 -1.14396,3.84445 0.12119,5.49206 3.79546,4.94285 l -0.33855,2.05952"
           inkscape:connector-curvature="0"
           style="font-size:97.46286774px;font-style:normal;font-variant:normal;font-weight:normal;font-stretch:normal;text-align:start;line-height:125%;letter-spacing:0px;word-spacing:0px;writing-mode:lr-tb;text-anchor:start;fill:#ffff00;fill-opacity:1;stroke:none;font-family:FZCuSong-B09T;-inkscape-font-specification:FZCuSong-B09T" />
        <path
           id="path4027"
           d="m 338.00629,927.162 -1.35418,8.23809 7.87195,0 -0.3724,2.26547 -7.87195,0 -2.64064,16.06427 c -0.62455,3.02063 0.0985,4.4623 2.16904,4.32499 2.1534,0.13731 3.59122,-1.99086 4.31346,-6.38451 l 2.30398,0 c -0.88765,6.17856 -4.04959,9.06189 -9.48583,8.64999 -4.9694,-0.1373 -7.10427,-2.33412 -6.40461,-6.59047 l 2.64065,-16.06427 -4.03198,0 0.30469,-1.85357 c 4.78853,-1.09838 8.27046,-3.98171 10.44583,-8.64999 l 2.11199,0"
           inkscape:connector-curvature="0"
           style="font-size:97.46286774px;font-style:normal;font-variant:normal;font-weight:normal;font-stretch:normal;text-align:start;line-height:125%;letter-spacing:0px;word-spacing:0px;writing-mode:lr-tb;text-anchor:start;fill:#ffff00;fill-opacity:1;stroke:none;font-family:FZCuSong-B09T;-inkscape-font-specification:FZCuSong-B09T" />
        <path
           id="path4029"
           d="m 366.86456,941.99056 -1.99741,12.15117 c -0.46656,2.05953 -0.12384,3.08929 1.02818,3.08928 0.87339,0.13731 1.65252,-1.0984 2.33737,-3.70714 l 1.72798,0 -0.16927,1.02977 c -0.8654,3.70714 -3.22936,5.62936 -7.09188,5.76666 -2.56,0 -4.11872,-1.02976 -4.67615,-3.08929 -2.13055,2.05953 -4.6678,3.08929 -7.61177,3.08929 -5.0974,-0.1373 -7.34141,-2.05952 -6.73202,-5.76666 0.63194,-3.84443 5.18301,-7.00236 13.65322,-9.4738 0.66255,-0.13729 1.2724,-0.34324 1.82955,-0.61786 l 0.47396,-2.88333 c 0.49652,-3.02061 -0.72721,-4.53092 -3.67117,-4.53094 -1.30258,0.13732 -2.43571,0.41192 -3.3994,0.8238 l -0.0338,0.20596 c 1.59627,0.41192 2.30042,1.57899 2.11245,3.50118 -0.61712,2.19684 -1.96095,3.3639 -4.0315,3.50119 -2.43199,10e-6 -3.43357,-1.30435 -3.00474,-3.91309 1.03851,-3.98172 4.78031,-6.10989 11.22542,-6.38452 6.14393,3e-5 8.82095,2.4028 8.03103,7.20833 m -9.09023,10.91546 0.98178,-5.97261 c -4.34425,1.51033 -6.83992,3.84445 -7.48701,7.00237 -0.42883,2.60873 0.38075,3.91309 2.42874,3.91309 2.04798,0 3.4068,-1.64761 4.07649,-4.94285"
           inkscape:connector-curvature="0"
           style="font-size:97.46286774px;font-style:normal;font-variant:normal;font-weight:normal;font-stretch:normal;text-align:start;line-height:125%;letter-spacing:0px;word-spacing:0px;writing-mode:lr-tb;text-anchor:start;fill:#ffff00;fill-opacity:1;stroke:none;font-family:FZCuSong-B09T;-inkscape-font-specification:FZCuSong-B09T" />
        <path
           id="path4031"
           d="m 385.00523,960.11434 -15.35989,0 0.33854,-2.05952 c 2.64284,0.27461 4.11467,-0.89245 4.4155,-3.50118 l 2.2344,-13.59284 c 0.53424,-2.47141 -0.55391,-3.63847 -3.26446,-3.50119 l 0.30469,-1.85357 10.40179,-0.20595 -0.91407,5.56071 0.192,0 c 2.19049,-3.98172 4.70502,-6.04124 7.54359,-6.17857 2.77081,0.27463 4.05854,1.78495 3.86317,4.53095 -0.68485,2.60875 -2.06253,3.98176 -4.13306,4.11904 -2.17601,2e-5 -3.11359,-1.30435 -2.81275,-3.91309 -0.10545,-0.13728 -0.0603,-0.41188 0.13542,-0.82381 0.19569,-0.41188 0.31611,-0.75513 0.36127,-1.02976 -3.19968,2.33415 -5.45403,7.48295 -6.76305,15.44641 -1.14396,3.84445 0.12119,5.49206 3.79546,4.94285 l -0.33855,2.05952"
           inkscape:connector-curvature="0"
           style="font-size:97.46286774px;font-style:normal;font-variant:normal;font-weight:normal;font-stretch:normal;text-align:start;line-height:125%;letter-spacing:0px;word-spacing:0px;writing-mode:lr-tb;text-anchor:start;fill:#ffff00;fill-opacity:1;stroke:none;font-family:FZCuSong-B09T;-inkscape-font-specification:FZCuSong-B09T" />
        <path
           id="path4033"
           d="m 412.76433,947.75722 c 1.06817,-7.27696 0.14156,-10.98409 -2.77983,-11.12142 -3.09457,0.13733 -5.23993,3.84446 -6.43611,11.12142 -1.1962,7.27698 -0.26959,10.98411 2.77983,11.12141 2.96653,-0.1373 5.1119,-3.84443 6.43611,-11.12141 m 8.25595,0 c -2.22763,8.10078 -7.20397,12.28848 -14.92904,12.56308 -7.76282,-0.2746 -11.36241,-4.4623 -10.79879,-12.56308 2.09959,-8.10076 7.0985,-12.42576 14.99674,-12.97499 7.56708,0.68653 11.1441,5.01153 10.73109,12.97499"
           inkscape:connector-curvature="0"
           style="font-size:97.46286774px;font-style:normal;font-variant:normal;font-weight:normal;font-stretch:normal;text-align:start;line-height:125%;letter-spacing:0px;word-spacing:0px;writing-mode:lr-tb;text-anchor:start;fill:#ffff00;fill-opacity:1;stroke:none;font-family:FZCuSong-B09T;-inkscape-font-specification:FZCuSong-B09T" />
        <g
           id="g4119"
           transform="matrix(0.24816975,0,0,0.22333691,212.10699,755.52488)">
          <path
             inkscape:connector-curvature="0"
             id="path3922"
             d="m 283.96469,795.01802 c -32.8008,0 -59.38879,26.58799 -59.38879,59.38879 0,32.80079 26.58799,59.38878 59.38879,59.38878 32.80079,0 59.38878,-26.58799 59.38878,-59.38878 0,-32.8008 -26.58799,-59.38879 -59.38878,-59.38879 z m -0.38477,37.1389 7.7289,15.30726 17.08055,2.34209 -12.26253,12.02832 3.028,16.84634 -15.32398,-7.86274 -15.20688,8.06349 2.81051,-16.8798 -12.42982,-11.86103 17.04709,-2.5763 7.52816,-15.40763 z"
             style="fill:#6b8e23;fill-opacity:1;fill-rule:nonzero;stroke:none" />
          <path
             sodipodi:nodetypes="sssss"
             inkscape:connector-curvature="0"
             id="path3926"
             d="m 337.00556,841.03704 c 0,22.13219 -21.98235,2.73543 -53.04575,2.73543 -31.06341,0 -53.4457,21.79639 -53.4457,-0.33579 0,-22.13218 22.38229,-46.07296 53.4457,-46.07296 31.0634,0 53.04575,21.54114 53.04575,43.67332 z"
             style="fill:url(#radialGradient4190);fill-opacity:1;fill-rule:nonzero;stroke:none" />
        </g>
      </g>
      <rect
         style="fill:none;stroke:none"
         id="rect4271"
         width="360.42215"
         height="360.42212"
         x="124.88728"
         y="639.73505"
         rx="19.910082"
         ry="21.830603" />
    </g>
    <g
       id="g4466"
       transform="translate(-159.59868,-214.32949)"
       inkscape:export-filename="/home/lenik/tasks/22-qt/copyword/icon.png"
       inkscape:export-xdpi="19.98"
       inkscape:export-ydpi="19.98">
      <rect
         ry="21.830603"
         rx="19.910082"
         y="556.06177"
         x="142.81728"
         height="360.42212"
         width="360.42215"
         id="rect4349"
         style="fill:none;stroke:none" />
      <rect
         ry="25.993069"
         rx="21.618408"
         y="656.29877"
         x="152.27803"
         height="169.82802"
         width="344.15622"
         id="rect4445"
         style="fill:#dcdcdc;fill-opacity:1;fill-rule:nonzero;stroke:#dcdcdc;stroke-width:2.27405643;stroke-miterlimit:4;stroke-opacity:1;stroke-dasharray:none" />
      <path
         d="m 254.22347,719.61504 c 2.43658,3.8987 3.65491,8.17637 3.65498,12.83303 -7e-5,6.98511 -2.30135,12.94136 -6.90385,17.86878 -4.65677,4.92748 -11.31694,7.71608 -19.98054,8.36584 -5.57726,0.4332 -9.39468,0.92053 -11.45226,1.46199 -2.0035,0.48735 -3.84452,1.51615 -5.52308,3.08642 -1.6786,1.51616 -2.51789,3.03229 -2.51787,4.54842 -2e-5,2.27422 1.29952,3.9528 3.89864,5.03575 2.54492,1.08296 7.93262,1.7598 16.16312,2.03054 12.07491,0.43318 20.14292,0.97466 24.20407,1.62443 4.06102,0.59563 7.52647,2.46373 10.39638,5.6043 2.9239,3.19472 4.38589,7.28287 4.38597,12.26448 -8e-5,8.23044 -3.62798,14.91769 -10.88371,20.06176 -7.25586,5.144 -17.97712,7.71602 -32.16379,7.71607 -10.50471,-5e-5 -18.41028,-1.35374 -23.71675,-4.06109 -5.25234,-2.70743 -7.87851,-6.74143 -7.8785,-12.10203 -1e-5,-8.44708 8.01386,-15.32385 24.04163,-20.63032 -6.7685,-1.08296 -11.53351,-2.57202 -14.29503,-4.46719 -2.76155,-1.84103 -4.14232,-4.44012 -4.1423,-7.79729 -2e-5,-3.46545 1.4349,-6.49772 4.30475,-9.09683 2.92396,-2.65323 7.28285,-4.87328 13.07669,-6.66018 -5.19821,-1.51612 -9.39466,-4.16936 -12.58936,-7.95973 -3.14059,-3.84446 -4.71087,-8.33872 -4.71086,-13.4828 -1e-5,-7.4182 2.81567,-13.88886 8.44706,-19.41199 5.63134,-5.57716 12.77885,-8.36577 21.44253,-8.36584 8.44701,7e-5 15.32377,2.89698 20.63031,8.69072 5.57716,-6.33522 10.80242,-9.50287 15.6758,-9.50294 3.41123,7e-5 6.03739,0.97473 7.8785,2.92398 1.89509,1.94939 2.84267,4.08823 2.84276,6.41652 -9e-5,1.46205 -0.54156,2.68038 -1.62443,3.65498 -1.08304,0.97471 -2.38259,1.46204 -3.89864,1.46199 -2.76162,5e-5 -4.95461,-1.62438 -6.57896,-4.8733 -0.97474,-1.94926 -2.13892,-2.92392 -3.49254,-2.92399 -2.22013,7e-5 -5.11703,1.89524 -8.69072,5.68552 m -39.71742,13.64525 c -2e-5,8.01391 1.7327,13.7265 5.19819,17.13778 3.51957,3.35719 7.2287,5.03577 11.12738,5.03575 3.62785,2e-5 6.87672,-1.73271 9.7466,-5.19819 2.92393,-3.46543 4.38592,-8.77191 4.38597,-15.91946 -5e-5,-7.36405 -1.43497,-13.04956 -4.30475,-17.05656 -2.86988,-4.06102 -6.38948,-6.09156 -10.55882,-6.09162 -4.6026,6e-5 -8.36587,1.94938 -11.28982,5.84796 -2.86986,3.8987 -4.30477,9.31347 -4.30475,16.24434 m 21.60498,52.30679 c -5.63142,-1e-5 -10.85667,0.9205 -15.67579,2.76153 -4.81918,1.84102 -8.39294,4.034 -10.72127,6.57896 -2.27423,2.59908 -3.41133,5.6855 -3.41131,9.25928 -2e-5,4.76497 2.30126,8.39287 6.90384,10.88371 4.60254,2.54491 10.36928,3.81738 17.30023,3.81742 10.50462,-4e-5 18.3019,-2.13888 23.39185,-6.41652 5.08983,-4.22356 7.63477,-8.85319 7.63484,-13.88891 -7e-5,-4.33184 -2.11183,-7.58071 -6.33529,-9.74661 -4.22359,-2.16592 -10.58595,-3.24887 -19.0871,-3.24886"
         style="font-size:166.34207153px;font-style:normal;font-variant:normal;font-weight:normal;font-stretch:normal;text-align:start;line-height:125%;letter-spacing:0px;word-spacing:0px;writing-mode:lr-tb;text-anchor:start;fill:#696969;fill-opacity:1;stroke:none;font-family:Bell MT;-inkscape-font-specification:Bell MT"
         id="path4452"
         inkscape:connector-curvature="0" />
      <path
         d="m 296.0533,709.60984 c 6.01039,4.35512 10.93783,6.53266 14.78235,6.53262 4.71083,4e-5 9.01557,-2.31503 12.91426,-6.94521 3.89859,-4.63008 5.84791,-10.22291 5.84796,-16.77852 -5e-5,-6.2804 -1.97644,-11.32313 -5.92919,-15.12817 -3.89868,-3.80487 -8.31172,-5.70736 -13.23914,-5.70745 -4.98162,9e-5 -7.47242,1.46706 -7.47239,4.40093 -3e-5,0.45851 0.0541,1.03154 0.16244,1.71911 0.10827,0.77941 0.16242,1.39829 0.16244,1.85664 -2e-5,1.83379 -0.67687,3.34661 -2.03054,4.53845 -1.29957,1.14615 -2.89693,1.71918 -4.79208,1.7191 -4.71087,8e-5 -7.0663,-2.10869 -7.06629,-6.32632 -1e-5,-3.30061 2.03053,-5.84489 6.09163,-7.63285 4.06107,-1.78778 8.82607,-2.68172 14.29502,-2.68181 8.60946,9e-5 16.08185,2.65898 22.41719,7.97667 6.33524,5.27202 9.50288,11.39204 9.50294,18.3601 -6e-5,7.10572 -2.62622,12.97361 -7.8785,17.60369 -5.19824,4.63018 -11.42523,6.94525 -18.681,6.94521 -4.71089,4e-5 -9.50296,-1.30648 -14.37624,-3.91957 -0.92053,9.94795 -1.38079,16.77854 -1.38077,20.49179 -2e-5,1.05441 -0.10831,1.71913 -0.32489,1.99417 -0.21661,0.22924 -0.81223,0.34385 -1.78687,0.34382 -1.19127,3e-5 -1.7869,-0.64177 -1.78688,-1.9254 l -0.0812,-3.23193 c -2e-5,-11.23148 0.21657,-19.29983 0.64977,-24.20507 m 2.68032,39.26448 c 2.16589,10e-6 4.03399,0.66473 5.6043,1.99417 1.6244,1.28361 2.43662,2.88811 2.43665,4.81351 -3e-5,1.87956 -0.78517,3.48406 -2.35543,4.81351 -1.57031,1.32944 -3.46548,1.99416 -5.68552,1.99417 -2.22008,-10e-6 -4.11525,-0.66473 -5.68552,-1.99417 -1.5703,-1.32945 -2.35544,-2.93395 -2.35543,-4.81351 -1e-5,-1.9254 0.78513,-3.5299 2.35543,-4.81351 1.62442,-1.32944 3.51959,-1.99416 5.68552,-1.99417"
         style="font-size:166.34207153px;font-style:normal;font-variant:normal;font-weight:normal;font-stretch:normal;text-align:start;line-height:125%;letter-spacing:0px;word-spacing:0px;writing-mode:lr-tb;text-anchor:start;fill:#fa8072;fill-opacity:1;stroke:none;font-family:Bell MT;-inkscape-font-specification:Bell MT"
         id="path4454"
         inkscape:connector-curvature="0" />
      <path
         d="m 379.2237,726.51889 c 3.41128,-6.0645 7.03918,-10.61291 10.88371,-13.64525 3.8986,-3.03221 7.98675,-4.54835 12.26448,-4.54841 2.97807,6e-5 5.55009,1.08302 7.71606,3.24886 2.16585,2.11183 3.2488,4.52141 3.24887,7.22874 -7e-5,5.14409 -2.19305,7.71611 -6.57896,7.71606 -2.05767,5e-5 -3.7904,-1.43486 -5.19819,-4.30475 -1.73278,-3.62785 -4.03406,-5.4418 -6.90385,-5.44186 -2.70743,6e-5 -5.49604,1.5162 -8.36583,4.54842 -2.86987,3.03233 -4.79212,6.36242 -5.76675,9.99027 -0.97468,3.5738 -1.46201,11.10034 -1.46199,22.57964 -2e-5,10.50469 0.43316,16.54216 1.29955,18.11244 0.86634,1.51614 3.08639,2.4908 6.66018,2.92398 0.97462,0.1083 1.46195,0.48733 1.46199,1.13711 -4e-5,1.1371 -1.27251,1.70565 -3.81742,1.70565 l -25.90973,0 c -1.84103,0 -2.76154,-0.46025 -2.76153,-1.38077 -10e-6,-0.86636 1.21832,-1.35369 3.65497,-1.46199 3.4113,-0.21659 5.52307,-1.27247 6.3353,-3.16765 0.8122,-1.89516 1.21831,-8.88022 1.21832,-20.9552 -10e-6,-17.70629 -0.37905,-28.34632 -1.1371,-31.92013 -0.70394,-3.57369 -3.41132,-5.46887 -8.12217,-5.68552 -1.94933,-0.10823 -2.92399,-0.62264 -2.92398,-1.54321 -1e-5,-0.48727 0.18951,-0.83923 0.56855,-1.05589 0.43318,-0.27067 2.92397,-0.54141 7.4724,-0.81221 l 14.94479,-0.81222 c 0.37901,2.92405 0.78512,8.772 1.21833,17.54389"
         style="font-size:166.34207153px;font-style:normal;font-variant:normal;font-weight:normal;font-stretch:normal;text-align:start;line-height:125%;letter-spacing:0px;word-spacing:0px;writing-mode:lr-tb;text-anchor:start;fill:#696969;fill-opacity:1;stroke:none;font-family:Bell MT;-inkscape-font-specification:Bell MT"
         id="path4456"
         inkscape:connector-curvature="0" />
      <path
         d="m 445.8255,666.57726 c 0.16241,6.82273 0.29778,13.64535 0.40611,20.46788 l -0.16245,50.60112 0.32489,24.52896 c -3e-5,4.65672 0.64974,8.01389 1.94932,10.07149 1.35366,2.05763 4.22349,3.27595 8.6095,3.65498 1.73269,0.16245 2.59905,0.67685 2.5991,1.54321 -5e-5,0.92052 -0.70397,1.38077 -2.11177,1.38077 -0.37907,0 -0.83933,-0.0271 -1.38077,-0.0812 -5.57726,-0.59562 -12.23743,-0.89344 -19.98054,-0.89344 -4.71087,0 -8.50122,0.21659 -11.37104,0.64978 -0.59563,0.0541 -1.13711,0.0812 -1.62443,0.0812 -1.62444,0 -2.43666,-0.48733 -2.43665,-1.46199 -1e-5,-0.92051 0.73099,-1.40784 2.19298,-1.46199 4.92744,-0.0542 8.14923,-1.46199 9.66539,-4.22353 1.57026,-2.81568 2.35541,-7.49946 2.35543,-14.05136 l -0.24367,-46.29638 c -0.0542,-14.89056 -0.27076,-23.77079 -0.64977,-26.64072 -0.32491,-2.92388 -1.43494,-5.36053 -3.33009,-7.30995 -1.89519,-1.94922 -4.54843,-3.19462 -7.95973,-3.7362 -2.11177,-0.32478 -3.16765,-0.89334 -3.16765,-1.70566 0,-0.9204 0.86636,-1.43481 2.5991,-1.54321 9.90903,-0.64967 17.35435,-1.84092 22.33597,-3.57376 l 1.38077,0"
         style="font-size:166.34207153px;font-style:normal;font-variant:normal;font-weight:normal;font-stretch:normal;text-align:start;line-height:125%;letter-spacing:0px;word-spacing:0px;writing-mode:lr-tb;text-anchor:start;fill:#696969;fill-opacity:1;stroke:none;font-family:Bell MT;-inkscape-font-specification:Bell MT"
         id="path4458"
         inkscape:connector-curvature="0" />
      <rect
         y="770.26672"
         x="276.8114"
         height="10.566691"
         width="70.789169"
         id="rect4464"
         style="fill:#ffffff;fill-opacity:1;fill-rule:nonzero;stroke:#dcdcdc;stroke-width:1.99865532;stroke-miterlimit:4;stroke-opacity:1;stroke-dasharray:none" />
    </g>
    <g
       id="g6663"
       transform="translate(281.343,-304.73403)"
       inkscape:export-filename="/home/lenik/tasks/22-qt/classtime/icon.png"
       inkscape:export-xdpi="19.92"
       inkscape:export-ydpi="19.92">
      <rect
         style="fill:none;stroke:#d3d3d3"
         id="rect4477"
         width="360.42215"
         height="360.42212"
         x="104.78203"
         y="646.96631"
         rx="19.910082"
         ry="21.830603" />
      <g
         transform="matrix(1.1171705,0,0,1.2254434,-21.198956,-167.59754)"
         id="g6331">
        <rect
           style="fill:#ffe4c4;fill-opacity:1;fill-rule:nonzero;stroke:#000000;stroke-width:0.85466051;stroke-miterlimit:4;stroke-opacity:1;stroke-dasharray:none"
           id="rect4552"
           width="68.674751"
           height="34.865646"
           x="127.31242"
           y="706.38971" />
        <rect
           y="744.42493"
           x="127.31242"
           height="34.865646"
           width="68.674751"
           id="rect4556"
           style="fill:#66cdaa;fill-opacity:1;fill-rule:nonzero;stroke:#000000;stroke-width:0.85466051;stroke-miterlimit:4;stroke-opacity:1;stroke-dasharray:none" />
        <rect
           y="782.46027"
           x="127.31242"
           height="34.865646"
           width="68.674751"
           id="rect4560"
           style="fill:#fff0f5;fill-opacity:1;fill-rule:nonzero;stroke:#000000;stroke-width:0.85466051;stroke-miterlimit:4;stroke-opacity:1;stroke-dasharray:none" />
        <rect
           style="fill:#87ceeb;fill-opacity:1;fill-rule:nonzero;stroke:#000000;stroke-width:0.85466051;stroke-miterlimit:4;stroke-opacity:1;stroke-dasharray:none"
           id="rect4564"
           width="68.674751"
           height="34.865646"
           x="127.31242"
           y="820.49548" />
        <rect
           y="706.38971"
           x="199.86113"
           height="34.865646"
           width="68.674751"
           id="rect4554"
           style="fill:#ff8c00;fill-opacity:1;fill-rule:nonzero;stroke:#000000;stroke-width:0.85466051;stroke-miterlimit:4;stroke-opacity:1;stroke-dasharray:none" />
        <rect
           style="fill:#7fffd4;fill-opacity:1;fill-rule:nonzero;stroke:#000000;stroke-width:0.85466051;stroke-miterlimit:4;stroke-opacity:1;stroke-dasharray:none"
           id="rect4558"
           width="68.674751"
           height="34.865646"
           x="199.86113"
           y="744.42493" />
        <rect
           style="fill:#6495ed;fill-opacity:1;fill-rule:nonzero;stroke:#000000;stroke-width:0.85466051;stroke-miterlimit:4;stroke-opacity:1;stroke-dasharray:none"
           id="rect4562"
           width="68.674751"
           height="34.865646"
           x="199.86113"
           y="782.46027" />
        <rect
           y="820.49548"
           x="199.86113"
           height="34.865646"
           width="68.674751"
           id="rect4566"
           style="fill:#ffd700;fill-opacity:1;fill-rule:nonzero;stroke:#000000;stroke-width:0.85466051;stroke-miterlimit:4;stroke-opacity:1;stroke-dasharray:none" />
        <rect
           y="706.38971"
           x="272.40985"
           height="34.865646"
           width="68.674751"
           id="rect4568"
           style="fill:#deb887;fill-opacity:1;fill-rule:nonzero;stroke:#000000;stroke-width:0.85466051;stroke-miterlimit:4;stroke-opacity:1;stroke-dasharray:none" />
        <rect
           style="fill:#f5f5dc;fill-opacity:1;fill-rule:nonzero;stroke:#000000;stroke-width:0.85466051;stroke-miterlimit:4;stroke-opacity:1;stroke-dasharray:none"
           id="rect4572"
           width="68.674751"
           height="34.865646"
           x="272.40985"
           y="744.42493" />
        <rect
           style="fill:#eee8aa;fill-opacity:1;fill-rule:nonzero;stroke:#000000;stroke-width:0.85466051;stroke-miterlimit:4;stroke-opacity:1;stroke-dasharray:none"
           id="rect4576"
           width="68.674751"
           height="34.865646"
           x="272.40985"
           y="782.46027" />
        <rect
           y="820.49548"
           x="272.40985"
           height="34.865646"
           width="68.674751"
           id="rect4580"
           style="fill:#ffe4c4;fill-opacity:1;fill-rule:nonzero;stroke:#000000;stroke-width:0.85466051;stroke-miterlimit:4;stroke-opacity:1;stroke-dasharray:none" />
        <rect
           style="fill:#faebd7;fill-opacity:1;fill-rule:nonzero;stroke:#000000;stroke-width:0.85466051;stroke-miterlimit:4;stroke-opacity:1;stroke-dasharray:none"
           id="rect4570"
           width="68.674751"
           height="34.865646"
           x="344.95856"
           y="706.38971" />
        <rect
           y="744.42493"
           x="344.95856"
           height="34.865646"
           width="68.674751"
           id="rect4574"
           style="fill:#808000;fill-opacity:1;fill-rule:nonzero;stroke:#000000;stroke-width:0.85466051;stroke-miterlimit:4;stroke-opacity:1;stroke-dasharray:none" />
        <rect
           y="782.46027"
           x="344.95856"
           height="34.865646"
           width="68.674751"
           id="rect4578"
           style="fill:#fa8072;fill-opacity:1;fill-rule:nonzero;stroke:#000000;stroke-width:0.85466051;stroke-miterlimit:4;stroke-opacity:1;stroke-dasharray:none" />
        <rect
           style="fill:#f0f8ff;fill-opacity:1;fill-rule:nonzero;stroke:#000000;stroke-width:0.85466051;stroke-miterlimit:4;stroke-opacity:1;stroke-dasharray:none"
           id="rect4582"
           width="68.674751"
           height="34.865646"
           x="344.95856"
           y="820.49548" />
        <path
           style="fill:url(#linearGradient6719);fill-opacity:1;stroke:none"
           d="m 415.36789,707.4075 c -56.63153,9.18548 -97.41756,92.01023 -160.25928,58.0661 -55.27908,-38.16847 -136.7722,44.10522 -110.72263,90.41458 90.3273,0 180.65461,0 270.98191,0 0,-49.49354 0,-98.98713 0,-148.48068 z"
           id="path4683"
           inkscape:connector-curvature="0" />
      </g>
      <g
         transform="translate(-513.99298,-113.55659)"
         id="g6655">
        <path
           style="fill:#ffffff;fill-opacity:1"
           d="m 908.61565,873.30699 c -15.89506,0.28466 -32.37372,7.76342 -41.625,22.25 l -4.90625,7.65625 -5.34375,-8.375 c -16.82543,-26.32617 -67.61939,-26.7497 -80.40625,-0.65625 -3.23686,6.60532 -3.19301,7.5532 0.59375,11.96875 8.15588,9.51016 11.17227,9.72381 27.78125,2.03125 16.59555,-7.68634 23.46775,-8.7243 32.90625,-4.9375 10.32296,4.14167 7.52999,11.24868 -5.59375,14.21875 -48.47959,10.97155 -67.70277,66.92449 -32.625,94.96866 15.97203,12.7695 21.375,20.0256 21.375,28.6563 0,8.6455 10.28785,17.2069 17.28125,14.375 1.8051,-0.731 3.83412,0.1689 4.5,2 0.66589,1.8311 4.0779,4.5706 7.5625,6.0937 9.00436,3.9359 12.66056,12.1227 9.59375,21.4063 -1.33908,4.0536 -1.57816,7.3437 -0.53125,7.3437 1.04692,0 2.52778,-2.582 3.28125,-5.75 1.82978,-7.6933 10.39665,-5.9977 9,1.7813 l -0.9375,5.1875 2.59375,-5.1563 c 1.9088,-3.8201 5.14325,-5.3904 12.40625,-6 l 9.8125,-0.8125 -4.8125,5.375 c -9.02177,10.1339 -1.43136,5.4115 13.15625,-8.1875 14.98359,-13.968 17.99462,-20.811 10.0625,-23 -2.65237,-0.7319 -4.5625,-3.2581 -4.5625,-6.0937 0,-4.8533 -7.15872,-9.1085 -11.0625,-6.5625 -2.12446,1.3855 -9.3125,-8.5544 -9.3125,-12.875 0,-1.3622 1.42042,-2.5 3.1875,-2.5 1.76707,0 7.74991,-2.0292 13.28125,-4.5313 50.06744,-22.6473 43.48865,-87.42664 -10.59375,-104.37491 -10.07654,-3.15776 -14.83194,-6.6503 -14.9375,-10.9375 -0.20877,-8.48084 21.13707,-8.26165 38.4375,0.375 21.60809,10.78713 37.05808,3.14769 28.59375,-14.125 -6.95676,-14.19632 -22.26119,-21.09716 -38.15625,-20.8125 z m 1.65625,2.71875 c 11.98247,0.17208 23.40897,4.93524 30.46875,14.40625 6.09544,8.17731 5.9915,14.05926 -0.3125,18.71875 -6.2589,4.62616 -5.02977,4.85603 -19.90625,-3.4375 -14.03686,-7.82546 -27.08386,-9.10275 -37.09375,-3.59375 -15.50611,8.53387 -21.15328,3.58516 -10.5,-9.21875 9.4594,-11.36901 23.76362,-17.07002 37.34375,-16.875 z m -1.40625,0.9375 c -14.3299,0.20231 -29.11346,6.84457 -37.15625,18.8125 -6.49702,9.66777 -2.74314,12.49824 9.09375,6.875 8.91375,-4.23457 18.40113,-5.21221 26.71875,-2.75 3.15246,0.9332 10.44568,4.08529 16.21875,7 5.77308,2.91472 10.78716,5.3125 11.15625,5.3125 0.36909,0 2.66478,-1.70214 5.09375,-3.78125 3.3392,-2.85822 4.40625,-4.54013 4.40625,-6.90625 0,-4.64639 -3.49983,-10.69355 -9.03125,-15.5625 -7.09254,-6.24311 -16.69533,-9.13842 -26.5,-9 z m -94.46875,1.15625 c 21.71399,0.24613 44.90625,11.48434 44.90625,28.59375 0,0.1393 -0.0546,0.25205 -0.15625,0.34375 l -0.6875,-3.4375 c -3.17966,-16.28347 -31.61528,-28.63201 -54.90625,-23.84375 -13.23622,2.72116 -21.15363,8.64107 -24.5,18.375 -1.59777,4.64762 -0.72416,7.74233 2.75,9.625 4.0064,2.17111 12.05466,0.8279 24.1875,-4.03125 8.73961,-3.50018 12.90375,-4.5502 19.5625,-4.96875 7.86854,-0.4946 9.07718,-0.29048 17.4375,3.15625 4.9393,2.03634 10.58831,4.05005 12.5625,4.46875 l 3.53125,0.71875 c -1.59754,1.05939 -11.16834,-1.7193 -17.75,-5.34375 -8.87375,-4.88668 -22.65967,-3.84949 -36.09375,2.75 -22.2832,10.94664 -35.54048,2.94863 -23,-13.875 6.62357,-8.88582 19.12786,-12.67893 32.15625,-12.53125 z m 57.03125,30.21875 c 4.73424,-0.0594 8.28125,1.71637 8.28125,4.46875 0,3.10356 -4.01343,2.92003 -11.3125,-0.5 l -5.6875,-2.65625 5.28125,-0.96875 c 1.18699,-0.21875 2.34498,-0.33004 3.4375,-0.34375 z m -0.90625,0.6875 c -5.36615,0 -5.50752,1.38942 -0.34375,3.53125 5.10342,2.1168 8.71875,2.21575 8.71875,0.21875 0,-2.21578 -3.40196,-3.75 -8.375,-3.75 z m -20.8125,0.1875 c 2.66461,-0.20927 6.6462,0.96825 12,3.53125 l 10.0625,4.8125 -13.03125,0.0625 c -10.21694,0.0412 -13.03125,-0.7536 -13.03125,-3.625 0,-2.98346 1.33539,-4.57198 4,-4.78125 z m -0.21875,0.9375 c -1.82641,-0.0267 -2.32529,0.49619 -2.8125,2.03125 -0.87178,2.74675 0.0513,3.87893 3.6875,4.53125 1.45274,0.26062 6.445,0.50205 11.09375,0.53125 l 8.46875,0.0625 -6.875,-3.21875 c -3.77711,-1.77173 -8.84131,-3.46918 -11.25,-3.75 -0.95588,-0.11145 -1.7037,-0.17861 -2.3125,-0.1875 z m 7.21875,10 c 1.3821,-0.008 2.76341,0.009 4.1875,0.0313 34.22439,0.54013 45.76827,4.18834 59.65625,18.84375 14.37655,15.171 22.42434,45.64677 8.375,31.71875 -5.76422,-5.71446 -11.95699,-8.60703 -17.75,-8.78125 2.1461,-0.007 4.24523,0.27556 6.15625,0.90625 2.10581,0.69498 6.72945,3.4473 10.25,6.09375 7.54952,5.67508 9.00874,5.19399 7.3125,-2.375 -1.9665,-8.77489 -9.25216,-21.26103 -16.84375,-28.90625 -12.27983,-12.36659 -22.12809,-15.52389 -51.84375,-16.59375 -27.82231,-1.00169 -45.25223,2.45788 -59.15625,11.75 -10.71378,7.16007 -16.3674,15.68199 -19.625,29.5 -1.5124,6.41524 -1.62192,8.4309 -0.59375,10.6875 1.48976,3.26967 3.33533,2.32509 5.4375,-2.75 5.61366,-13.55258 34.73238,-8.24206 37.5625,6.84375 1.00081,5.33478 0.48702,7.73987 -1.5625,7.28125 1.03592,-0.104 1.5625,-1.51252 1.5625,-4.21875 0,-17.73042 -31.87332,-24.73093 -37.84375,-8.3125 -2.83889,7.80683 -7.7033,3.26664 -6.15625,-5.75 5.31249,-30.96308 28.02986,-45.73003 70.875,-45.96875 z m 49.25,42.4375 c -4.90157,1.3583 -9.31346,4.90167 -12.59375,10.59375 -3.03456,5.26567 -3.59166,8.90685 -2.5625,10.25 -0.47317,-0.52041 -0.69466,-1.47043 -0.59375,-2.90625 0.29558,-4.20558 4.98385,-11.74445 9.375,-15.09375 1.72664,-1.31698 3.95286,-2.26777 6.375,-2.84375 z m 4.6875,7.96875 c 3.20333,0.0194 6.77025,1.55336 11.03125,4.53125 3.7409,2.61441 8.4986,4.77325 10.59375,4.78125 3.15233,0.013 3.48707,1.2559 1.875,7.1875 -4.6894,17.25451 -20.53336,30.76311 -43.625,37.24991 -26.13875,7.3429 -49.34375,3.4607 -49.34375,-8.25 0,-1.4277 -0.21618,-2.6838 -0.59375,-3.7812 0.35248,0.8369 0.66671,1.7822 0.9375,2.8437 1.63293,6.4012 2.9445,7.7588 10.0625,10.3125 4.68851,1.6822 7.62624,1.9445 17.28125,1.5313 13.49533,-0.5775 25.91157,-3.8038 37.78125,-9.7813 13.26623,-6.6807 25.09621,-20.72026 27.6875,-32.87491 0.57896,-2.71567 0.39309,-3.4375 -0.90625,-3.4375 -0.90359,0 -5.75093,-2.13508 -10.75,-4.75 -12.42586,-6.49975 -14.25702,-6.36208 -22.15625,1.625 -2.00198,2.02423 -3.71674,3.5334 -5.15625,4.5625 1.1548,-0.97262 2.47117,-2.35713 3.875,-4.25 3.7431,-5.0471 7.28768,-7.5249 11.40625,-7.5 z m -103.28125,1.90625 c 5.8047,-0.10152 11.21491,1.41287 13.75,5.03125 1.61288,2.30209 3.01833,4.0001 4.1875,5.15625 -0.94226,-0.76307 -2.00419,-1.75319 -3.21875,-3 -5.2056,-5.34384 -5.60088,-5.5573 -12.0625,-5.96875 -8.81544,-0.56132 -15.21296,1.27546 -19.53125,5.59375 -3.01293,3.01293 -3.39589,3.97465 -2.8125,7.03125 2.43846,12.77595 20.80529,31.66361 29.09375,29.90621 3.01234,-0.6387 6.32747,0.6523 9.84375,3.8437 1.83354,1.6642 2.07248,1.6288 2.09375,-2.1875 1.42962,6.0176 1.34446,6.017 -3.15625,1.7188 -2.75015,-2.6264 -6.18201,-3.7697 -8.46875,-2.8438 -8.57359,3.4719 -30.50076,-20.16476 -30.25,-32.59366 0.13881,-6.87974 10.85676,-11.5183 20.53125,-11.6875 z m 51.03125,9.5 c 1.86049,0.0322 1.81521,0.21628 -0.4375,2.09375 -1.35179,1.12662 -2.20081,2.47282 -1.875,3 0.94242,1.52486 4.1926,2.03167 6.8125,1.0625 1.85716,-0.68701 2.23631,-1.39586 1.6875,-3.125 -0.12516,-0.39434 -0.21084,-0.73501 -0.25,-1 0.0383,0.0242 0.0503,0.037 0.0937,0.0625 3.73101,2.18731 1.3744,5.375 -3.96875,5.375 -5.92915,0 -7.72064,-3.51713 -2.84375,-5.59375 2.04346,-0.87012 2.07199,-1.23882 0.125,-1.375 -3.54315,-0.24784 -5.87573,3.92232 -4,7.125 0.40182,0.6861 1.11586,1.1544 2.03125,1.4687 -0.89796,-0.2037 -1.64069,-0.4844 -2.03125,-0.875 -2.8391,-2.83905 0.25943,-8.2948 4.65625,-8.2187 z m 6.3125,1.15625 c 0.15621,-0.0234 0.36613,0.008 0.625,0.0937 0.98018,0.32311 1.54948,1.38212 1.71875,2.59375 -0.35903,-1.23068 -1.15053,-2.18334 -2.0625,-2.34375 -0.26014,-0.0457 -0.453,-0.0574 -0.625,-0.0625 0.0546,-0.15823 0.17793,-0.25645 0.34375,-0.28125 z m 1.84375,5.78125 c -0.24079,0.45874 -0.56596,0.8617 -0.96875,1.1562 -0.8555,0.6256 -2.42903,1.0315 -4.15625,1.2188 2.13585,-0.3874 4.11565,-1.2286 5.125,-2.375 z m -31.46875,18.71866 c 1.47434,-0.01 2.74454,0.6286 3.8125,1.8438 0.0868,0.099 0.16601,0.2058 0.25,0.3125 -0.0879,-0.1008 -0.15732,-0.2193 -0.25,-0.3125 -1.80263,-1.8137 -4.48654,-2.1761 -7.34375,-0.5625 -1.09121,0.6163 -1.88356,1.2564 -2.4375,2 0.3861,-1.1548 1.16328,-1.6533 2.71875,-2.4063 1.17364,-0.568 2.25327,-0.871 3.25,-0.875 z m -1.15625,4.5625 c 0.14122,-0.017 0.28271,0 0.4375,0 4.17214,0 5.81716,9.8421 2.375,14.2188 -4.2488,5.4024 -13.19247,5.8874 -17.4375,0.9375 -2.57181,-2.9988 -3.10521,-5.3113 -1.59375,-6.9063 1.51148,-1.595 3.63819,-0.7901 6.40625,2.4375 2.07927,2.4246 3.73067,3.8795 4.96875,4.375 -1.24304,-0.2239 -2.92445,-1.4144 -5.15625,-3.5937 -3.80547,-3.7159 -6.3125,-4.1691 -6.3125,-1.125 0,2.2773 4.10299,6.7941 6.625,7.2812 1.29589,0.2504 2.73301,0.5147 3.1875,0.5938 1.93052,0.3361 8.0745,-3.0371 9.125,-5 1.61069,-3.0096 1.4144,-8.8881 -0.375,-11.3125 -2.26048,-3.0627 -3.59748,-0.8878 -3.96875,6.4062 -0.0709,1.3923 -0.19424,2.5388 -0.375,3.5 0.0654,-1.093 0.0281,-2.4172 -0.125,-4.0312 -0.50363,-5.3087 0.1005,-7.5284 2.21875,-7.7813 z m 7.875,15.8438 c 1.88901,0.054 4.00227,1.2014 6.34375,3.4375 0.60976,0.5823 1.19097,1.0527 1.8125,1.4375 -9.05969,-4.9236 -8.94465,-4.8669 -10.78125,-3.3438 -1.83881,1.525 -4.65625,7.3057 -4.65625,9.5625 0,0.7878 0.72401,0.5982 1.9375,-0.5 1.06267,-0.9617 2.47563,-1.75 3.15625,-1.75 0.57137,0 0.93037,0.2837 1.09375,0.7188 -0.20615,-0.1885 -0.59067,-0.2813 -1.21875,-0.2813 -1.43441,0 -3.75653,1.8848 -5.125,4.1875 -2.07433,3.4906 -2.23542,3.1741 -0.96875,-1.8125 1.99986,-7.8729 4.79996,-11.7595 8.40625,-11.6562 z m 37.375,2.4062 c 3.23317,0.094 3.96169,1.714 6.3125,5.5 4.28481,6.9009 1.08889,16.508 -4.71875,14.1563 -2.63849,-1.0684 -2.8493,-2.1374 -0.84375,-4.6875 1.64135,-2.087 2.59813,-3.1438 0.46875,-2.9688 0.66406,-0.083 1.11728,-0.1014 1.1875,-0.031 0.3523,0.3523 -0.14397,1.8465 -1.125,3.3437 -1.68011,2.5642 -1.67337,2.7714 0.0625,3.4375 2.47773,0.9508 4.90341,-0.7414 6.0625,-4.2187 0.73922,-2.2177 0.41955,-3.9745 -1.5,-7.8438 -2.15667,-4.3472 -2.96535,-5.032 -6.1875,-5.3437 -2.03383,-0.1968 -8.48312,0.4369 -14.34375,1.4375 -9.75964,1.6663 -10.92969,1.6881 -13.75,0.1562 2.64924,1.2045 6.2375,0.9 14.375,-0.6875 7.45073,-1.4534 11.48531,-2.3227 14,-2.25 z m -50.125,3.25 c 2.39736,-0.1412 2.98996,3.3345 -0.1875,6.6875 -0.54906,0.5794 -0.94207,1.0589 -1.25,1.5 0.27122,-0.7481 0.71163,-1.6173 1.34375,-2.7187 1.006,-1.7529 1.4936,-3.5377 1.09375,-3.9375 -1.25128,-1.2513 -3.93641,0.4356 -5.21875,3.25 -1.65021,3.6218 1.01093,9.2859 5.71875,12.1562 4.02072,2.4515 5.03125,2.614 5.03125,0.7813 0,-0.7345 -1.89437,-2.5322 -4.21875,-3.9688 -1.93757,-1.1974 -3.10551,-2.0448 -3.65625,-2.9375 0.64383,0.5847 1.7546,1.2059 3.40625,2 3.0411,1.4622 5.53125,3.7497 5.53125,5.0938 0,3.0192 0.0873,3.0455 -6.8125,-0.625 -6.58216,-3.5015 -8.49366,-11.5994 -3.71875,-15.7813 1.12767,-0.9876 2.13838,-1.4529 2.9375,-1.5 z m 11.75,4.5625 c -0.0117,0.8883 -0.52825,2.0114 -1.53125,2.8438 -0.87164,0.7234 -1.5625,2.0315 -1.5625,2.9062 0,1.2785 0.8726,1.4501 4.46875,0.875 l 4.46875,-0.7187 -3.09375,3.25 c -4.13458,4.3156 -3.30068,4.2524 19.1875,-1.2188 6.03234,-1.4676 11.27149,-2.6028 14.75,-3.25 -2.92517,0.6487 -7.59938,1.9219 -15.0625,3.9063 -22.08749,5.8728 -26.34239,6.0619 -20.125,0.9062 4.46067,-3.6989 4.45575,-3.735 -0.5625,-2.1562 -5.5521,1.7468 -6.69242,-0.8815 -2.375,-5.4375 0.80311,-0.8475 1.27273,-1.4545 1.4375,-1.9063 z m 61.1875,6.2188 c 1.32606,0 3.0843,1.1591 3.90625,2.5625 2.44012,4.1664 -0.35918,5.0476 -3.46875,1.0937 -1.78828,-2.2737 -1.94087,-3.6562 -0.4375,-3.6562 z m 0.15625,0.2187 c -0.10459,0.01 -0.1902,0.028 -0.28125,0.063 -1.06021,0.4069 -0.54206,1.7677 1.46875,3.8438 2.10538,2.1737 2.93773,2.4004 3.125,0.8437 0.20507,-1.7045 -2.7437,-4.8284 -4.3125,-4.75 z m -10.125,2.75 c 4.27965,0.027 21.3919,11.7445 21.5625,15.5625 0.0727,1.6262 -4.05426,5.8841 -9.1875,9.4688 -10.95042,7.6471 -37.40123,11.1478 -39.1875,5.1875 -1.45911,-4.8687 -3.80973,-16.9772 -4.3125,-22.25 -0.59276,-6.2164 9.3929,-9.1176 14.75,-4.2813 4.61213,4.1639 15.40625,2.0993 15.40625,-2.9375 0,-0.5294 0.35737,-0.7539 0.96875,-0.75 z m 0.5,1.5 c -0.34029,0.028 -0.5736,0.1459 -0.65625,0.375 -0.68381,1.896 -6.00295,4.4688 -9.25,4.4688 -1.50474,0 -4.59693,-0.9628 -6.875,-2.125 -7.90609,-4.0334 -14.22692,-2.0706 -13.96875,4.3437 0.38194,9.4893 3.96282,22.827 6.3125,23.5313 4.0507,1.2142 18.49751,-0.4167 25.65625,-2.9063 7.96945,-2.7715 15.87256,-8.0876 18.09375,-12.1562 1.27879,-2.3424 1.04562,-2.7775 -3.375,-6.5938 -5.47096,-4.723 -13.55549,-9.1361 -15.9375,-8.9375 z m -40.625,3.5 c 2.02489,-0.1584 4.13754,1.9992 6.3125,6.4375 2.0467,4.1766 3.12167,8.1826 2.40625,8.9375 -0.71545,0.755 -1.3125,0.1664 -1.3125,-1.3437 0,-0.9389 -0.93559,-2.0523 -2.40625,-2.9375 1.59874,0.8174 2.72461,1.3461 2.84375,1.25 0.83725,-0.6751 -4.3888,-10.0396 -6.125,-10.9688 -2.32903,-1.2464 -8,0.1932 -8,2.0313 0,0.7577 3.09789,3.1507 6.875,5.3125 1.24193,0.7108 2.36557,1.3244 3.40625,1.875 -0.66639,-0.3159 -1.38968,-0.6095 -2.15625,-0.8125 -5.85234,-1.55 -12.74424,-8.1875 -8.5,-8.1875 1.29766,0 3.92436,-0.6104 5.8125,-1.375 0.28665,-0.1161 0.55448,-0.1961 0.84375,-0.2188 z"
           id="path6589"
           inkscape:connector-curvature="0" />
        <g
           id="g6618"
           transform="translate(332.80841,354.99565)">
          <path
             style="fill:#ffdead;fill-opacity:1"
             d="m 520.89174,727.90482 c 0.7746,-4.24076 1.53321,-8.63034 1.68581,-9.75461 0.46659,-3.43764 -20.30528,-17.79656 -25.98738,-17.96424 -6.92483,-0.20434 -17.62387,-11.02563 -15.77126,-15.95145 1.77714,-4.72514 -6.80726,-19.10084 -12.50844,-20.94707 -23.32697,-7.55396 -33.68968,-48.8338 -18.53822,-73.847 7.98968,-13.18999 35.28499,-29.38689 49.52332,-29.38689 4.49773,0 6.99028,-7.46279 3.29219,-9.85693 -6.34621,-4.10852 -25.64094,-2.01241 -39.37892,4.27798 -30.85348,14.12728 -41.20099,-12.75044 -11.43841,-29.71133 23.24829,-13.24857 62.40777,-2.50414 70.68854,19.39527 0.68177,1.80305 2.51227,0.85968 4.9935,-2.57348 20.6403,-28.55901 60.64622,-32.40585 80.95189,-7.78409 15.43813,18.71959 -2.88822,33.47285 -25.08961,20.19786 -13.12836,-7.8499 -37.20719,-7.83816 -37.20719,0.0182 0,3.57029 3.38668,5.82934 14.69589,9.8027 61.065,21.45449 57.93993,88.38934 -5.07819,108.76858 -6.26792,2.02696 0.33111,11.74926 8.66768,12.77004 3.44552,0.42188 7.26905,3.02014 8.7281,5.93113 1.42809,2.8492 4.69566,6.88554 7.26127,8.96967 4.67737,3.79953 0.62209,16.37656 -5.28039,16.37656 -1.02395,0 -5.82786,4.27042 -10.67535,9.48982 -8.9186,9.60287 -17.15638,12.45075 -17.15638,5.93115 0,-1.95729 -1.98078,-3.55869 -4.40174,-3.55869 -2.42096,0 -5.00403,1.6014 -5.74016,3.55869 -2.00179,5.32245 -5.88804,4.29422 -4.48338,-1.18623 0.86605,-3.379 0.0713,-4.74492 -2.76064,-4.74492 -2.18722,0 -4.52403,2.13522 -5.1929,4.74492 -2.0212,7.88595 -5.31252,5.31712 -3.79963,-2.96557 z m -1.52462,-25.50389 c -2.47138,-4.71154 -11.62629,-6.73536 -11.62629,-2.57016 0,1.69391 6.6056,5.19399 13.45204,7.12777 0.36471,0.10305 -0.45688,-1.94792 -1.82575,-4.55761 z m -24.4152,-9.48983 c -0.7904,-1.30485 -3.20647,-2.3561 -5.36905,-2.33613 -3.38855,0.0313 -3.44991,0.35418 -0.4441,2.33613 4.55373,3.00257 7.63192,3.00257 5.81315,0 z m 27.55693,-2.5012 c 20.75966,-4.73951 20.62966,-15.70946 -0.15,-12.65905 -7.30883,1.07292 -10.7457,0.47043 -13.53172,-2.37212 -4.41212,-4.5017 -12.71258,-1.32986 -12.71258,4.85783 0,3.10483 0.62198,3.23903 3.54407,0.76468 1.94925,-1.65056 4.29486,-2.23502 5.21246,-1.29878 0.91761,0.93623 -0.15405,2.74283 -2.38145,4.01465 -5.80177,3.31273 -5.21928,7.62706 0.60069,4.44908 5.20755,-2.84357 6.18247,-0.2611 1.74394,4.61959 -2.35272,2.5871 -2.24196,2.96119 0.58131,1.96321 1.91835,-0.67811 9.61031,-2.6307 17.09328,-4.33909 z m -31.04482,-9.94207 c 0,-1.32342 -1.54224,-1.06652 -3.48788,0.58099 -1.91833,1.62439 -3.48788,4.02105 -3.48788,5.3259 0,1.32342 1.54224,1.06652 3.48788,-0.58099 1.91834,-1.6244 3.48788,-4.02105 3.48788,-5.3259 z M 486.738,669.04255 c -1.32734,-2.53051 -4.00784,-4.60092 -5.95666,-4.60092 -3.4736,0 -2.94595,2.33194 2.00718,8.87058 3.42391,4.51991 6.70139,0.97672 3.94948,-4.26966 z m 12.74108,-7.81644 c -0.84889,-3.45087 -2.47636,-6.2743 -3.61661,-6.2743 -2.40289,0 -2.7416,7.32451 -0.6018,13.01394 2.32792,6.18961 5.9682,0.37363 4.21841,-6.73964 z m 53.48478,-5.12064 c 17.04912,-5.97736 22.2094,-10.12743 22.2094,-17.86152 0,-4.39965 2.10831,-8.36438 6.18976,-11.64002 5.99892,-4.81453 6.05268,-5.07353 1.74394,-8.40034 -6.89993,-5.32748 -12.44161,-4.24108 -19.89554,3.90033 -9.21362,10.06343 -12.07264,6.50009 -7.51429,-9.36551 5.11412,-17.80006 12.16029,-22.2606 24.37808,-15.43241 l 8.93746,4.9949 -3.7443,-7.48204 c -12.42549,-24.82923 -18.66896,-27.68977 -61.09295,-27.99069 -50.42071,-0.35763 -77.24564,15.978 -76.7877,46.76158 l 0.10352,6.96145 3.96563,-5.5292 c 19.47651,-27.15557 31.90016,-27.47698 38.70737,-1.00134 3.95387,15.37795 1.06776,18.22996 -8.09263,7.99703 -7.94281,-8.87279 -9.56538,-9.01687 -23.65218,-2.10028 -12.17757,5.97914 -13.99415,8.93737 -5.48826,8.93737 8.6509,0 13.27756,5.94285 10.47723,13.45779 -1.26658,3.39896 -2.01199,6.42105 -1.65649,6.71577 9.64185,7.993 25.43311,11.18292 29.07774,5.87385 4.47278,-6.5154 9.61516,-5.86346 12.3852,1.57017 2.77166,7.438 28.01825,7.25181 49.74895,-0.36689 z m -32.49688,-1.25728 c -0.75589,-1.24786 -0.87498,-2.26884 -0.26464,-2.26884 0.61032,0 2.7648,-0.64802 4.78773,-1.44006 2.02294,-0.79203 3.67806,-0.37245 3.67806,0.9324 0,3.31918 -6.53274,5.53083 -8.20115,2.7765 z m -5.75038,-23.21681 c 0,-5.44042 4.50626,-7.73619 11.5146,-5.86626 7.70871,2.05679 4.92742,8.88609 -3.97656,9.76424 -6.18012,0.60951 -7.53804,-0.0927 -7.53804,-3.89798 z m 13.95153,-0.40414 c 0,-1.30484 -2.61591,-2.37246 -5.81313,-2.37246 -3.19723,0 -5.81314,1.06762 -5.81314,2.37246 0,1.30485 2.61591,2.37246 5.81314,2.37246 3.19722,0 5.81313,-1.06761 5.81313,-2.37246 z m -63.94454,-81.91162 c 10.16176,-6.38584 29.98096,-8.07583 38.72355,-3.30195 14.51094,7.92366 19.37227,4.3553 9.82986,-7.2154 -17.60354,-21.34527 -64.97511,-20.3618 -73.12838,1.51821 -5.14919,13.81831 8.78598,18.92125 24.57497,8.99914 z m 141.67453,2.26488 c 4.60787,-4.70139 4.57303,-5.38108 -0.7307,-14.25515 -11.94047,-19.97846 -49.09913,-20.53123 -68.22714,-1.01494 -12.76769,13.02685 -9.39413,17.04848 8.23734,9.8197 11.15252,-4.57246 27.37371,-3.25988 38.83263,3.14222 12.29864,6.87124 16.93627,7.3603 21.88787,2.30817 z"
             id="path6597"
             inkscape:connector-curvature="0" />
          <path
             style="fill:#fa8072;fill-opacity:1"
             d="m 523.71176,729.32809 c 0.79117,-4.24077 1.82094,-8.16508 2.28839,-8.7207 1.38581,-1.64725 -9.06035,-12.03829 -12.10216,-12.03829 -1.53882,0 -4.10045,-1.60141 -5.69253,-3.55868 -1.59208,-1.95728 -5.43005,-3.55869 -8.5288,-3.55869 -6.992,0 -17.51133,-10.24498 -15.63684,-15.22899 1.75052,-4.65438 -7.28867,-19.68213 -12.93947,-21.51202 -2.37634,-0.76952 -8.48305,-6.00652 -13.57046,-11.63774 -28.72451,-31.79498 -6.96499,-81.65615 39.46953,-90.44299 8.9414,-1.69199 13.50594,-7.69042 8.37822,-11.0101 -6.66014,-4.31174 -27.16521,-2.07154 -40.04872,4.37539 -20.0987,10.05741 -36.00075,-1.84393 -24.49401,-18.3317 17.74687,-25.42908 75.09918,-20.14523 84.21545,7.75875 0.48282,1.47786 5.32327,-2.23357 10.75653,-8.24762 21.23182,-23.50136 56.85416,-24.423 75.38735,-1.95047 15.54885,18.85385 -2.91196,33.45866 -25.34075,20.0477 -7.48346,-4.47462 -13.65156,-6.20488 -22.11943,-6.20488 -20.77923,0 -21.75234,9.37291 -1.64384,15.83326 55.94587,17.97399 60.72876,84.57453 7.51036,104.58 -17.52697,6.58861 -18.20182,16.19659 -1.27806,18.19601 4.20003,0.4962 6.37531,2.31788 6.85403,5.73988 0.38571,2.75715 3.25311,6.19927 6.37198,7.64918 5.29935,2.46354 4.39078,14.62107 -1.09268,14.62107 -0.77624,0 -6.32524,4.80423 -12.33111,10.67606 -6.00588,5.87182 -12.78897,10.65231 -15.07353,10.6233 -3.5375,-0.045 -3.35326,-0.68112 1.24181,-4.28803 l 5.39557,-4.23527 -8.88346,1.02693 c -4.8859,0.56483 -9.72022,2.49444 -10.74294,4.28804 -3.03014,5.31413 -6.78103,3.90641 -3.95366,-1.48383 2.12659,-4.05423 1.76834,-4.74492 -2.46113,-4.74492 -2.99446,0 -5.43047,1.87453 -6.16615,4.74492 -2.02434,7.89821 -5.31352,5.31052 -3.76949,-2.96557 z m -1.50813,-26.6328 c -3.19216,-3.92439 -11.67292,-4.97152 -11.67292,-1.44126 0,2.20188 12.01925,7.34358 13.70158,5.86138 0.50196,-0.44225 -0.41093,-2.43131 -2.02866,-4.42012 z m -27.6847,-10.44667 c -3.67191,-2.88073 -4.65484,-4.91598 -2.90658,-6.01839 3.18463,-2.00816 3.50269,-6.13061 0.47301,-6.13061 -4.59023,0 -5.47283,10.24313 -1.15986,13.46086 6.50224,4.85107 9.87807,3.61865 3.59343,-1.31186 z m 31.46711,-0.50679 c 18.70934,-4.69927 26.91811,-4.56665 19.35618,0.31274 -2.70195,1.74346 -2.32143,2.21477 1.81128,2.24346 3.99919,0.0277 5.23183,-1.32114 5.23183,-5.72534 0,-10.51718 -4.7437,-12.71196 -22.00242,-10.17996 -13.59798,1.99494 -15.80607,1.77046 -18.4167,-1.87227 -3.55447,-4.95969 -13.06178,-1.21889 -13.06178,5.13936 0,3.10483 0.62198,3.23903 3.54408,0.76468 1.94925,-1.65056 4.29485,-2.23501 5.21246,-1.29878 0.9176,0.93624 -0.15406,2.74283 -2.38145,4.01465 -5.77513,3.29753 -5.01022,6.60872 1.18199,5.1167 5.1615,-1.24367 5.16932,-1.2098 0.58132,2.51912 -6.08081,4.94221 -4.50989,4.85642 18.94321,-1.03436 z m -36.3127,-21.602 c -5.90356,-6.46534 -10.59046,-4.73467 -5.85574,2.16229 2.0114,2.92996 5.04667,4.65513 6.90807,3.92634 2.71903,-1.06457 2.52848,-2.16706 -1.05233,-6.08863 z m 12.97614,-7.63283 c -2.3409,-9.51625 -6.07885,-7.22596 -5.66796,3.47284 0.32383,8.43208 0.78444,9.18075 3.77261,6.13194 2.20657,-2.25137 2.87322,-5.62958 1.89535,-9.60478 z m 62.01832,3.26877 c 18.52279,-7.19105 24.47917,-12.56351 19.52883,-17.61435 -5.84692,-5.9656 -4.88876,-14.74602 2.12051,-19.43189 l 6.02873,-4.03036 -5.44742,-4.27518 c -7.818,-6.13562 -13.12199,-5.38908 -20.72693,2.91729 -11.2375,12.27397 -12.67018,-1.49544 -2.22711,-21.40459 5.93394,-11.31274 26.32888,-2.67538 33.30925,14.10663 l 2.46701,5.93114 0.91454,-5.37919 c 4.87751,-28.68928 -24.71302,-48.01849 -74.13118,-48.4242 -50.69828,-0.41622 -76.41742,15.32034 -76.30155,46.68602 l 0.0263,7.11737 4.47334,-5.93114 c 2.46035,-3.26214 6.69059,-8.86706 9.40053,-12.4554 9.70024,-12.84445 21.68549,-8.37366 27.7922,10.36718 5.14097,15.77707 2.53352,19.55501 -6.60639,9.57208 -8.20635,-8.96323 -9.95393,-9.12193 -24.07909,-2.1865 -10.38676,5.09986 -14.78366,11.30982 -8.00781,11.30982 5.01785,0 10.75728,8.05163 9.43022,13.22929 -2.85629,11.14419 25.36306,21.98469 30.51792,11.7235 4.06978,-8.10125 9.66774,-7.13817 12.68246,2.18191 4.71837,14.58702 30.04942,17.1662 58.83565,5.99057 z M 522.157,655.44266 c 0,-2.25058 6.96036,-3.38483 8.20115,-1.33643 0.75589,1.24786 -0.78016,2.26884 -3.41342,2.26884 -2.63325,0 -4.78773,-0.41958 -4.78773,-0.93241 z m -2.99359,-19.51996 c -4.27811,-4.36494 -1.24783,-8.01711 6.65197,-8.01711 6.65703,0 8.15548,0.82541 7.5372,4.1518 -0.78551,4.22616 -11.08548,7.032 -14.18917,3.86531 z m 12.29461,-3.2722 c 0,-1.30484 -2.61591,-2.37245 -5.81313,-2.37245 -3.19724,0 -5.81315,1.06761 -5.81315,2.37245 0,1.30486 2.61591,2.37246 5.81315,2.37246 3.19722,0 5.81313,-1.0676 5.81313,-2.37246 z m -63.72126,-81.84973 c 12.67091,-6.87395 32.14177,-8.08235 39.44296,-2.4479 11.83146,9.13051 18.26702,3.24227 8.88717,-8.13134 -15.83704,-19.20328 -50.66209,-21.66968 -68.32129,-4.83868 -16.61537,15.83614 -1.81731,27.24897 19.99116,15.41792 z m 142.69849,1.34157 c 14.43893,-27.52704 -49.44762,-39.05021 -71.89311,-12.96729 -10.51559,12.21971 -4.39606,16.75684 11.1509,8.26746 8.03364,-4.38675 24.17303,-2.99831 35.33449,3.03976 13.20719,7.14475 22.22186,7.73374 25.40772,1.66007 z"
             id="path6595"
             inkscape:connector-curvature="0" />
          <path
             style="fill:#424242;fill-opacity:1"
             d="m 561.91866,734.19096 c 2.31476,-2.60969 4.73184,-4.74491 5.37128,-4.74491 0.63945,0 -0.73127,2.13522 -3.04602,4.74491 -2.31476,2.60971 -4.73184,4.74492 -5.37129,4.74492 -0.63945,0 0.73127,-2.13521 3.04603,-4.74492 z m -5.44599,-42.7042 c 0,-3.26212 0.52776,-4.59664 1.17282,-2.96557 0.64506,1.63106 0.64506,4.30007 0,5.93114 -0.64506,1.63107 -1.17282,0.29656 -1.17282,-2.96557 z m -68.59578,-64.05631 c -7.41352,-8.48931 -15.18894,-9.15453 -26.1576,-2.23793 -6.14492,3.87486 -8.71474,4.34612 -12.48205,2.28899 -6.10024,-3.33103 -6.13153,-5.56504 -0.0503,-3.59577 3.1922,1.03373 6.96841,-0.43299 11.80468,-4.58504 10.12765,-8.69484 20.85058,-8.2476 28.63745,1.1944 9.91988,12.02841 8.29884,18.44483 -1.75213,6.93535 z m 70.56465,4.33382 c -0.0428,-15.77714 21.73193,-23.55106 34.72401,-12.39704 3.95528,3.3957 8.74186,5.56336 10.64207,4.81937 1.89945,-0.74368 3.45353,-0.43227 3.45353,0.69203 0,4.60142 -8.09479,4.71932 -15.55788,0.22658 -11.29813,-6.80136 -17.91771,-6.06313 -26.16811,2.91834 -5.16946,5.62754 -7.08578,6.63808 -7.09362,3.74071 z"
             id="path6579"
             inkscape:connector-curvature="0" />
          <path
             style="fill:#b22222;fill-opacity:1"
             d="m 537.00634,733.86009 c 1.89762,-7.43232 -7.37007,-9.66812 -10.33996,-2.4945 -1.73771,4.19734 -1.89863,3.73951 -0.84892,-2.41557 1.4194,-8.32292 -4.05059,-19.82262 -9.42891,-19.82262 -1.69995,0 -6.3248,-3.7303 -10.27745,-8.28948 -3.95266,-4.55917 -9.09126,-8.92392 -11.41911,-9.6994 -3.77744,-1.2584 -3.86318,-1.7976 -0.7975,-5.01539 4.28625,-4.49891 2.04928,-9.38098 -2.48754,-5.42893 -4.72958,4.11996 -3.89881,10.96388 1.84332,15.18538 5.69326,4.18564 3.76793,5.00369 -2.92614,1.24336 -3.00508,-1.68807 -4.39349,-4.99875 -4.39349,-10.47636 0,-8.57529 -5.41903,-15.79142 -21.40538,-28.50397 -42.22006,-33.57391 -8.851,-95.75042 50.93373,-94.90472 l 21.5784,0.30525 -7.46839,-4.20356 c -4.10764,-2.31194 -6.84313,-4.85986 -6.0789,-5.662 2.77452,-2.91219 -6.09905,-16.37429 -14.75731,-22.38836 -21.7269,-15.09157 -65.95897,-5.52774 -65.95897,14.26163 0,12.37839 9.20882,13.94486 28.23393,4.8027 9.59673,-4.61152 15.31595,-5.90272 22.42074,-5.06182 11.69334,1.384 30.31545,8.60573 22.59835,8.76375 -2.81088,0.0575 -5.17547,1.4457 -5.25465,3.08479 -0.0792,1.63908 -1.04752,0.62543 -2.15185,-2.25254 -3.97953,-10.37097 -23.01816,-9.78093 -43.74201,1.35567 -15.72101,8.44817 -30.70415,-3.23387 -22.22325,-17.32701 14.61052,-24.27905 54.55426,-24.30722 76.58344,-0.054 12.66284,13.94125 17.9913,15.63256 29.46415,9.35216 9.88349,-5.41034 20.91137,-4.3292 36.91927,3.61952 21.72861,10.78931 35.15702,-1.37444 18.98994,-17.20152 -20.22576,-19.80042 -60.42113,-14.57653 -70.7395,9.19347 -1.47598,3.40015 -3.34348,5.48946 -4.15,4.64293 -5.29552,-5.55827 17.474,-23.87856 34.7093,-27.92703 26.49523,-6.22356 58.32554,15.51894 47.6814,32.56998 -5.72581,9.17228 -12.67664,9.48461 -27.41115,1.23172 -16.02608,-8.97632 -30.09339,-9.42584 -39.33077,-1.25678 -2.36782,2.09398 5.12334,10.61348 9.34959,10.63304 8.00312,0.0371 27.08824,10.58684 35.01185,19.35368 27.54144,30.47241 15.71416,72.2597 -24.71819,87.33251 -6.01778,2.24337 -10.94142,5.23126 -10.94142,6.63975 0,5.12926 6.49638,11.70144 11.62271,11.75832 3.25194,0.0362 6.3048,2.25736 8.00681,5.82582 1.51298,3.17211 4.35916,6.71223 6.32484,7.86681 6.04508,3.55094 4.11974,7.30804 -11.03356,21.53128 -14.64493,13.74618 -22.32651,18.56027 -13.01476,8.15669 l 4.96935,-5.55214 -7.41267,0.70637 c -6.10638,0.58183 -5.76263,0.28564 1.95063,-1.68037 5.14982,-1.3127 13.16921,-5.8398 17.82086,-10.06042 l 8.45755,-7.67368 -11.93528,-8.73147 -11.93529,-8.73138 -4.06073,5.16069 c -3.82815,4.86511 -4.42604,4.94728 -10.4381,1.4356 -9.66191,-5.64363 -22.26887,-1.85054 -18.58638,5.59207 2.38872,4.8279 2.14641,4.76942 -2.79961,-0.67496 l -5.41466,-5.96025 13.62846,-4.08843 c 15.46362,-4.63897 19.69247,-5.19239 14.78316,-1.93463 -2.79016,1.85154 -2.86339,2.79181 -0.41494,5.32775 6.50029,6.73259 11.56151,-6.80893 5.48756,-14.68212 -3.75332,-4.86514 -4.87556,-5.02817 -18.61992,-2.70488 -12.36169,2.08957 -15.23449,1.89419 -18.5573,-1.26211 -4.46104,-4.23751 -13.34262,-2.49262 -13.34262,2.6213 0,1.77128 -0.58824,5.18575 -1.3072,7.58771 -1.22082,4.07856 -1.13831,4.09144 1.24857,0.195 1.40567,-2.29471 3.73155,-4.17221 5.16862,-4.17221 1.90678,0 1.87629,0.77308 -0.11286,2.86093 -3.93337,4.12855 -3.34973,7.43701 1.00271,5.68396 3.11745,-1.25564 3.25798,-0.90676 0.85758,2.12903 -2.43058,3.07398 -2.04445,3.65961 2.51798,3.81897 2.96384,0.10356 4.06848,0.74428 2.45474,1.42392 -3.62184,1.52537 0.67523,7.92426 5.32136,7.92426 1.63171,0 4.57296,1.68592 6.53611,3.74655 2.72381,2.85891 3.6402,3.0001 3.86838,0.59604 0.16444,-1.73276 0.93105,0.59644 1.70356,5.17593 1.11704,6.62198 2.65007,8.57404 7.48939,9.5364 5.81563,1.15648 5.93707,1.47379 2.74452,7.17037 -2.786,4.97112 -3.12557,5.11908 -2.0462,0.89156 z m 34.19563,-41.26287 c -0.82347,-1.3985 -2.58417,-2.54273 -3.91269,-2.54273 -1.50616,0 -1.33385,1.36796 0.45773,3.63378 3.11533,3.94 5.89961,3.06075 3.45496,-1.09105 z m -70.88814,-18.32984 c 5.12962,-3.0848 4.51688,-16.39839 -0.75473,-16.39839 -2.48125,0 -3.20628,2.10557 -2.66808,7.74836 0.84787,8.88928 -1.63499,9.84423 -7.60184,2.9238 -5.28701,-6.13194 -9.47198,-2.51868 -5.26745,4.54787 3.12449,5.25135 8.83267,5.66421 16.2921,1.17836 z m 71.1219,-10.54164 c 19.89331,-10.6581 38.79147,-38.04226 26.25345,-38.04226 -2.41426,0 -6.98843,-2.14571 -10.16483,-4.76822 -8.32315,-6.87183 -16.11185,-6.06029 -22.88146,2.38411 -6.65189,8.29756 -8.29849,8.83969 -8.29849,2.73225 0,-15.28539 21.68025,-22.06744 35.40877,-11.07664 9.84568,7.88226 10.81255,7.56893 8.94181,-2.89776 -4.20446,-23.52366 -30.65941,-46.62004 -52.30052,-45.66072 -2.49856,0.11073 -14.76418,-0.0108 -27.25694,-0.27084 -36.83976,-0.76585 -62.26245,13.81938 -69.09296,39.63928 -4.5075,17.03874 -2.1762,19.33881 9.31478,9.19004 12.40379,-10.95496 33.65694,-3.96046 33.65694,11.07664 0,6.37787 -2.96291,5.4502 -8.72649,-2.73225 -5.98187,-8.49238 -14.55454,-9.37817 -23.07327,-2.38411 -3.12318,2.56421 -7.41409,4.68605 -9.53534,4.7152 -3.34057,0.0459 -3.5266,1.09016 -1.38987,7.80138 5.31427,16.69149 21.64595,32.33381 30.17293,28.89935 2.03957,-0.82149 5.66497,0.46335 8.25831,2.92674 4.55736,4.329 4.61237,4.29094 3.89038,-2.69099 -1.05443,-10.19672 8.59999,-11.86808 10.81685,-1.8726 3.64953,16.45517 38.00551,18.03301 66.00595,3.0314 z m -52.69194,-28.71355 c -0.83937,-1.42552 -0.32807,-3.83942 1.13622,-5.36425 2.02998,-2.1139 2.30291,-1.78141 1.14906,1.39978 -1.21102,3.33884 -0.28196,4.1722 4.65128,4.1722 4.93322,0 5.86227,-0.83336 4.65126,-4.1722 -1.15385,-3.18119 -0.88092,-3.51368 1.14905,-1.39978 3.68854,3.84101 0.68847,7.95609 -5.80031,7.95609 -2.97575,0 -6.09719,-1.16632 -6.93656,-2.59184 z m 24.50438,-78.86294 c -1.23763,-1.29904 -5.18563,-1.94361 -8.77333,-1.4324 l -6.5231,0.92951 7.94995,3.84335 c 7.7769,3.7597 12.19644,1.75012 7.34648,-3.34046 z"
             id="path6587"
             inkscape:connector-curvature="0" />
        </g>
      </g>
    </g>
    <path
       style="fill:#dcdcdc;fill-opacity:1;fill-rule:nonzero;stroke:#8b0000;stroke-width:1;stroke-miterlimit:4;stroke-opacity:1;stroke-dasharray:none"
       d=""
       id="path6636"
       inkscape:connector-curvature="0" />
    <path
       style="fill:#dcdcdc;fill-opacity:1;fill-rule:nonzero;stroke:#8b0000;stroke-width:1;stroke-miterlimit:4;stroke-opacity:1;stroke-dasharray:none"
       d=""
       id="path6646"
       inkscape:connector-curvature="0" />
    <path
       style="fill:#dcdcdc;fill-opacity:1;fill-rule:nonzero;stroke:#8b0000;stroke-width:1;stroke-miterlimit:4;stroke-opacity:1;stroke-dasharray:none"
       d=""
       id="path6648"
       inkscape:connector-curvature="0" />
    <path
       style="fill:#dcdcdc;fill-opacity:1;fill-rule:nonzero;stroke:#8b0000;stroke-width:1;stroke-miterlimit:4;stroke-opacity:1;stroke-dasharray:none"
       d=""
       id="path6650"
       inkscape:connector-curvature="0" />
    <g
       id="g7735"
       inkscape:export-filename="/home/lenik/tasks/22-qt/thumbindex/icon.png"
       inkscape:export-xdpi="19.92"
       inkscape:export-ydpi="19.92"
       transform="translate(586.95761,987.42303)">
      <rect
         inkscape:transform-center-y="2.2907113"
         inkscape:transform-center-x="20.711839"
         transform="matrix(0.72280086,0.69105638,-0.69105638,0.72280086,-222.09914,-872.9242)"
         ry="2.7931035"
         rx="3"
         y="686.27295"
         x="418.91595"
         height="28.526436"
         width="125.72762"
         id="rect7684"
         style="fill:#696969;fill-opacity:1;fill-rule:nonzero;stroke:none;filter:url(#filter7670)" />
      <rect
         style="fill:#696969;fill-opacity:1;fill-rule:nonzero;stroke:none;filter:url(#filter7670)"
         id="rect7682"
         width="125.72762"
         height="28.526436"
         x="418.91595"
         y="686.27295"
         rx="3"
         ry="2.7931035"
         transform="matrix(0.83595862,-0.54879248,0.54879248,0.83595862,-1255.7885,-371.32136)"
         inkscape:transform-center-x="2.4278722"
         inkscape:transform-center-y="20.696205" />
      <rect
         inkscape:transform-center-y="17.295381"
         inkscape:transform-center-x="-11.623132"
         transform="matrix(0.27769083,-0.9606705,0.9606705,0.27769083,-1200.0318,121.82407)"
         ry="2.7931035"
         rx="3"
         y="686.27295"
         x="418.91595"
         height="28.526436"
         width="125.72762"
         id="rect7588"
         style="fill:#696969;fill-opacity:1;fill-rule:nonzero;stroke:none;filter:url(#filter7670)" />
      <g
         transform="translate(-758.82376,-827.3279)"
         id="g7609">
        <path
           sodipodi:nodetypes="sssssss"
           inkscape:connector-curvature="0"
           id="path7601"
           d="m 271.38785,812.08084 c 29.71198,58.4089 -20.12784,4.78136 -27.81855,13.7451 -7.64177,8.90671 -7.44827,46.50797 -14.4419,35.75119 -10.67332,-16.41647 -21.81493,-49.42555 -42.26046,-49.49629 -25.69931,-0.0889 21.15443,-38.33586 40.21147,-22.22886 8.67433,7.33153 17.43839,-27.61638 28.17403,-23.40855 12.59102,4.93504 9.6671,32.92175 16.13541,45.63741 z"
           style="fill:#ffffff;stroke:#000000;stroke-width:1;stroke-miterlimit:4;stroke-opacity:1" />
        <path
           sodipodi:nodetypes="sssss"
           inkscape:connector-curvature="0"
           id="path7603"
           d="m 486.86364,838.83422 c 0,23.76692 -26.68045,43.03383 -48.52594,43.03383 -21.84548,0 -39.55475,-19.26691 -39.55475,-43.03383 0,-23.76693 11.18477,-28.2265 33.03026,-28.2265 21.84549,0 55.05043,4.45957 55.05043,28.2265 z"
           style="fill:#ffffff;stroke:#000000;stroke-width:1;stroke-miterlimit:4;stroke-opacity:1" />
        <path
           transform="translate(5.2955554,6.2550125)"
           inkscape:transform-center-y="1.541113"
           inkscape:transform-center-x="-4.2881264"
           d="m 398.94222,642.21371 c -18.78573,21.81569 -14.05696,20.70065 -40.61003,9.57578 -26.55307,-11.12488 -24.03134,-6.97212 -21.6563,-35.66336 2.37504,-28.69125 -0.79522,-25.00966 27.22571,-31.61695 28.02092,-6.60729 23.53986,-8.48471 38.48271,16.12301 14.94284,24.60772 15.34365,19.76582 -3.44209,41.58152 z"
           inkscape:randomized="0"
           inkscape:rounded="0.69"
           inkscape:flatsided="true"
           sodipodi:arg2="1.3392279"
           sodipodi:arg1="0.71090937"
           sodipodi:r2="28.7139"
           sodipodi:r1="35.492332"
           sodipodi:cy="619.05414"
           sodipodi:cx="372.04724"
           sodipodi:sides="5"
           id="path7605"
           style="fill:#ffffff;fill-opacity:1;fill-rule:nonzero;stroke:#000000;stroke-width:1;stroke-miterlimit:4;stroke-opacity:1;stroke-dasharray:none"
           sodipodi:type="star" />
        <path
           sodipodi:nodetypes="sssssss"
           inkscape:connector-curvature="0"
           id="path7607"
           d="m 386.03478,748.73334 c 2.46317,34.81678 -23.83446,34.37942 -42.58372,38.8483 -8.18887,1.95181 -29.278,-9.4333 -36.9524,-18.10781 -7.79888,-8.81522 -0.8589,-12.13323 -5.63132,-20.74049 -14.7178,-26.54418 6.71199,-42.77981 41.08955,-37.35414 10.58747,1.67097 24.80037,-7.67246 32.88214,-2.14346 8.89492,6.08531 10.34922,27.53195 11.19575,39.4976 z"
           style="fill:#ffffff;fill-opacity:1;fill-rule:nonzero;stroke:#000000;stroke-width:1;stroke-miterlimit:4;stroke-opacity:1" />
      </g>
      <rect
         ry="21.830603"
         rx="19.910082"
         y="-269.75516"
         x="-603.73901"
         height="360.42212"
         width="360.42215"
         id="rect6723"
         style="fill:none;stroke:none" />
      <path
         sodipodi:nodetypes="sssssss"
         inkscape:connector-curvature="0"
         id="path6803"
         d="m -487.43591,-15.24706 c 29.71198,58.4089 -20.12784,4.78136 -27.81855,13.7451 -7.64177,8.90671 -7.44827,46.50797 -14.4419,35.75119 -10.67332,-16.41647 -21.81493,-49.42555 -42.26046,-49.49629 -25.69931,-0.0889 21.15443,-38.33586 40.21147,-22.22886 8.67433,7.33153 17.43839,-27.61638 28.17403,-23.40855 12.59102,4.93504 9.6671,32.92175 16.13541,45.63741 z"
         style="fill:#9acd32;stroke:#000000;stroke-width:1;stroke-miterlimit:4;stroke-opacity:1;filter:url(#filter7615)" />
      <path
         sodipodi:nodetypes="sssss"
         inkscape:connector-curvature="0"
         id="path6805"
         d="m -271.96012,11.50632 c 0,23.76692 -26.68045,43.03383 -48.52594,43.03383 -21.84548,0 -39.55475,-19.26691 -39.55475,-43.03383 0,-23.76693 11.18477,-28.2265 33.03026,-28.2265 21.84549,0 55.05043,4.45957 55.05043,28.2265 z"
         style="fill:#4682b4;stroke:#000000;stroke-width:1;stroke-miterlimit:4;stroke-opacity:1;filter:url(#filter7627)" />
      <path
         transform="translate(-753.5282,-821.07289)"
         inkscape:transform-center-y="1.541113"
         inkscape:transform-center-x="-4.2881264"
         d="m 398.94222,642.21371 c -18.78573,21.81569 -14.05696,20.70065 -40.61003,9.57578 -26.55307,-11.12488 -24.03134,-6.97212 -21.6563,-35.66336 2.37504,-28.69125 -0.79522,-25.00966 27.22571,-31.61695 28.02092,-6.60729 23.53986,-8.48471 38.48271,16.12301 14.94284,24.60772 15.34365,19.76582 -3.44209,41.58152 z"
         inkscape:randomized="0"
         inkscape:rounded="0.69"
         inkscape:flatsided="true"
         sodipodi:arg2="1.3392279"
         sodipodi:arg1="0.71090937"
         sodipodi:r2="28.7139"
         sodipodi:r1="35.492332"
         sodipodi:cy="619.05414"
         sodipodi:cx="372.04724"
         sodipodi:sides="5"
         id="path6814"
         style="fill:#ffa07a;fill-opacity:1;fill-rule:nonzero;stroke:#000000;stroke-width:1;stroke-miterlimit:4;stroke-opacity:1;stroke-dasharray:none;filter:url(#filter7651)"
         sodipodi:type="star" />
      <path
         sodipodi:nodetypes="sssssss"
         inkscape:connector-curvature="0"
         id="path6817"
         d="m -372.78898,-78.59456 c 2.46317,34.81678 -23.83446,34.37942 -42.58372,38.8483 -8.18887,1.95181 -29.278,-9.4333 -36.9524,-18.10781 -7.79888,-8.81522 -0.8589,-12.13323 -5.63132,-20.74049 -14.7178,-26.54418 6.71199,-42.77981 41.08955,-37.35414 10.58747,1.67097 24.80037,-7.67246 32.88214,-2.14346 8.89492,6.08531 10.34922,27.53195 11.19575,39.4976 z"
         style="fill:#808080;fill-opacity:1;fill-rule:nonzero;stroke:#000000;stroke-width:1;stroke-miterlimit:4;stroke-opacity:1;filter:url(#filter7639)" />
    </g>
    <g
       id="g7776"
       transform="translate(263.91708,156.62515)"
       inkscape:export-filename="/home/lenik/tasks/22-qt/thumbscratch/icon.png"
       inkscape:export-xdpi="19.92"
       inkscape:export-ydpi="19.92">
      <rect
         style="fill:none;stroke:none"
         id="rect7686"
         width="360.42215"
         height="360.42212"
         x="121.70795"
         y="561.04272"
         rx="19.910082"
         ry="21.830603" />
      <text
         xml:space="preserve"
         style="font-size:107.42436218px;font-style:normal;font-variant:normal;font-weight:bold;font-stretch:normal;text-align:start;line-height:125%;letter-spacing:0px;word-spacing:0px;writing-mode:lr-tb;text-anchor:start;fill:#dcdcdc;fill-opacity:1;stroke:none;font-family:Breip;-inkscape-font-specification:Breip Bold"
         x="148.7713"
         y="861.59607"
         id="text7772"
         sodipodi:linespacing="125%"
         transform="scale(0.97343345,1.0272916)"><tspan
           sodipodi:role="line"
           id="tspan7774"
           x="148.7713"
           y="861.59607">Scratch</tspan></text>
      <g
         transform="translate(-1.0565346,-23.243762)"
         id="g7766">
        <path
           transform="matrix(1.1266667,0,0,1.1066667,-121.86886,-1.217965)"
           d="m 492.34514,702.64923 c 0,43.7631 -35.477,79.2401 -79.2401,79.2401 -43.7631,0 -79.2401,-35.477 -79.2401,-79.2401 0,-43.7631 35.477,-79.2401 79.2401,-79.2401 43.7631,0 79.2401,35.477 79.2401,79.2401 z"
           sodipodi:ry="79.240097"
           sodipodi:rx="79.240097"
           sodipodi:cy="702.64923"
           sodipodi:cx="413.10504"
           id="path7758"
           style="fill:#a9a9a9;fill-opacity:1;fill-rule:nonzero;stroke:#c0c0c0;stroke-width:0.8955583;stroke-miterlimit:4;stroke-opacity:1;stroke-dasharray:none"
           sodipodi:type="arc" />
        <path
           transform="translate(-62.674752,131.84069)"
           inkscape:transform-center-y="-21.701139"
           d="m 405.8907,638.50401 c -4.23521,7.3356 -165.17314,7.3356 -169.40835,0 -4.23521,-7.33559 76.23376,-146.71193 84.70417,-146.71193 8.47042,0 88.93938,139.37634 84.70418,146.71193 z"
           inkscape:randomized="0"
           inkscape:rounded="0.05"
           inkscape:flatsided="true"
           sodipodi:arg2="1.5707963"
           sodipodi:arg1="0.52359878"
           sodipodi:r2="48.903976"
           sodipodi:r1="97.807953"
           sodipodi:cy="589.60004"
           sodipodi:cx="321.18652"
           sodipodi:sides="3"
           id="path7760"
           style="fill:#a9a9a9;fill-opacity:1;stroke:#c0c0c0;stroke-width:1;stroke-miterlimit:4;stroke-opacity:1;stroke-dasharray:none"
           sodipodi:type="star" />
        <path
           sodipodi:type="arc"
           style="fill:#ffd700;fill-opacity:1;fill-rule:nonzero;stroke:#c0c0c0;stroke-width:0.8955583;stroke-miterlimit:4;stroke-opacity:1;stroke-dasharray:none"
           id="path7756"
           sodipodi:cx="413.10504"
           sodipodi:cy="702.64923"
           sodipodi:rx="79.240097"
           sodipodi:ry="79.240097"
           d="m 492.34514,702.64923 c 0,43.7631 -35.477,79.2401 -79.2401,79.2401 -43.7631,0 -79.2401,-35.477 -79.2401,-79.2401 0,-43.7631 35.477,-79.2401 79.2401,-79.2401 43.7631,0 79.2401,35.477 79.2401,79.2401 z"
           transform="matrix(1.1266667,0,0,1.1066667,-127.86886,-5.2179654)" />
        <path
           sodipodi:type="star"
           style="fill:#fa8072;fill-opacity:1;stroke:#c0c0c0;stroke-width:1;stroke-miterlimit:4;stroke-opacity:1;stroke-dasharray:none"
           id="path7752"
           sodipodi:sides="3"
           sodipodi:cx="321.18652"
           sodipodi:cy="589.60004"
           sodipodi:r1="97.807953"
           sodipodi:r2="48.903976"
           sodipodi:arg1="0.52359878"
           sodipodi:arg2="1.5707963"
           inkscape:flatsided="true"
           inkscape:rounded="0.05"
           inkscape:randomized="0"
           d="m 405.8907,638.50401 c -4.23521,7.3356 -165.17314,7.3356 -169.40835,0 -4.23521,-7.33559 76.23376,-146.71193 84.70417,-146.71193 8.47042,0 88.93938,139.37634 84.70418,146.71193 z"
           inkscape:transform-center-y="-21.701139"
           transform="translate(-68.674752,127.84069)" />
      </g>
      <text
         transform="scale(0.97343346,1.0272916)"
         sodipodi:linespacing="125%"
         id="text7762"
         y="859.64911"
         x="144.66214"
         style="font-size:107.42436218px;font-style:normal;font-variant:normal;font-weight:bold;font-stretch:normal;text-align:start;line-height:125%;letter-spacing:0px;word-spacing:0px;writing-mode:lr-tb;text-anchor:start;fill:#4169e1;fill-opacity:1;stroke:none;font-family:Breip;-inkscape-font-specification:Breip Bold"
         xml:space="preserve"><tspan
           y="859.64911"
           x="144.66214"
           id="tspan7764"
           sodipodi:role="line">Scratch</tspan></text>
    </g>
  </g>
</svg>
